0
SECTION
2
HEADER
9
$INSUNITS
70
4
9
$ACADVER
1
AC1014
9
$HANDSEED
5
FFFF
0
ENDSEC
0
SECTION
2
TABLES
0
TABLE
2
VPORT
5
8
100
AcDbSymbolTable
0
ENDTAB
0
TABLE
2
LTYPE
5
5
100
AcDbSymbolTable
0
LTYPE
5
14
100
AcDbSymbolTableRecord
100
AcDbLinetypeTableRecord
2
BYBLOCK
70
0
0
LTYPE
5
15
100
AcDbSymbolTableRecord
100
AcDbLinetypeTableRecord
2
BYLAYER
70
0
0
ENDTAB
0
TABLE
2
LAYER
5
2
100
AcDbSymbolTable
70
2
0
LAYER
5
50
100
AcDbSymbolTableRecord
100
AcDbLayerTableRecord
2
0
70
0
6
CONTINUOUS
0
ENDTAB
0
TABLE
2
STYLE
5
3
100
AcDbSymbolTable
70
1
0
STYLE
5
11
100
AcDbSymbolTableRecord
100
AcDbTextStyleTableRecord
2
STANDARD
70
0
0
ENDTAB
0
TABLE
2
VIEW
5
6
100
AcDbSymbolTable
70
0
0
ENDTAB
0
TABLE
2
UCS
5
7
100
AcDbSymbolTable
70
0
0
ENDTAB
0
TABLE
2
APPID
5
9
100
AcDbSymbolTable
70
2
0
APPID
5
12
100
AcDbSymbolTableRecord
100
AcDbRegAppTableRecord
2
ACAD
70
0
0
ENDTAB
0
TABLE
2
DIMSTYLE
5
A
100
AcDbSymbolTable
70
1
0
ENDTAB
0
TABLE
2
BLOCK_RECORD
5
1
100
AcDbSymbolTable
70
1
0
BLOCK_RECORD
5
1F
100
AcDbSymbolTableRecord
100
AcDbBlockTableRecord
2
*MODEL_SPACE
0
BLOCK_RECORD
5
1B
100
AcDbSymbolTableRecord
100
AcDbBlockTableRecord
2
*PAPER_SPACE
0
ENDTAB
0
ENDSEC
0
SECTION
2
BLOCKS
0
BLOCK
5
20
100
AcDbEntity
100
AcDbBlockBegin
2
*MODEL_SPACE
0
ENDBLK
5
21
100
AcDbEntity
100
AcDbBlockEnd
0
BLOCK
5
1C
100
AcDbEntity
100
AcDbBlockBegin
2
*PAPER_SPACE
0
ENDBLK
5
1D
100
AcDbEntity
100
AcDbBlockEnd
0
ENDSEC
0
SECTION
2
ENTITIES
0
LWPOLYLINE
5
100
100
AcDbEntity
8
0
100
AcDbPolyline
90
4
70
1
43
0.0
10
-0.65334449891514224
20
0.72344730681461689
42
-0.61683699581407703
10
-0.5696598242215658
20
0.75480000000000003
10
0.56965982422156569
20
0.75480000000000003
42
-0.61683699581407925
10
0.65334449891514201
20
0.72344730681461744
42
-2.5993136999462045
0
LWPOLYLINE
5
101
100
AcDbEntity
8
0
100
AcDbPolyline
90
32
70
1
43
0.0
10
3.2163280364205322
20
0.88790145969879242
42
-0.44072864890154662
10
3.6208904065778817
20
0.62948209152624834
42
-0.086276629872723318
10
3.6208904065778826
20
-0.62948209152624668
42
-0.440728648901548
10
3.2163280364205331
20
-0.88790145969879153
10
2.5853287306294268
20
-0.71882570528746903
42
0.38196601125010315
10
2.2583150330970008
20
-0.88408611078790966
42
-0.2090987774434927
10
0.88408611078791066
20
-2.2583150330970003
42
0.38196601125010399
10
0.71882570528747036
20
-2.5853287306294268
10
0.88790145969879419
20
-3.2163280364205322
42
-0.44072864890154817
10
0.62948209152624757
20
-3.6208904065778826
42
-0.086276629872723207
10
-0.62948209152624612
20
-3.6208904065778826
42
-0.44072864890154811
10
-0.88790145969879153
20
-3.2163280364205327
10
-0.71882570528746903
20
-2.5853287306294268
42
0.38196601125010299
10
-0.88408611078790889
20
-2.2583150330970008
42
-0.2090987774434927
10
-2.2583150330970003
20
-0.88408611078791077
42
0.38196601125010404
10
-2.5853287306294268
20
-0.7188257052874707
10
-3.2163280364205322
20
-0.88790145969879353
42
-0.44072864890154761
10
-3.6208904065778813
20
-0.62948209152624912
42
-0.086276629872723318
10
-3.6208904065778817
20
0.62948209152624579
42
-0.44072864890154834
10
-3.2163280364205331
20
0.8879014596987912
10
-2.5853287306294277
20
0.71882570528746936
42
0.38196601125010371
10
-2.2583150330970012
20
0.88408611078791011
42
-0.2090987774434927
10
-0.88408611078791044
20
2.2583150330970008
42
0.38196601125010404
10
-0.71882570528747025
20
2.5853287306294277
10
-0.88790145969879308
20
3.2163280364205322
42
-0.44072864890154773
10
-0.62948209152624834
20
3.6208904065778813
42
-0.086276629872723318
10
0.62948209152624679
20
3.6208904065778817
42
-0.44072864890154795
10
0.88790145969879175
20
3.2163280364205327
10
0.71882570528746925
20
2.5853287306294268
42
0.38196601125010493
10
0.88408611078791066
20
2.2583150330970008
42
-0.20909877744349259
10
2.2583150330970003
20
0.88408611078791077
42
0.38196601125010399
10
2.5853287306294268
20
0.71882570528747036
0
ENDSEC
0
SECTION
2
OBJECTS
0
DICTIONARY
5
C
100
AcDbDictionary
3
ACAD_GROUP
350
D
3
ACAD_MLINESTYLE
350
17
0
DICTIONARY
5
D
100
AcDbDictionary
0
DICTIONARY
5
1A
330
C
100
AcDbDictionary
0
DICTIONARY
5
17
100
AcDbDictionary
0
ENDSEC
0
EOF
