0
SECTION
2
HEADER
9
$INSUNITS
70
4
9
$ACADVER
1
AC1014
9
$HANDSEED
5
FFFF
0
ENDSEC
0
SECTION
2
TABLES
0
TABLE
2
VPORT
5
8
100
AcDbSymbolTable
0
ENDTAB
0
TABLE
2
LTYPE
5
5
100
AcDbSymbolTable
0
LTYPE
5
14
100
AcDbSymbolTableRecord
100
AcDbLinetypeTableRecord
2
BYBLOCK
70
0
0
LTYPE
5
15
100
AcDbSymbolTableRecord
100
AcDbLinetypeTableRecord
2
BYLAYER
70
0
0
ENDTAB
0
TABLE
2
LAYER
5
2
100
AcDbSymbolTable
70
2
0
LAYER
5
50
100
AcDbSymbolTableRecord
100
AcDbLayerTableRecord
2
0
70
0
6
CONTINUOUS
0
ENDTAB
0
TABLE
2
STYLE
5
3
100
AcDbSymbolTable
70
1
0
STYLE
5
11
100
AcDbSymbolTableRecord
100
AcDbTextStyleTableRecord
2
STANDARD
70
0
0
ENDTAB
0
TABLE
2
VIEW
5
6
100
AcDbSymbolTable
70
0
0
ENDTAB
0
TABLE
2
UCS
5
7
100
AcDbSymbolTable
70
0
0
ENDTAB
0
TABLE
2
APPID
5
9
100
AcDbSymbolTable
70
2
0
APPID
5
12
100
AcDbSymbolTableRecord
100
AcDbRegAppTableRecord
2
ACAD
70
0
0
ENDTAB
0
TABLE
2
DIMSTYLE
5
A
100
AcDbSymbolTable
70
1
0
ENDTAB
0
TABLE
2
BLOCK_RECORD
5
1
100
AcDbSymbolTable
70
1
0
BLOCK_RECORD
5
1F
100
AcDbSymbolTableRecord
100
AcDbBlockTableRecord
2
*MODEL_SPACE
0
BLOCK_RECORD
5
1B
100
AcDbSymbolTableRecord
100
AcDbBlockTableRecord
2
*PAPER_SPACE
0
ENDTAB
0
ENDSEC
0
SECTION
2
BLOCKS
0
BLOCK
5
20
100
AcDbEntity
100
AcDbBlockBegin
2
*MODEL_SPACE
0
ENDBLK
5
21
100
AcDbEntity
100
AcDbBlockEnd
0
BLOCK
5
1C
100
AcDbEntity
100
AcDbBlockBegin
2
*PAPER_SPACE
0
ENDBLK
5
1D
100
AcDbEntity
100
AcDbBlockEnd
0
ENDSEC
0
SECTION
2
ENTITIES
0
LWPOLYLINE
5
100
100
AcDbEntity
8
0
100
AcDbPolyline
90
8
70
1
43
0.0
10
0.69139825153670587
20
0.70828842837645334
42
-0.22043905463203745
10
0.68392327790974505
20
0.72793694763739147
42
0.74009239062778476
10
0.55002027034163359
20
0.77940336222252848
42
-0.23080000389640429
10
0.53032398781393764
20
0.7697999999915085
10
-0.53032398781393753
20
0.76979999999151016
42
-0.23080000389640418
10
-0.55002027034163214
20
0.77940336222252959
42
0.74009239062777976
10
-0.68392327790974539
20
0.72793694763739158
42
-0.22043905463204677
10
-0.69139825153670675
20
0.70828842837645301
42
2.4560207154158551
0
LWPOLYLINE
5
101
100
AcDbEntity
8
0
100
AcDbPolyline
90
32
70
1
43
0.0
10
3.2202103220970701
20
0.87341257230445724
42
-0.44072864890154806
10
3.6061120663246533
20
0.62691291668599658
42
-0.086276629872723318
10
3.6061120663246533
20
-0.6269129166859948
42
-0.44072864890154723
10
3.2202103220970706
20
-0.87341257230445557
10
2.5892110163059643
20
-0.70433681789313285
42
0.3819660112501026
10
2.2443472261134718
20
-0.87861798788595469
42
-0.20909877744349281
10
0.87861798788595669
20
-2.2443472261134714
42
0.38196601125010365
10
0.7043368178931344
20
-2.5892110163059643
10
0.87341257230445746
20
-3.2202103220970701
42
-0.44072864890154839
10
0.6269129166859938
20
-3.6061120663246515
42
-0.086276629872723096
10
-0.62691291668599425
20
-3.6061120663246529
42
-0.44072864890154756
10
-0.87341257230445557
20
-3.2202103220970701
10
-0.70433681789313285
20
-2.5892110163059643
42
0.38196601125010232
10
-0.87861798788595447
20
-2.2443472261134723
42
-0.20909877744349281
10
-2.2443472261134714
20
-0.8786179878859568
42
0.38196601125010371
10
-2.5892110163059643
20
-0.70433681789313474
10
-3.2202103220970701
20
-0.87341257230445724
42
-0.4407286489015495
10
-3.6061120663246529
20
-0.6269129166859938
42
-0.086276629872723096
10
-3.6061120663246533
20
0.62691291668599414
42
-0.44072864890154739
10
-3.2202103220970706
20
0.87341257230445524
10
-2.5892110163059643
20
0.70433681789313329
42
0.38196601125010299
10
-2.2443472261134727
20
0.87861798788595513
42
-0.20909877744349281
10
-0.87861798788595635
20
2.2443472261134718
42
0.38196601125010371
10
-0.70433681789313429
20
2.5892110163059652
10
-0.87341257230445724
20
3.2202103220970701
42
-0.44072864890154945
10
-0.62691291668599314
20
3.6061120663246533
42
-0.086276629872723096
10
0.6269129166859948
20
3.6061120663246533
42
-0.44072864890154695
10
0.8734125723044559
20
3.2202103220970701
10
0.70433681789313307
20
2.5892110163059643
42
0.38196601125010438
10
0.87861798788595624
20
2.2443472261134718
42
-0.20909877744349259
10
2.2443472261134714
20
0.8786179878859568
42
0.3819660112501036
10
2.5892110163059643
20
0.7043368178931344
0
ENDSEC
0
SECTION
2
OBJECTS
0
DICTIONARY
5
C
100
AcDbDictionary
3
ACAD_GROUP
350
D
3
ACAD_MLINESTYLE
350
17
0
DICTIONARY
5
D
100
AcDbDictionary
0
DICTIONARY
5
1A
330
C
100
AcDbDictionary
0
DICTIONARY
5
17
100
AcDbDictionary
0
ENDSEC
0
EOF
