0
SECTION
2
HEADER
9
$INSUNITS
70
4
9
$ACADVER
1
AC1014
9
$HANDSEED
5
FFFF
0
ENDSEC
0
SECTION
2
TABLES
0
TABLE
2
VPORT
5
8
100
AcDbSymbolTable
0
ENDTAB
0
TABLE
2
LTYPE
5
5
100
AcDbSymbolTable
0
LTYPE
5
14
100
AcDbSymbolTableRecord
100
AcDbLinetypeTableRecord
2
BYBLOCK
70
0
0
LTYPE
5
15
100
AcDbSymbolTableRecord
100
AcDbLinetypeTableRecord
2
BYLAYER
70
0
0
ENDTAB
0
TABLE
2
LAYER
5
2
100
AcDbSymbolTable
70
2
0
LAYER
5
50
100
AcDbSymbolTableRecord
100
AcDbLayerTableRecord
2
0
70
0
6
CONTINUOUS
0
ENDTAB
0
TABLE
2
STYLE
5
3
100
AcDbSymbolTable
70
1
0
STYLE
5
11
100
AcDbSymbolTableRecord
100
AcDbTextStyleTableRecord
2
STANDARD
70
0
0
ENDTAB
0
TABLE
2
VIEW
5
6
100
AcDbSymbolTable
70
0
0
ENDTAB
0
TABLE
2
UCS
5
7
100
AcDbSymbolTable
70
0
0
ENDTAB
0
TABLE
2
APPID
5
9
100
AcDbSymbolTable
70
2
0
APPID
5
12
100
AcDbSymbolTableRecord
100
AcDbRegAppTableRecord
2
ACAD
70
0
0
ENDTAB
0
TABLE
2
DIMSTYLE
5
A
100
AcDbSymbolTable
70
1
0
ENDTAB
0
TABLE
2
BLOCK_RECORD
5
1
100
AcDbSymbolTable
70
1
0
BLOCK_RECORD
5
1F
100
AcDbSymbolTableRecord
100
AcDbBlockTableRecord
2
*MODEL_SPACE
0
BLOCK_RECORD
5
1B
100
AcDbSymbolTableRecord
100
AcDbBlockTableRecord
2
*PAPER_SPACE
0
ENDTAB
0
ENDSEC
0
SECTION
2
BLOCKS
0
BLOCK
5
20
100
AcDbEntity
100
AcDbBlockBegin
2
*MODEL_SPACE
0
ENDBLK
5
21
100
AcDbEntity
100
AcDbBlockEnd
0
BLOCK
5
1C
100
AcDbEntity
100
AcDbBlockBegin
2
*PAPER_SPACE
0
ENDBLK
5
1D
100
AcDbEntity
100
AcDbBlockEnd
0
ENDSEC
0
SECTION
2
ENTITIES
0
LWPOLYLINE
5
100
100
AcDbEntity
8
0
100
AcDbPolyline
90
8
70
1
43
0.0
10
0.8357456165390903
20
0.54911680400047502
42
-0.23070102658773742
10
0.82457521749819551
20
0.63601898960034864
42
0.8159206836998083
10
0.48601409760860226
20
0.83333333333333381
42
-0.21342176528339135
10
0.41147849835860889
20
0.80000000000000004
10
-0.411478498358609
20
0.79999999999999982
42
-0.21342176528339146
10
-0.48601409760860215
20
0.83333333333333348
42
0.81592068369980675
10
-0.82457521749819596
20
0.63601898960034819
42
-0.23070102658773564
10
-0.83574561653909085
20
0.5491168040004748
42
1.8535745486952466
0
LWPOLYLINE
5
101
100
AcDbEntity
8
0
100
AcDbPolyline
90
32
70
1
43
0.0
10
3.6019455211063041
20
1.4919746857712592
42
-0.42174456989599191
10
3.7335526813772448
20
1.4354735718155198
42
-0.18561631774646162
10
3.7335526813772435
20
-1.4354735718155187
42
-0.4217445698959979
10
3.6019455211063027
20
-1.4919746857712597
10
2.4003094355737957
20
-0.99424072210677616
42
0.40299002564426872
10
2.2711933580166219
20
-1.0448352647672163
42
-0.17898954991791111
10
1.0448352647672172
20
-2.2711933580166219
42
0.40299002564426833
10
0.99424072210677672
20
-2.4003094355737957
10
1.4919746857712599
20
-3.6019455211063041
42
-0.42174456989599751
10
1.4354735718155212
20
-3.7335526813772435
42
-0.18561631774646162
10
-1.4354735718155176
20
-3.7335526813772439
42
-0.42174456989599529
10
-1.4919746857712584
20
-3.6019455211063041
10
-0.99424072210677628
20
-2.4003094355737966
42
0.40299002564426784
10
-1.0448352647672159
20
-2.2711933580166228
42
-0.17898954991791111
10
-2.2711933580166215
20
-1.0448352647672179
42
0.40299002564426983
10
-2.4003094355737957
20
-0.99424072210677727
10
-3.6019455211063018
20
-1.4919746857712606
42
-0.42174456989600856
10
-3.7335526813772453
20
-1.4354735718155176
42
-0.1856163177464614
10
-3.7335526813772439
20
1.4354735718155174
42
-0.42174456989600068
10
-3.6019455211063041
20
1.4919746857712579
10
-2.4003094355737966
20
0.99424072210677561
42
0.40299002564427089
10
-2.2711933580166219
20
1.0448352647672161
42
-0.17898954991791111
10
-1.0448352647672174
20
2.2711933580166219
42
0.40299002564426861
10
-0.99424072210677639
20
2.4003094355737957
10
-1.491974685771259
20
3.6019455211063041
42
-0.42174456989599901
10
-1.4354735718155187
20
3.7335526813772435
42
-0.18561631774646151
10
1.4354735718155174
20
3.7335526813772435
42
-0.4217445698960004
10
1.4919746857712588
20
3.6019455211063036
10
0.99424072210677639
20
2.4003094355737962
42
0.40299002564426839
10
1.0448352647672163
20
2.2711933580166219
42
-0.17898954991791111
10
2.2711933580166219
20
1.0448352647672172
42
0.40299002564426906
10
2.4003094355737957
20
0.99424072210677672
0
ENDSEC
0
SECTION
2
OBJECTS
0
DICTIONARY
5
C
100
AcDbDictionary
3
ACAD_GROUP
350
D
3
ACAD_MLINESTYLE
350
17
0
DICTIONARY
5
D
100
AcDbDictionary
0
DICTIONARY
5
1A
330
C
100
AcDbDictionary
0
DICTIONARY
5
17
100
AcDbDictionary
0
ENDSEC
0
EOF
