0
SECTION
2
HEADER
9
$INSUNITS
70
4
9
$ACADVER
1
AC1014
9
$HANDSEED
5
FFFF
0
ENDSEC
0
SECTION
2
TABLES
0
TABLE
2
VPORT
5
8
100
AcDbSymbolTable
0
ENDTAB
0
TABLE
2
LTYPE
5
5
100
AcDbSymbolTable
0
LTYPE
5
14
100
AcDbSymbolTableRecord
100
AcDbLinetypeTableRecord
2
BYBLOCK
70
0
0
LTYPE
5
15
100
AcDbSymbolTableRecord
100
AcDbLinetypeTableRecord
2
BYLAYER
70
0
0
ENDTAB
0
TABLE
2
LAYER
5
2
100
AcDbSymbolTable
70
2
0
LAYER
5
50
100
AcDbSymbolTableRecord
100
AcDbLayerTableRecord
2
0
70
0
6
CONTINUOUS
0
ENDTAB
0
TABLE
2
STYLE
5
3
100
AcDbSymbolTable
70
1
0
STYLE
5
11
100
AcDbSymbolTableRecord
100
AcDbTextStyleTableRecord
2
STANDARD
70
0
0
ENDTAB
0
TABLE
2
VIEW
5
6
100
AcDbSymbolTable
70
0
0
ENDTAB
0
TABLE
2
UCS
5
7
100
AcDbSymbolTable
70
0
0
ENDTAB
0
TABLE
2
APPID
5
9
100
AcDbSymbolTable
70
2
0
APPID
5
12
100
AcDbSymbolTableRecord
100
AcDbRegAppTableRecord
2
ACAD
70
0
0
ENDTAB
0
TABLE
2
DIMSTYLE
5
A
100
AcDbSymbolTable
70
1
0
ENDTAB
0
TABLE
2
BLOCK_RECORD
5
1
100
AcDbSymbolTable
70
1
0
BLOCK_RECORD
5
1F
100
AcDbSymbolTableRecord
100
AcDbBlockTableRecord
2
*MODEL_SPACE
0
BLOCK_RECORD
5
1B
100
AcDbSymbolTableRecord
100
AcDbBlockTableRecord
2
*PAPER_SPACE
0
ENDTAB
0
ENDSEC
0
SECTION
2
BLOCKS
0
BLOCK
5
20
100
AcDbEntity
100
AcDbBlockBegin
2
*MODEL_SPACE
0
ENDBLK
5
21
100
AcDbEntity
100
AcDbBlockEnd
0
BLOCK
5
1C
100
AcDbEntity
100
AcDbBlockBegin
2
*PAPER_SPACE
0
ENDBLK
5
1D
100
AcDbEntity
100
AcDbBlockEnd
0
ENDSEC
0
SECTION
2
ENTITIES
0
LWPOLYLINE
5
100
100
AcDbEntity
8
0
100
AcDbPolyline
90
4
70
1
43
0.0
10
-0.64039691625157436
20
0.68783415854076035
42
-0.61687108197710516
10
-0.55694215488531329
20
0.71979999999999955
10
0.55694215488531329
20
0.71979999999999955
42
-0.6168710819771076
10
0.6403969162515738
20
0.6878341585407608
42
-2.5416021177424906
0
LWPOLYLINE
5
101
100
AcDbEntity
8
0
100
AcDbPolyline
90
32
70
1
43
0.0
10
3.2072693698419448
20
0.92170886361891091
42
-0.44072864890154617
10
3.6553732005020843
20
0.63547683282016965
42
-0.086276629872723318
10
3.6553732005020843
20
-0.63547683282016776
42
-0.44072864890154795
10
3.2072693698419452
20
-0.92170886361890902
10
2.5762700640508389
20
-0.75263310920758641
42
0.38196601125010299
10
2.2909065827252357
20
-0.89684506422580168
42
-0.2090987774434927
10
0.89684506422580323
20
-2.2909065827252348
42
0.38196601125010432
10
0.75263310920758786
20
-2.5762700640508389
10
0.92170886361891247
20
-3.2072693698419434
42
-0.44072864890154867
10
0.6354768328201682
20
-3.6553732005020843
42
-0.086276629872723207
10
-0.6354768328201672
20
-3.6553732005020843
42
-0.440728648901548
10
-0.92170886361890902
20
-3.2072693698419448
10
-0.75263310920758641
20
-2.5762700640508389
42
0.38196601125010271
10
-0.89684506422580079
20
-2.2909065827252366
42
-0.20909877744349281
10
-2.2909065827252348
20
-0.89684506422580323
42
0.38196601125010421
10
-2.5762700640508389
20
-0.75263310920758819
10
-3.2072693698419439
20
-0.92170886361891191
42
-0.44072864890154723
10
-3.6553732005020816
20
-0.63547683282016987
42
-0.086276629872723318
10
-3.6553732005020834
20
0.63547683282016698
42
-0.44072864890154817
10
-3.2072693698419452
20
0.92170886361890869
10
-2.5762700640508389
20
0.75263310920758675
42
0.38196601125010304
10
-2.2909065827252366
20
0.89684506422580135
42
-0.20909877744349281
10
-0.8968450642258029
20
2.2909065827252357
42
0.38196601125010421
10
-0.75263310920758775
20
2.5762700640508394
10
-0.92170886361891136
20
3.2072693698419439
42
-0.44072864890154723
10
-0.63547683282016787
20
3.6553732005020843
42
-0.086276629872723207
10
0.63547683282016765
20
3.6553732005020843
42
-0.440728648901548
10
0.92170886361890925
20
3.2072693698419448
10
0.75263310920758664
20
2.5762700640508389
42
0.38196601125010515
10
0.89684506422580279
20
2.2909065827252357
42
-0.20909877744349259
10
2.2909065827252348
20
0.89684506422580323
42
0.3819660112501041
10
2.5762700640508389
20
0.75263310920758786
0
ENDSEC
0
SECTION
2
OBJECTS
0
DICTIONARY
5
C
100
AcDbDictionary
3
ACAD_GROUP
350
D
3
ACAD_MLINESTYLE
350
17
0
DICTIONARY
5
D
100
AcDbDictionary
0
DICTIONARY
5
1A
330
C
100
AcDbDictionary
0
DICTIONARY
5
17
100
AcDbDictionary
0
ENDSEC
0
EOF
