0
SECTION
2
HEADER
9
$INSUNITS
70
4
9
$ACADVER
1
AC1014
9
$HANDSEED
5
FFFF
0
ENDSEC
0
SECTION
2
TABLES
0
TABLE
2
VPORT
5
8
100
AcDbSymbolTable
0
ENDTAB
0
TABLE
2
LTYPE
5
5
100
AcDbSymbolTable
0
LTYPE
5
14
100
AcDbSymbolTableRecord
100
AcDbLinetypeTableRecord
2
BYBLOCK
70
0
0
LTYPE
5
15
100
AcDbSymbolTableRecord
100
AcDbLinetypeTableRecord
2
BYLAYER
70
0
0
ENDTAB
0
TABLE
2
LAYER
5
2
100
AcDbSymbolTable
70
2
0
LAYER
5
50
100
AcDbSymbolTableRecord
100
AcDbLayerTableRecord
2
0
70
0
6
CONTINUOUS
0
ENDTAB
0
TABLE
2
STYLE
5
3
100
AcDbSymbolTable
70
1
0
STYLE
5
11
100
AcDbSymbolTableRecord
100
AcDbTextStyleTableRecord
2
STANDARD
70
0
0
ENDTAB
0
TABLE
2
VIEW
5
6
100
AcDbSymbolTable
70
0
0
ENDTAB
0
TABLE
2
UCS
5
7
100
AcDbSymbolTable
70
0
0
ENDTAB
0
TABLE
2
APPID
5
9
100
AcDbSymbolTable
70
2
0
APPID
5
12
100
AcDbSymbolTableRecord
100
AcDbRegAppTableRecord
2
ACAD
70
0
0
ENDTAB
0
TABLE
2
DIMSTYLE
5
A
100
AcDbSymbolTable
70
1
0
ENDTAB
0
TABLE
2
BLOCK_RECORD
5
1
100
AcDbSymbolTable
70
1
0
BLOCK_RECORD
5
1F
100
AcDbSymbolTableRecord
100
AcDbBlockTableRecord
2
*MODEL_SPACE
0
BLOCK_RECORD
5
1B
100
AcDbSymbolTableRecord
100
AcDbBlockTableRecord
2
*PAPER_SPACE
0
ENDTAB
0
ENDSEC
0
SECTION
2
BLOCKS
0
BLOCK
5
20
100
AcDbEntity
100
AcDbBlockBegin
2
*MODEL_SPACE
0
ENDBLK
5
21
100
AcDbEntity
100
AcDbBlockEnd
0
BLOCK
5
1C
100
AcDbEntity
100
AcDbBlockBegin
2
*PAPER_SPACE
0
ENDBLK
5
1D
100
AcDbEntity
100
AcDbBlockEnd
0
ENDSEC
0
SECTION
2
ENTITIES
0
CIRCLE
5
100
100
AcDbEntity
8
0
100
AcDbCircle
10
33
20
-182.00000000000003
30
0
40
1.5000000000000036
210
0
220
0
230
1
0
CIRCLE
5
101
100
AcDbEntity
8
0
100
AcDbCircle
10
-33.000000000000121
20
-182
30
0
40
1.5000000000000036
210
0
220
0
230
1
0
CIRCLE
5
102
100
AcDbEntity
8
0
100
AcDbCircle
10
-19
20
-41.999999999999986
30
0
40
1.4999999999999991
210
0
220
0
230
1
0
CIRCLE
5
103
100
AcDbEntity
8
0
100
AcDbCircle
10
19.000000000000004
20
-42
30
0
40
1.4999999999999991
210
0
220
0
230
1
0
LINE
5
104
100
AcDbEntity
8
0
100
AcDbLine
10
29.999999999999996
20
-192.00000000000003
30
0
11
36.000000000000007
21
-186.00000000000017
31
0
0
LINE
5
105
100
AcDbEntity
8
0
100
AcDbLine
10
36.000000000000007
20
-186.00000000000017
30
0
11
36.000000000000007
21
-81
31
0
0
LINE
5
106
100
AcDbEntity
8
0
100
AcDbLine
10
36.000000000000007
20
-81
30
0
11
32.375000000000028
21
-48.375000000000448
31
0
0
LINE
5
107
100
AcDbEntity
8
0
100
AcDbLine
10
32.375000000000028
20
-48.375000000000448
30
0
11
23.000000000000071
21
-39
31
0
0
LINE
5
108
100
AcDbEntity
8
0
100
AcDbLine
10
23.000000000000071
20
-39
30
0
11
14.999999999999936
21
-39
31
0
0
LINE
5
109
100
AcDbEntity
8
0
100
AcDbLine
10
14.999999999999936
20
-39
30
0
11
9
21
-45
31
0
0
LINE
5
110
100
AcDbEntity
8
0
100
AcDbLine
10
-8.9999999999999982
20
-44.999999999999986
30
0
11
-14.999999999999931
21
-38.999999999999986
31
0
0
LINE
5
111
100
AcDbEntity
8
0
100
AcDbLine
10
-14.999999999999931
20
-38.999999999999986
30
0
11
-23.00000000000006
21
-38.999999999999964
31
0
0
LINE
5
112
100
AcDbEntity
8
0
100
AcDbLine
10
-23.00000000000006
20
-38.999999999999964
30
0
11
-32.375000000000028
21
-48.375000000000412
31
0
0
LINE
5
113
100
AcDbEntity
8
0
100
AcDbLine
10
-32.375000000000028
20
-48.375000000000412
30
0
11
-36
21
-81
31
0
0
LINE
5
114
100
AcDbEntity
8
0
100
AcDbLine
10
-36
20
-81
30
0
11
-36.000000000000021
21
-186.00000000000017
31
0
0
LINE
5
115
100
AcDbEntity
8
0
100
AcDbLine
10
-36.000000000000021
20
-186.00000000000017
30
0
11
-30.000000000000004
21
-192.00000000000003
31
0
0
LINE
5
116
100
AcDbEntity
8
0
100
AcDbLine
10
-30.000000000000004
20
-192.00000000000003
30
0
11
29.999999999999996
21
-192.00000000000003
31
0
0
CIRCLE
5
117
100
AcDbEntity
8
0
100
AcDbCircle
10
1.4707087399775297e-11
20
-147.49999999999989
30
0
40
5
210
0
220
0
230
1
0
CIRCLE
5
118
100
AcDbEntity
8
0
100
AcDbCircle
10
26
20
-157.00000000000003
30
0
40
1.9999999999999996
210
0
220
0
230
1
0
CIRCLE
5
119
100
AcDbEntity
8
0
100
AcDbCircle
10
10
20
-157.00000000000003
30
0
40
1.9999999999999996
210
0
220
0
230
1
0
CIRCLE
5
120
100
AcDbEntity
8
0
100
AcDbCircle
10
-10
20
-157.00000000000003
30
0
40
1.9999999999999996
210
0
220
0
230
1
0
CIRCLE
5
121
100
AcDbEntity
8
0
100
AcDbCircle
10
-26
20
-157.00000000000003
30
0
40
1.9999999999999996
210
0
220
0
230
1
0
CIRCLE
5
122
100
AcDbEntity
8
0
100
AcDbCircle
10
-26
20
-138.00000000000003
30
0
40
1.9999999999999996
210
0
220
0
230
1
0
CIRCLE
5
123
100
AcDbEntity
8
0
100
AcDbCircle
10
-10
20
-138.00000000000003
30
0
40
1.9999999999999996
210
0
220
0
230
1
0
CIRCLE
5
124
100
AcDbEntity
8
0
100
AcDbCircle
10
10
20
-138.00000000000003
30
0
40
1.9999999999999996
210
0
220
0
230
1
0
CIRCLE
5
125
100
AcDbEntity
8
0
100
AcDbCircle
10
26
20
-138.00000000000003
30
0
40
1.9999999999999996
210
0
220
0
230
1
0
CIRCLE
5
126
100
AcDbEntity
8
0
100
AcDbCircle
10
28.000000000000004
20
-122
30
0
40
1.9999999999999996
210
0
220
0
230
1
0
CIRCLE
5
127
100
AcDbEntity
8
0
100
AcDbCircle
10
8.0000000000000036
20
-122
30
0
40
1.9999999999999996
210
0
220
0
230
1
0
CIRCLE
5
128
100
AcDbEntity
8
0
100
AcDbCircle
10
-7.9999999999999982
20
-121.99999999999997
30
0
40
1.9999999999999996
210
0
220
0
230
1
0
CIRCLE
5
129
100
AcDbEntity
8
0
100
AcDbCircle
10
-28.000000000000004
20
-122
30
0
40
1.9999999999999996
210
0
220
0
230
1
0
CIRCLE
5
130
100
AcDbEntity
8
0
100
AcDbCircle
10
28.000000000000004
20
-106.00000000000001
30
0
40
1.9999999999999996
210
0
220
0
230
1
0
CIRCLE
5
131
100
AcDbEntity
8
0
100
AcDbCircle
10
28.000000000000004
20
-90
30
0
40
1.9999999999999996
210
0
220
0
230
1
0
CIRCLE
5
132
100
AcDbEntity
8
0
100
AcDbCircle
10
26
20
-74
30
0
40
1.9999999999999996
210
0
220
0
230
1
0
CIRCLE
5
133
100
AcDbEntity
8
0
100
AcDbCircle
10
0
20
-90
30
0
40
1.9999999999999996
210
0
220
0
230
1
0
CIRCLE
5
134
100
AcDbEntity
8
0
100
AcDbCircle
10
0
20
-106.00000000000001
30
0
40
1.9999999999999996
210
0
220
0
230
1
0
CIRCLE
5
135
100
AcDbEntity
8
0
100
AcDbCircle
10
0
20
-74
30
0
40
1.9999999999999996
210
0
220
0
230
1
0
CIRCLE
5
136
100
AcDbEntity
8
0
100
AcDbCircle
10
-26
20
-74
30
0
40
1.9999999999999996
210
0
220
0
230
1
0
CIRCLE
5
137
100
AcDbEntity
8
0
100
AcDbCircle
10
-28.000000000000004
20
-90
30
0
40
1.9999999999999996
210
0
220
0
230
1
0
CIRCLE
5
138
100
AcDbEntity
8
0
100
AcDbCircle
10
-28.000000000000004
20
-106.00000000000001
30
0
40
1.9999999999999996
210
0
220
0
230
1
0
CIRCLE
5
139
100
AcDbEntity
8
0
100
AcDbCircle
10
24
20
-58.000000000000007
30
0
40
1.9999999999999996
210
0
220
0
230
1
0
CIRCLE
5
140
100
AcDbEntity
8
0
100
AcDbCircle
10
0
20
-58.000000000000007
30
0
40
1.9999999999999996
210
0
220
0
230
1
0
CIRCLE
5
141
100
AcDbEntity
8
0
100
AcDbCircle
10
-24.000000000000004
20
-58.000000000000007
30
0
40
1.9999999999999996
210
0
220
0
230
1
0
LINE
5
142
100
AcDbEntity
8
0
100
AcDbLine
10
0
20
0
30
0
11
-4.4408920985006262e-15
21
-192.00000000000003
31
0
0
CIRCLE
5
143
100
AcDbEntity
8
0
100
AcDbCircle
10
0
20
0
30
0
40
1
210
0
220
0
230
1
0
LWPOLYLINE
5
144
100
AcDbEntity
8
0
100
AcDbPolyline
90
4
70
1
43
0.0
10
19.099999999999998
20
-185.75000000000003
10
22.899999999999995
20
-185.75000000000003
10
22.899999999999995
20
-172.25
10
19.099999999999998
20
-172.25
0
LINE
5
145
100
AcDbEntity
8
0
100
AcDbLine
10
20.999999999999996
20
-185.75000000000003
30
0
11
20.999999999999996
21
-172.25
31
0
0
LINE
5
146
100
AcDbEntity
8
0
100
AcDbLine
10
20.999999999999996
20
-179.00000000000003
30
0
11
-4.1402066959979801e-15
21
-179.00000000000003
31
0
0
LWPOLYLINE
5
147
100
AcDbEntity
8
0
100
AcDbPolyline
90
4
70
1
43
0.0
10
-29.99999999999995
20
-191.75
10
-29.99999999999995
20
-166.25
10
18.000000000000057
20
-166.24999999999997
10
18.000000000000057
20
-191.74999999999997
0
LINE
5
148
100
AcDbEntity
8
0
100
AcDbLine
10
-5.9999999999999476
20
-191.74999999999997
30
0
11
-5.9999999999999476
21
-166.25
31
0
0
LINE
5
149
100
AcDbEntity
8
0
100
AcDbLine
10
-5.9999999999999476
20
-179
30
0
11
-4.1402066959979801e-15
21
-179.00000000000003
31
0
0
LINE
5
150
100
AcDbEntity
8
0
100
AcDbLine
10
9
20
-45
30
0
11
-8.9999999999999982
21
-44.999999999999986
31
0
0
ENDSEC
0
SECTION
2
OBJECTS
0
DICTIONARY
5
C
100
AcDbDictionary
3
ACAD_GROUP
350
D
3
ACAD_MLINESTYLE
350
17
0
DICTIONARY
5
D
100
AcDbDictionary
0
DICTIONARY
5
1A
330
C
100
AcDbDictionary
0
DICTIONARY
5
17
100
AcDbDictionary
0
ENDSEC
0
EOF
