0
SECTION
2
HEADER
9
$INSUNITS
70
4
9
$ACADVER
1
AC1014
9
$HANDSEED
5
FFFF
0
ENDSEC
0
SECTION
2
TABLES
0
TABLE
2
VPORT
5
8
100
AcDbSymbolTable
0
ENDTAB
0
TABLE
2
LTYPE
5
5
100
AcDbSymbolTable
0
LTYPE
5
14
100
AcDbSymbolTableRecord
100
AcDbLinetypeTableRecord
2
BYBLOCK
70
0
0
LTYPE
5
15
100
AcDbSymbolTableRecord
100
AcDbLinetypeTableRecord
2
BYLAYER
70
0
0
ENDTAB
0
TABLE
2
LAYER
5
2
100
AcDbSymbolTable
70
2
0
LAYER
5
50
100
AcDbSymbolTableRecord
100
AcDbLayerTableRecord
2
0
70
0
6
CONTINUOUS
0
ENDTAB
0
TABLE
2
STYLE
5
3
100
AcDbSymbolTable
70
1
0
STYLE
5
11
100
AcDbSymbolTableRecord
100
AcDbTextStyleTableRecord
2
STANDARD
70
0
0
ENDTAB
0
TABLE
2
VIEW
5
6
100
AcDbSymbolTable
70
0
0
ENDTAB
0
TABLE
2
UCS
5
7
100
AcDbSymbolTable
70
0
0
ENDTAB
0
TABLE
2
APPID
5
9
100
AcDbSymbolTable
70
2
0
APPID
5
12
100
AcDbSymbolTableRecord
100
AcDbRegAppTableRecord
2
ACAD
70
0
0
ENDTAB
0
TABLE
2
DIMSTYLE
5
A
100
AcDbSymbolTable
70
1
0
ENDTAB
0
TABLE
2
BLOCK_RECORD
5
1
100
AcDbSymbolTable
70
1
0
BLOCK_RECORD
5
1F
100
AcDbSymbolTableRecord
100
AcDbBlockTableRecord
2
*MODEL_SPACE
0
BLOCK_RECORD
5
1B
100
AcDbSymbolTableRecord
100
AcDbBlockTableRecord
2
*PAPER_SPACE
0
ENDTAB
0
ENDSEC
0
SECTION
2
BLOCKS
0
BLOCK
5
20
100
AcDbEntity
100
AcDbBlockBegin
2
*MODEL_SPACE
0
ENDBLK
5
21
100
AcDbEntity
100
AcDbBlockEnd
0
BLOCK
5
1C
100
AcDbEntity
100
AcDbBlockBegin
2
*PAPER_SPACE
0
ENDBLK
5
1D
100
AcDbEntity
100
AcDbBlockEnd
0
ENDSEC
0
SECTION
2
ENTITIES
0
LWPOLYLINE
5
100
100
AcDbEntity
8
0
100
AcDbPolyline
90
4
70
1
43
0.0
10
52.302654523130919
20
-9.8508850062389826
10
-7.4999999999998757
20
-9.8508850062389985
42
0.99999999999999989
10
-7.4999999999998757
20
-10.850885006239
10
52.302654523130911
20
-10.850885006238995
42
0.99999999999999989
0
LWPOLYLINE
5
101
100
AcDbEntity
8
0
100
AcDbPolyline
90
8
70
1
43
0.0
10
-38.171608693718269
20
6.5008846758446488
10
-40.671608693718262
20
6.5008846758446239
42
0.41421356237305212
10
-40.921608693718277
20
6.2508846758446088
10
-40.921608693718255
20
5.7508846758446346
42
0.41421356237308204
10
-40.671608693718255
20
5.5008846758446239
10
-38.171608693718269
20
5.5008846758446497
42
0.41421356237310414
10
-37.921608693718262
20
5.750884675844655
10
-37.921608693718277
20
6.2508846758446515
42
0.41421356237309503
0
LWPOLYLINE
5
102
100
AcDbEntity
8
0
100
AcDbPolyline
90
95
70
1
43
0.0
10
-7.249999999999881
20
-8.6008850062389914
10
60.802654523130933
20
-8.6008850062390056
10
60.802654523130926
20
-12.100885006239006
10
-11.249999999999879
20
-12.10088500623899
42
-0.41421356237309503
10
-11.499999999999879
20
-11.850885006238991
10
-11.499999999999861
20
-3.2500001651952983
42
0.41421356237301571
10
-11.74999999999979
20
-3.0000001651952952
10
-14.0250628144667
20
-3.0000001651946278
42
-0.20978049287362366
10
-15.999999999999883
20
-6.5000001651953854
10
-21.999999999999904
20
-6.5000001651953943
10
-23.999999999999908
20
-4.5000001651953934
10
-23.999999999999908
20
-0.50000016519539281
10
-21.999999999999904
20
1.4999998348046057
10
-15.999999999999865
20
1.4999998348046126
42
-0.10126817257080395
10
-14.669872981077678
20
-1.6519538570403114e-07
10
4.4408920985006262e-15
20
0
10
8.9719898177520463e-14
20
5.1008846758482429
42
0.41421356237309503
10
-0.24999999999991029
20
5.3508846758482429
10
-35.671608693718426
20
5.3508846758465856
10
-35.671608693718156
20
-2.7185842386620185
42
-0.33718816634303683
10
-36.394450308457664
20
-3.2685842386593134
10
-38.071608693720577
20
-3.2685842386560413
42
0.41421356237322671
10
-38.1716086937206
20
-3.3685842386560476
10
-38.171608693720586
20
-3.668584238655439
42
0.41421356237295032
10
-38.071608693720016
20
-3.7685842386560413
10
-37.921608693733617
20
-3.7685842386560999
42
-0.66817863791911181
10
-37.74483199842777
20
-4.1953609339751736
10
-38.518055303117151
20
-4.9685842386647057
10
-40.325162084322713
20
-4.9685842386668968
10
-41.098385389012897
20
-4.1953609339767981
42
-0.66817863792726062
10
-40.921608693707476
20
-3.7685842386575548
10
-40.771608693721078
20
-3.7685842386218682
42
0.41421356247683783
10
-40.671608693720607
20
-3.6685842386566518
10
-40.671608693723485
20
-3.3685842386572604
42
0.41421356238130574
10
-40.771608693721049
20
-3.2685842386627102
10
-42.448767078979152
20
-3.2685842386610142
42
-0.33718816634378834
10
-43.171608693718639
20
-2.7185842386605619
10
-43.171608693719506
20
0.49115024091973825
10
-66.190618648764826
20
0.49115024092246129
42
0.41421356237309553
10
-66.440618648764826
20
0.24115024092244308
10
-66.440618648764641
20
-2.508849781411536
10
-67.940618648764655
20
-2.5088497814116453
10
-67.940618648764428
20
-5.3597346224552567
42
-0.065543462815239262
10
-68.162100777885357
20
-7.0420584156216677
10
-72.736441074414174
20
-24.113728813382096
10
-78.531996032148726
20
-22.560814542767389
10
-73.95765573561988
20
-5.4891441450069767
42
0.065543462815259537
10
-73.940618648764399
20
-5.3597346224556901
10
-73.940618648764655
20
-2.5088497814120818
10
-75.940618648764641
20
-2.5088497814122279
10
-76.940618648764712
20
-1.5088497814123003
10
-96.965397212421237
20
-1.5088497814136996
10
-96.965397212421635
20
4.4911502185863013
10
-76.940618648765124
20
4.4911502185877001
10
-75.940618648765195
20
5.491150218587773
10
-73.940618648765223
20
5.4911502185879169
10
-73.940618648765422
20
8.3420350596315593
42
0.065543462815168416
10
-73.957655735620904
20
8.4714445821827322
10
-78.531996032152207
20
25.543114979942274
10
-72.736441074417868
20
27.096029250557827
10
-68.162100777886593
20
10.024358852798279
42
-0.065543462815232795
10
-67.940618648765422
20
8.3420350596319928
10
-67.940618648765223
20
5.4911502185883521
10
-66.440618648765209
20
5.4911502185884595
10
-63.09061864815574
20
5.4911502321970111
42
0.41421353461141475
10
-62.940618648765074
20
5.6411502185886997
10
-62.940618648765522
20
11.621017447215623
42
-0.18179864792096051
10
-61.248505201697689
20
15.121017447215861
10
-54.440618648765586
20
15.121017447216227
10
-52.440618648765479
20
13.121017447216337
10
-52.440618648765266
20
9.1210174472163352
10
-54.440618648765152
20
7.1210174472162286
10
-60.940618648765152
20
7.1210174472158805
10
-60.940618648764939
20
3.7411502409308572
42
-0.41421356237308005
10
-61.190618648764918
20
3.491150240930839
10
-66.190618648765053
20
3.4911502409304744
42
0.4142135623730957
10
-66.440618648765039
20
3.2411502409304562
10
-66.44061864876501
20
2.7411502409225146
42
0.41421356237309437
10
-66.190618648764982
20
2.4911502409224608
10
-43.171608693719747
20
2.4911502409197386
10
-43.171608693718554
20
7.3508846758483584
10
1.7500000000000915
20
7.350884675848242
42
-0.41421356237309437
10
2.0000000000000906
20
7.100884675848242
10
2.0000000000000284
20
2.2204460492503131e-15
10
6.6698731245249689
20
8.3262212541290737e-08
42
-0.10126815807899156
10
8.0000000000001226
20
1.4999998348046417
10
14.000000000000083
20
1.4999998348046399
10
16.000000000000092
20
-0.50000016519535395
10
16.000000000000114
20
-4.5000001651953543
10
14.000000000000101
20
-6.5000001651953587
10
8.0000000000000728
20
-6.5000001651953561
42
-0.20978049287358275
10
6.0250628144669971
20
-3.0000001651953649
10
-7.249999999999881
20
-3.0000001651953934
42
0.41421356237305862
10
-7.4999999999998579
20
-3.2500001651953889
10
-7.499999999999881
20
-8.3508850062389932
42
0.41421356237309503
0
CIRCLE
5
103
100
AcDbEntity
8
0
100
AcDbCircle
10
11.000000000000094
20
-2.5000001651953778
30
0
40
0.5
210
-0
220
0
230
1
0
CIRCLE
5
104
100
AcDbEntity
8
0
100
AcDbCircle
10
-18.999999999999872
20
-2.5000001651953814
30
0
40
0.5
210
0
220
-0
230
1
0
CIRCLE
5
105
100
AcDbEntity
8
0
100
AcDbCircle
10
-57.44061864876538
20
11.121017447216072
30
0
40
0.5
210
-0
220
0
230
1
0
ENDSEC
0
SECTION
2
OBJECTS
0
DICTIONARY
5
C
100
AcDbDictionary
3
ACAD_GROUP
350
D
3
ACAD_MLINESTYLE
350
17
0
DICTIONARY
5
D
100
AcDbDictionary
0
DICTIONARY
5
1A
330
C
100
AcDbDictionary
0
DICTIONARY
5
17
100
AcDbDictionary
0
ENDSEC
0
EOF
