0
SECTION
2
HEADER
9
$INSUNITS
70
4
9
$ACADVER
1
AC1014
9
$HANDSEED
5
FFFF
0
ENDSEC
0
SECTION
2
TABLES
0
TABLE
2
VPORT
5
8
100
AcDbSymbolTable
0
ENDTAB
0
TABLE
2
LTYPE
5
5
100
AcDbSymbolTable
0
LTYPE
5
14
100
AcDbSymbolTableRecord
100
AcDbLinetypeTableRecord
2
BYBLOCK
70
0
0
LTYPE
5
15
100
AcDbSymbolTableRecord
100
AcDbLinetypeTableRecord
2
BYLAYER
70
0
0
ENDTAB
0
TABLE
2
LAYER
5
2
100
AcDbSymbolTable
70
2
0
LAYER
5
50
100
AcDbSymbolTableRecord
100
AcDbLayerTableRecord
2
0
70
0
6
CONTINUOUS
0
ENDTAB
0
TABLE
2
STYLE
5
3
100
AcDbSymbolTable
70
1
0
STYLE
5
11
100
AcDbSymbolTableRecord
100
AcDbTextStyleTableRecord
2
STANDARD
70
0
0
ENDTAB
0
TABLE
2
VIEW
5
6
100
AcDbSymbolTable
70
0
0
ENDTAB
0
TABLE
2
UCS
5
7
100
AcDbSymbolTable
70
0
0
ENDTAB
0
TABLE
2
APPID
5
9
100
AcDbSymbolTable
70
2
0
APPID
5
12
100
AcDbSymbolTableRecord
100
AcDbRegAppTableRecord
2
ACAD
70
0
0
ENDTAB
0
TABLE
2
DIMSTYLE
5
A
100
AcDbSymbolTable
70
1
0
ENDTAB
0
TABLE
2
BLOCK_RECORD
5
1
100
AcDbSymbolTable
70
1
0
BLOCK_RECORD
5
1F
100
AcDbSymbolTableRecord
100
AcDbBlockTableRecord
2
*MODEL_SPACE
0
BLOCK_RECORD
5
1B
100
AcDbSymbolTableRecord
100
AcDbBlockTableRecord
2
*PAPER_SPACE
0
ENDTAB
0
ENDSEC
0
SECTION
2
BLOCKS
0
BLOCK
5
20
100
AcDbEntity
100
AcDbBlockBegin
2
*MODEL_SPACE
0
ENDBLK
5
21
100
AcDbEntity
100
AcDbBlockEnd
0
BLOCK
5
1C
100
AcDbEntity
100
AcDbBlockBegin
2
*PAPER_SPACE
0
ENDBLK
5
1D
100
AcDbEntity
100
AcDbBlockEnd
0
ENDSEC
0
SECTION
2
ENTITIES
0
CIRCLE
5
100
100
AcDbEntity
8
0
100
AcDbCircle
10
18.799999999984397
20
-2.599999999980005
30
5.1751632685715177e-27
40
0.50000000000135092
210
-8.199015759803754e-29
220
5.2175735889999365e-29
230
1
0
CIRCLE
5
101
100
AcDbEntity
8
0
100
AcDbCircle
10
-11.199999999990688
20
-2.5999999999799912
30
-4.6484175609744677e-26
40
0.50000000000135114
210
-8.1990157598055196e-29
220
5.2175735890005273e-29
230
1
0
CIRCLE
5
102
100
AcDbEntity
8
0
100
AcDbCircle
10
57.801733189081965
20
-1.0219911494613338
30
-2.6902429990701199e-28
40
0.50000000000000078
210
-3.1040670645968743e-30
220
-1.0933136552122331e-29
230
1
0
LWPOLYLINE
5
103
100
AcDbEntity
8
0
100
AcDbPolyline
90
4
70
1
43
0.0
10
-57.745309408247614
20
-10.931769802815417
10
7.2999999999939558
20
-10.93176980281137
42
0.99999999999999989
10
7.299999999993938
20
-10.231769802812661
10
-57.745309408247635
20
-10.231769802820804
42
0.99999999999999989
0
LINE
5
104
100
AcDbEntity
8
0
100
AcDbLine
10
-66.09530940818442
20
-12.331769802804736
30
2.6682896417028251e-26
11
11.04999999999082
21
-12.331769802808747
31
1.1811954234302637e-26
0
ARC
5
105
100
AcDbEntity
8
0
100
AcDbCircle
10
11.049999999990824
20
-12.081769802809204
30
1.4003238804772645e-26
40
0.24999999999954392
210
-8.1990157567106376e-29
220
-8.7651382818960161e-27
230
1
100
AcDbArc
50
269.9999999999992
51
360
0
LINE
5
106
100
AcDbEntity
8
0
100
AcDbLine
10
11.299999999990488
20
-12.081769802809406
30
1.3912033283437269e-26
11
11.299999999990543
21
-3.3499999999792243
31
1.3959249680698292e-26
0
ARC
5
107
100
AcDbEntity
8
0
100
AcDbCircle
10
11.549999999990352
20
-3.3499999999792229
30
2.6237383153230252e-26
40
0.24999999999977984
210
-8.199015760798927e-29
220
-1.8233163308344877e-28
230
1
100
AcDbArc
50
90.000000000039478
51
180
0
LINE
5
108
100
AcDbEntity
8
0
100
AcDbLine
10
11.549999999990179
20
-3.0999999999794432
30
2.6282966061501062e-26
11
13.825062814455302
21
-3.0999999999787993
31
2.7876417028508669e-26
0
ARC
5
109
100
AcDbEntity
8
0
100
AcDbCircle
10
18.799999999984397
20
-2.599999999980005
30
5.1751632685715177e-27
40
4.9999999999958957
210
4.5160363933620492e-27
220
4.6851275079630854e-28
230
1
100
AcDbArc
50
185.73917047725763
51
233.13010235416655
0
LINE
5
110
100
AcDbEntity
8
0
100
AcDbLine
10
15.799999999987779
20
-6.5999999999770367
30
4.8612692812427515e-27
11
21.799999999981942
21
-6.5999999999763475
31
4.361112438918615e-27
0
LINE
5
111
100
AcDbEntity
8
0
100
AcDbLine
10
21.799999999981942
20
-6.5999999999763475
30
4.361112438918615e-27
11
23.799999999980205
21
-4.5999999999781673
31
3.9961315344171863e-27
0
LINE
5
112
100
AcDbEntity
8
0
100
AcDbLine
10
23.799999999980205
20
-4.5999999999781673
30
3.9961315344171863e-27
11
23.799999999980187
21
-0.59999999998186171
31
2.3910555281725357e-26
0
LINE
5
113
100
AcDbEntity
8
0
100
AcDbLine
10
23.799999999980187
20
-0.59999999998186171
30
2.3910555281725357e-26
11
21.799999999981878
21
1.4000000000162849
31
2.6014604677243026e-26
0
LINE
5
114
100
AcDbEntity
8
0
100
AcDbLine
10
21.799999999981878
20
1.4000000000162849
30
2.6014604677243026e-26
11
15.799999999986827
21
1.4000000000163104
31
5.9892140982241629e-27
0
ARC
5
115
100
AcDbEntity
8
0
100
AcDbCircle
10
18.799999999984397
20
-2.599999999980005
30
5.1751632685715177e-27
40
4.9999999999955955
210
7.0256751923123936e-29
220
-1.5082014347099998e-28
230
1
100
AcDbArc
50
126.8698976458471
51
150.00000108173373
0
LINE
5
116
100
AcDbEntity
8
0
100
AcDbLine
10
14.469872933866446
20
-0.10000008173418451
30
5.6871734640475391e-27
11
7.1054273576010019e-14
21
-0.099999918792216258
31
3.1119387404902838e-26
0
LINE
5
117
100
AcDbEntity
8
0
100
AcDbLine
10
7.1054273576010019e-14
20
-0.099999918792216258
30
3.1119387404902838e-26
11
-1.3322676295501878e-14
21
4.9317698028593746
31
-1.7672715380990027e-26
0
ARC
5
118
100
AcDbEntity
8
0
100
AcDbCircle
10
0.24999999999976819
20
4.9317698028593764
30
-3.7706324586310722e-26
40
0.24999999999983813
210
-8.1990157602216469e-29
220
-1.8233163308575446e-28
230
1
100
AcDbArc
50
90.000000000006068
51
180
0
LINE
5
119
100
AcDbEntity
8
0
100
AcDbLine
10
0.24999999999974176
20
5.1817698028592138
30
-3.7660741678039315e-26
11
39.940687399001298
21
5.1817698029041601
31
-4.2229469602785124e-26
0
ARC
5
120
100
AcDbEntity
8
0
100
AcDbCircle
10
39.940687399001263
20
4.9817698029492323
30
4.4851167580096797e-27
40
0.19999999995491974
210
2.6413142641015981e-28
220
3.8153184930487238e-28
230
1
100
AcDbArc
50
48.590377865433247
51
89.999999999989811
0
LINE
5
121
100
AcDbEntity
8
0
100
AcDbLine
10
40.135815160437261
20
4.9378931952191714
30
4.2263739951074234e-27
11
39.873430445199233
21
3.771017612501959
31
4.4316216036733679e-27
0
LINE
5
122
100
AcDbEntity
8
0
100
AcDbLine
10
39.873430445199233
20
3.771017612501959
30
4.4316216036733679e-27
11
37.97224303191414
21
3.7710176125019323
31
-5.3772985909206269e-27
0
ARC
5
123
100
AcDbEntity
8
0
100
AcDbCircle
10
37.972243031914125
20
3.5710176124830539
30
7.0060611740952291e-27
40
0.20000000001887841
210
-8.1990157593343459e-29
220
6.1916798819234833e-26
230
1
100
AcDbArc
50
89.999999999995936
51
180
0
LINE
5
124
100
AcDbEntity
8
0
100
AcDbLine
10
37.772243031895236
20
3.5710176124830362
30
7.1295126890840654e-27
11
37.772243031895307
21
3.0710176125026134
31
7.0383468727096994e-27
0
ARC
5
125
100
AcDbEntity
8
0
100
AcDbCircle
10
37.972243031896056
20
3.0710176125026312
30
2.6234920333071784e-27
40
0.20000000000075069
210
2.2074274196929728e-26
220
3.0461122553750521e-28
230
1
100
AcDbArc
50
180
51
270
0
LINE
5
126
100
AcDbEntity
8
0
100
AcDbLine
10
37.972243031896056
20
2.8710176125019093
30
2.6375128046167388e-27
11
39.671055618596007
21
2.8710176125017295
31
-5.3421542186950164e-29
0
LINE
5
127
100
AcDbEntity
8
0
100
AcDbLine
10
39.671055618596007
20
2.8710176125017295
30
1.9660623751788423e-27
11
39.626083434906491
21
2.6710176125027463
31
2.2035151811650571e-27
0
LINE
5
128
100
AcDbEntity
8
0
100
AcDbLine
10
39.005298161800177
20
-0.089734577942210403
30
-8.2588288682805798e-27
11
38.946665184813767
21
-0.35048676842666993
31
-8.3102520402398067e-27
0
LINE
5
129
100
AcDbEntity
8
0
100
AcDbLine
10
37.039337181802168
20
-8.8327433397108273
30
2.6968953928539193e-27
11
37.039337181804527
21
-10.482743339709689
31
2.3708046492975565e-27
0
LINE
5
130
100
AcDbEntity
8
0
100
AcDbLine
10
38.039337181804726
20
-11.482743339709895
30
-3.7299298418850269e-27
11
65.551733189109143
21
-11.482743339713258
31
-2.1425102322735868e-27
0
ARC
5
131
100
AcDbEntity
8
0
100
AcDbCircle
10
65.551733189108688
20
-11.732743339713256
30
2.1004401132517463e-28
40
0.25000000000000355
210
-1.383114919389166e-29
220
-1.0933136552162788e-29
230
1
100
AcDbArc
50
0
51
89.999999999895778
0
LINE
5
132
100
AcDbEntity
8
0
100
AcDbLine
10
65.801733189108688
20
-11.732743339712645
30
2.1350179862365427e-28
11
65.801733189114941
21
-14.282743339689642
31
4.8692994173315623e-28
0
LINE
5
133
100
AcDbEntity
8
0
100
AcDbLine
10
65.801733189114941
20
-14.282743339689642
30
4.8692994173315623e-28
11
72.301733189114955
21
-14.28274333967372
31
8.8525597349216719e-30
0
LINE
5
134
100
AcDbEntity
8
0
100
AcDbLine
10
72.301733189114955
20
-14.28274333967372
30
8.8525597349216719e-30
11
72.301733189122359
21
-17.264513142338064
31
1.2651884036026491e-28
0
ARC
5
135
100
AcDbEntity
8
0
100
AcDbCircle
10
72.201733189122095
20
-17.26451314233864
30
4.406800875261803e-28
40
0.099999999999997286
210
4.3408528495827708e-29
220
-4.436178490550983e-29
230
1
100
AcDbArc
50
-44.99999999987044
51
0
0
LINE
5
136
100
AcDbEntity
8
0
100
AcDbLine
10
72.272443867240909
20
-17.335223820457134
30
4.3447378914688518e-28
11
72.233338038641776
21
-17.374329649056172
31
3.6625281180481199e-28
0
ARC
5
137
100
AcDbEntity
8
0
100
AcDbCircle
10
69.92131383179256
20
-21.807674217995434
30
4.3106586011964292e-29
40
4.9999999999999956
210
-3.5992561421649164e-29
220
-5.4119536342940863e-29
230
1
100
AcDbArc
50
62.457603281121024
51
207.54239671916295
0
LINE
5
138
100
AcDbEntity
8
0
100
AcDbLine
10
65.487969262864752
20
-24.11969842486663
30
2.1330785984937412e-28
11
64.394590098186328
21
-25.213077589550608
31
2.039012845882212e-28
0
ARC
5
139
100
AcDbEntity
8
0
100
AcDbCircle
10
62.082565902053034
20
-29.646422164078299
30
-8.8044565461703524e-30
40
4.9999999999999929
210
-4.1164746289389705e-30
220
-4.5831842928916177e-29
230
1
100
AcDbArc
50
-297.54239658038824
51
27.542397172169739
0
LINE
5
140
100
AcDbEntity
8
0
100
AcDbLine
10
66.515910452700922
20
-27.334397922155041
30
-3.4520773448101732e-29
11
67.609289600607212
21
-26.241018774243202
31
-1.1793409761850136e-27
0
ARC
5
141
100
AcDbEntity
8
0
100
AcDbCircle
10
69.92131383179256
20
-21.807674217995434
30
4.3106586011964292e-29
40
4.9999999999999982
210
-1.1975352766338378e-28
220
-2.1328694227854251e-28
230
1
100
AcDbArc
50
-117.54239703339502
51
27.542397033676327
0
LINE
5
142
100
AcDbEntity
8
0
100
AcDbLine
10
74.35465838802898
20
-19.495649986788312
30
-1.2709489103512426e-28
11
74.393764210805685
21
-19.456544164011685
31
-5.542661073896059e-29
0
ARC
5
143
100
AcDbEntity
8
0
100
AcDbCircle
10
72.201733189122095
20
-17.26451314233864
30
4.406800875261803e-28
40
3.1000000000000321
210
1.1227840576361618e-28
220
-1.1404443974306286e-28
230
1
100
AcDbArc
50
-44.99999999986219
51
0
0
LINE
5
144
100
AcDbEntity
8
0
100
AcDbLine
10
75.301733189122132
20
-17.264513142330713
30
4.2044777761280364e-28
11
75.301733189114955
21
-14.282743339666371
31
3.0278149698761906e-28
0
LINE
5
145
100
AcDbEntity
8
0
100
AcDbLine
10
75.301733189114955
20
-14.282743339666371
30
3.0278149698761906e-28
11
76.198179798519462
21
-13.386296730257449
31
-2.182605253616685e-30
0
LINE
5
146
100
AcDbEntity
8
0
100
AcDbLine
10
76.198179798519462
20
-13.386296730257449
30
-2.182605253616685e-30
11
76.589308083888895
21
-13.282743339663215
31
-1.9019435470434267e-30
0
LINE
5
147
100
AcDbEntity
8
0
100
AcDbLine
10
76.589308083888895
20
-13.282743339663215
30
-1.9019435470434267e-30
11
76.717987740329676
21
-13.2827433396629
31
-1.3577184436391194e-29
0
LINE
5
148
100
AcDbEntity
8
0
100
AcDbLine
10
76.717987740329676
20
-13.2827433396629
30
-1.3577184436391194e-29
11
76.894764435626001
21
-13.105966644365708
31
3.273694309865026e-29
0
LINE
5
149
100
AcDbEntity
8
0
100
AcDbLine
10
76.894764435626001
20
-13.105966644365708
30
3.273694309865026e-29
11
77.793853805324161
21
-14.005056014058983
31
7.7831612564414931e-28
0
ARC
5
150
100
AcDbEntity
8
0
100
AcDbCircle
10
77.440300414717512
20
-14.35860940464857
30
5.1213847145850016e-28
40
0.50000000000002554
210
-6.4490776566898224e-28
220
5.2176508839435944e-29
230
1
100
AcDbArc
50
-7.8676990277914876e-05
51
44.999999998617497
0
LINE
5
151
100
AcDbEntity
8
0
100
AcDbLine
10
77.940300414717072
20
-14.358610091234034
30
8.3459239011633633e-28
11
77.940300414727488
21
-18.52053391087809
31
2.7249490221761297e-27
0
LINE
5
152
100
AcDbEntity
8
0
100
AcDbLine
10
77.940300414727488
20
-18.52053391087809
30
2.7249490221761297e-27
11
78.586747024154732
21
-20.020533910871645
31
9.1567451696512236e-29
0
LINE
5
153
100
AcDbEntity
8
0
100
AcDbLine
10
78.586747024154732
20
-20.020533910871645
30
9.1567451696512236e-29
11
78.586747024156097
21
-20.075837904519194
31
3.6457881345671027e-27
0
ARC
5
154
100
AcDbEntity
8
0
100
AcDbCircle
10
80.086747039311263
20
-24.84553390683784
30
-8.4316655598030372e-28
40
4.9999999999999956
210
1.9092550275560946e-28
220
-8.8109733439563697e-28
230
1
100
AcDbArc
50
107.45760330577293
51
252.54239669453369
0
LINE
5
155
100
AcDbEntity
8
0
100
AcDbLine
10
78.586747024181619
20
-29.615229909164526
30
-1.2510238146797886e-27
11
78.586747024185939
21
-31.161501553548021
31
8.8928644111159375e-28
0
ARC
5
156
100
AcDbEntity
8
0
100
AcDbCircle
10
80.086747050870031
20
-35.931197552240981
30
2.9636545212178257e-27
40
4.9999999999999929
210
-1.2841465447352854e-28
220
3.9452118027751984e-28
230
1
100
AcDbArc
50
-252.5423965557363
51
72.542397196819323
0
LINE
5
157
100
AcDbEntity
8
0
100
AcDbLine
10
81.586747024185954
20
-31.16150153676449
30
3.3715118055434276e-27
11
81.586747024181648
21
-29.615229918680619
31
-2.8077664528320599e-27
0
ARC
5
158
100
AcDbEntity
8
0
100
AcDbCircle
10
80.086747039311263
20
-24.84553390683784
30
-8.4316655598030372e-28
40
5.0000000000000053
210
1.1392836501862587e-28
220
-3.7606324314880364e-28
230
1
100
AcDbArc
50
-72.54239705802182
51
72.542397058328575
0
LINE
5
159
100
AcDbEntity
8
0
100
AcDbLine
10
81.586747024156111
20
-20.075837894987032
30
-4.353093586663345e-28
11
81.586747024154732
21
-20.02053391086422
31
2.0263270718095698e-27
0
LINE
5
160
100
AcDbEntity
8
0
100
AcDbLine
10
81.586747024154732
20
-20.02053391086422
30
2.0263270718095698e-27
11
79.940300414727474
21
-18.520533910873009
31
6.0342726862851122e-27
0
LINE
5
161
100
AcDbEntity
8
0
100
AcDbLine
10
79.940300414727474
20
-18.520533910873009
30
6.0342726862851122e-27
11
79.94030041471747
21
-14.358609404642388
31
-1.9145296798456208e-27
0
ARC
5
162
100
AcDbEntity
8
0
100
AcDbCircle
10
77.440300414717512
20
-14.35860940464857
30
5.1213847145850016e-28
40
2.4999999999999467
210
9.7066726052155692e-28
220
4.533713186667837e-29
230
1
100
AcDbArc
50
0
51
44.999999999841208
0
LINE
5
163
100
AcDbEntity
8
0
100
AcDbLine
10
79.208067367688756
20
-12.590842451687125
30
4.8618598548504614e-28
11
78.308977997995598
21
-11.691753081989178
31
-1.8055605712494426e-27
0
LINE
5
164
100
AcDbEntity
8
0
100
AcDbLine
10
78.308977997995598
20
-11.691753081989178
30
-1.8055605712494426e-27
11
78.485754693291284
21
-11.514976386692631
31
-3.1641061286466456e-29
0
LINE
5
165
100
AcDbEntity
8
0
100
AcDbLine
10
78.485754693291284
20
-11.514976386692631
30
-3.1641061286466456e-29
11
78.485754693285259
21
-9.0505102926243488
31
-2.5014759415093452e-28
0
LINE
5
166
100
AcDbEntity
8
0
100
AcDbLine
10
78.485754693285259
20
-9.0505102926243488
30
-2.5014759415093452e-28
11
78.308977997989103
21
-8.8737335973290765
31
2.3868469492200098e-28
0
LINE
5
167
100
AcDbEntity
8
0
100
AcDbLine
10
78.308977997989103
20
-8.8737335973290765
30
2.3868469492200098e-28
11
79.208067367817165
21
-7.9746442274963325
31
5.5812340992711641e-28
0
ARC
5
168
100
AcDbEntity
8
0
100
AcDbCircle
10
77.440300414858271
20
-6.2068772745403455
30
-7.3822319624590788e-28
40
2.4999999999873745
210
-4.8254359712775995e-28
220
2.5078078367024262e-28
230
1
100
AcDbArc
50
-44.999999999952877
51
0
0
LINE
5
169
100
AcDbEntity
8
0
100
AcDbLine
10
79.9403004148582
20
-6.2068772745342571
30
8.7407648718067142e-28
11
79.940300414847911
21
-2.0449527683193764
31
-7.0747258790881983e-27
0
LINE
5
170
100
AcDbEntity
8
0
100
AcDbLine
10
79.940300414847911
20
-2.0449527683193764
30
-7.0747258790881983e-27
11
81.586747024237539
21
-0.54495276831136752
31
-9.4312798683317589e-28
0
LINE
5
171
100
AcDbEntity
8
0
100
AcDbLine
10
81.586747024237539
20
-0.54495276831136752
30
-9.4312798683317589e-28
11
81.586747024235876
21
-0.4896487753935197
31
-4.583808413683107e-28
0
ARC
5
172
100
AcDbEntity
8
0
100
AcDbCircle
10
80.086747024224138
20
4.2800472316875124
30
-8.3939340432307102e-30
40
4.999999999999992
210
1.5399430207674648e-28
220
-4.5913922791523043e-29
230
1
100
AcDbArc
50
-72.542396876136891
51
72.542396876414841
0
LINE
5
173
100
AcDbEntity
8
0
100
AcDbLine
10
81.586747024212741
20
9.0497432387758323
30
3.9946329396125445e-28
11
81.586747024211377
21
10.596014869979001
31
2.8029917993840695e-27
0
ARC
5
174
100
AcDbEntity
8
0
100
AcDbCircle
10
80.086747024198743
20
15.365710877059751
30
2.2375283065740679e-28
40
4.9999999999999947
210
-1.6897203228143713e-28
220
4.8761617445843164e-28
230
1
100
AcDbArc
50
-72.542396876126148
51
252.5423968763983
0
LINE
5
175
100
AcDbEntity
8
0
100
AcDbLine
10
78.586747024208762
20
10.596014869971864
30
-1.8410439734896721e-28
11
78.586747024212727
21
9.0497432387686594
31
-2.5876329027656102e-27
0
ARC
5
176
100
AcDbEntity
8
0
100
AcDbCircle
10
80.086747024224138
20
4.2800472316875124
30
-8.3939340432307102e-30
40
5.000000000000008
210
-1.7924212623272117e-28
220
4.8438637932925713e-28
230
1
100
AcDbArc
50
107.45760312385916
51
252.54239687641893
0
LINE
5
177
100
AcDbEntity
8
0
100
AcDbLine
10
78.586747024235876
20
-0.48964877540091101
30
-4.16251162047068e-28
11
78.586747024237539
21
-0.54495276831828865
31
1.1610802277897664e-27
0
LINE
5
178
100
AcDbEntity
8
0
100
AcDbLine
10
78.586747024237539
20
-0.54495276831828865
30
1.1610802277897664e-27
11
77.940300414847897
21
-2.0449527683241389
31
-4.3255977910970156e-27
0
LINE
5
179
100
AcDbEntity
8
0
100
AcDbLine
10
77.940300414847897
20
-2.0449527683241389
30
-4.3255977910970156e-27
11
77.940300414857774
21
-6.206876587952399
31
3.6232105931982588e-27
0
ARC
5
180
100
AcDbEntity
8
0
100
AcDbCircle
10
77.440300414858271
20
-6.2068772745403455
30
-7.3822319624590788e-28
40
0.49999999999996686
210
2.8884444254480282e-28
220
2.0107412906366858e-28
230
1
100
AcDbArc
50
-45.000000000342638
51
7.8676990259385929e-05
0
LINE
5
181
100
AcDbEntity
8
0
100
AcDbLine
10
77.793853805449402
20
-6.5604306651357049
30
-7.692546881695622e-28
11
76.894764435612529
21
-7.4595200349594943
31
4.7266300416350751e-29
0
LINE
5
182
100
AcDbEntity
8
0
100
AcDbLine
10
76.894764435612529
20
-7.4595200349594943
30
4.7266300416350751e-29
11
76.717987740315067
21
-7.2827433396629004
31
6.2782046367434192e-29
0
LINE
5
183
100
AcDbEntity
8
0
100
AcDbLine
10
76.717987740315067
20
-7.2827433396629004
30
6.2782046367434192e-29
11
76.589308083874243
21
-7.2827433396634067
31
-6.1974030933943714e-28
0
LINE
5
184
100
AcDbEntity
8
0
100
AcDbLine
10
76.589308083874243
20
-7.2827433396634067
30
-6.1974030933943714e-28
11
76.198179798504228
21
-7.179189949070893
31
3.3790811914903025e-30
0
LINE
5
185
100
AcDbEntity
8
0
100
AcDbLine
10
76.198179798504228
20
-7.179189949070893
30
3.3790811914903025e-30
11
75.30173318909533
21
-6.2827433396663697
31
2.073785784206896e-28
0
LINE
5
186
100
AcDbEntity
8
0
100
AcDbLine
10
75.30173318909533
20
-6.2827433396663697
30
2.073785784206896e-28
11
75.30173318908821
21
-3.3009735370012483
31
-8.8058661561948493e-28
0
ARC
5
187
100
AcDbEntity
8
0
100
AcDbCircle
10
72.201733189087975
20
-3.3009735370082867
30
-8.6035430569844207e-28
40
3.1000000000002359
210
6.5265515874415864e-30
220
-3.9210396164988602e-30
230
1
100
AcDbArc
50
0
51
45.000000000142499
0
LINE
5
188
100
AcDbEntity
8
0
100
AcDbLine
10
74.39376421076085
20
-1.1089425153245078
30
-9.3908111432399434e-28
11
74.354658382343814
21
-1.0698366869081779
31
-4.8915945393597823e-28
0
ARC
5
189
100
AcDbEntity
8
0
100
AcDbCircle
10
69.921313819750353
20
1.2421875321092175
30
-8.7980149876363235e-28
40
5.0000000000000071
210
-6.5533713985495739e-29
220
4.3299075087564166e-29
230
1
100
AcDbArc
50
-27.542396876138419
51
117.54239687641858
0
LINE
5
190
100
AcDbEntity
8
0
100
AcDbLine
10
67.609289600711278
20
5.6755320946913725
30
-7.0537513187711171e-28
11
66.515910444363854
21
6.7689112510336003
31
1.8053117882590705e-28
0
ARC
5
191
100
AcDbEntity
8
0
100
AcDbCircle
10
62.082565881770471
20
9.0809354700511236
30
-1.8509415488602583e-27
40
4.9999999999999876
210
-3.5495236738496487e-28
220
1.9802845315995093e-28
230
1
100
AcDbArc
50
-27.542396876140096
51
297.54239687641774
0
LINE
5
192
100
AcDbEntity
8
0
100
AcDbLine
10
64.394590100809481
20
4.6475909074689321
30
-2.0253679157474876e-27
11
65.487969257156948
21
3.5542117511267119
31
-8.9179030908428908e-28
0
ARC
5
193
100
AcDbEntity
8
0
100
AcDbCircle
10
69.921313819750353
20
1.2421875321092175
30
-8.7980149876363235e-28
40
4.9999999999999902
210
-6.7837009081187803e-30
220
-7.8224410738643327e-30
230
1
100
AcDbArc
50
152.45760312386028
51
297.54239687641694
0
LINE
5
194
100
AcDbEntity
8
0
100
AcDbLine
10
72.233338038789299
20
-3.1911570304730068
30
-1.0542278656506855e-27
11
72.272443867206476
21
-3.2302628588894504
31
1.2058164968482342e-28
0
ARC
5
195
100
AcDbEntity
8
0
100
AcDbCircle
10
72.201733189087975
20
-3.3009735370082867
30
-8.6035430569844207e-28
40
0.099999999999997868
210
-1.3831149194267659e-29
220
-1.0933136552009812e-29
230
1
100
AcDbArc
50
0
51
45.000000000135486
0
LINE
5
196
100
AcDbEntity
8
0
100
AcDbLine
10
72.301733189087969
20
-3.300973537008038
30
-8.5897119077901255e-28
11
72.30173318909533
21
-6.2827433396737202
31
-6.7819603774776305e-28
0
LINE
5
197
100
AcDbEntity
8
0
100
AcDbLine
10
72.30173318909533
20
-6.2827433396737202
30
-6.7819603774776305e-28
11
65.801733189095316
21
-6.2827433396896453
31
-7.0498963509101909e-28
0
LINE
5
198
100
AcDbEntity
8
0
100
AcDbLine
10
65.801733189095316
20
-6.2827433396896453
30
-7.0498963509101909e-28
11
65.451733188487054
21
-6.2827433382718789
31
-4.5095144310157212e-28
0
ARC
5
199
100
AcDbEntity
8
0
100
AcDbCircle
10
65.451733189096018
20
-6.1327433382718786
30
-6.8892366213181291e-28
40
0.1499999999999968
210
-1.3661059132010823e-30
220
-1.0933136552129588e-29
230
1
100
AcDbArc
50
180
51
269.99999976739304
0
LINE
5
200
100
AcDbEntity
8
0
100
AcDbLine
10
65.301733189096012
20
-6.1327433382722463
30
-6.8912857801879704e-28
11
65.301733189090868
21
-4.021991149445963
31
-7.7215818687632696e-28
0
LINE
5
201
100
AcDbEntity
8
0
100
AcDbLine
10
62.273869144072755
20
2.9780088505467726
30
-3.1571042033003532e-28
11
54.801733189071911
21
2.9780088505311308
31
-9.695864083204954e-28
0
LINE
5
202
100
AcDbEntity
8
0
100
AcDbLine
10
54.801733189071911
20
2.9780088505311308
30
-9.695864083204954e-28
11
52.801733189076934
21
0.97800885052610509
31
6.5757194447666713e-28
0
LINE
5
203
100
AcDbEntity
8
0
100
AcDbLine
10
52.801733189076934
20
0.97800885052610509
30
6.5757194447666713e-28
11
52.801733189086988
21
-3.0219911494738949
31
-3.2419007755313385e-28
0
LINE
5
204
100
AcDbEntity
8
0
100
AcDbLine
10
52.801733189086988
20
-3.0219911494738949
30
-3.2419007755313385e-28
11
54.801733189092012
21
-5.0219911494688692
31
-9.1362653501431431e-28
0
LINE
5
205
100
AcDbEntity
8
0
100
AcDbLine
10
54.801733189092012
20
-5.0219911494688692
30
-9.1362653501431431e-28
11
61.301733189092012
21
-5.0219911494525382
31
-1.0130506825028696e-27
0
LINE
5
206
100
AcDbEntity
8
0
100
AcDbLine
10
61.301733189092012
20
-5.0219911494525382
30
-1.0130506825028696e-27
11
61.30173318909992
21
-8.2327433397006651
31
-6.3052728613126355e-28
0
ARC
5
207
100
AcDbEntity
8
0
100
AcDbCircle
10
61.55173318909992
20
-8.2327433397000451
30
-4.6929731778855716e-28
40
0.25000000000000355
210
-6.4491987337078926e-28
220
-1.0933136552990281e-29
230
1
100
AcDbArc
50
180
51
270.00000000014006
0
LINE
5
208
100
AcDbEntity
8
0
100
AcDbLine
10
61.551733189100531
20
-8.4827433397000487
30
-4.8332578985216923e-28
11
65.551733189100716
21
-8.4827433396902574
31
-5.8577337412033979e-28
0
ARC
5
209
100
AcDbEntity
8
0
100
AcDbCircle
10
65.551733189101327
20
-8.7327433396902556
30
-2.5270304788670273e-28
40
0.25000000000000355
210
-1.3831149193930397e-29
220
-1.0933136552157119e-29
230
1
100
AcDbArc
50
0
51
90.000000000140048
0
LINE
5
210
100
AcDbEntity
8
0
100
AcDbLine
10
65.801733189101327
20
-8.7327433396896446
30
-2.492452605882134e-28
11
65.801733189101583
21
-8.832743350650361
31
-8.4462789958112932e-29
0
LINE
5
211
100
AcDbEntity
8
0
100
AcDbLine
10
65.551733189101142
20
-9.0827433506509756
30
-2.9127566657394721e-28
11
39.693014778506665
21
-9.0827433506343827
31
-8.12205729838635e-28
0
ARC
5
212
100
AcDbEntity
8
0
100
AcDbCircle
10
39.693014778506672
20
-8.8827433506563391
30
-4.1078878670663933e-27
40
0.19999999997804022
210
5.6625849346485664e-28
220
-1.5669892361216527e-28
230
1
100
AcDbArc
50
167.32720153926905
51
269.99999999999795
0
LINE
5
213
100
AcDbEntity
8
0
100
AcDbLine
10
39.895188285794838
20
-7.0719911492926668
30
-4.0769755036844192e-27
11
41.79637570489632
21
-7.0719911492893583
31
-5.0552504218741621e-27
0
ARC
5
214
100
AcDbEntity
8
0
100
AcDbCircle
10
41.796375704896285
20
-6.8719911492350505
30
-1.2827388476531747e-27
40
0.20000000005430785
210
-8.1990157595410385e-29
220
-1.8862557865983026e-26
230
1
100
AcDbArc
50
270.00000000001017
51
360
0
LINE
5
215
100
AcDbEntity
8
0
100
AcDbLine
10
41.996375704950609
20
-6.8719911492350594
30
-1.4061903626186834e-27
11
41.996375704950601
21
-6.3719910972555738
31
-1.1888063456306538e-27
0
ARC
5
216
100
AcDbEntity
8
0
100
AcDbCircle
10
41.796375756984361
20
-6.3719910972555738
30
3.0998307824947527e-27
40
0.19999994796624065
210
2.144319121947629e-26
220
3.0461122553640471e-28
230
1
100
AcDbArc
50
0
51
89.999999999989811
0
LINE
5
217
100
AcDbEntity
8
0
100
AcDbLine
10
41.796375756984396
20
-6.1719911492893686
30
3.0858095550954569e-27
11
40.09756311239628
21
-6.1719911492895374
31
-2.3011918049002774e-27
0
LINE
5
218
100
AcDbEntity
8
0
100
AcDbLine
10
42.639337181801451
20
5.1317698028570193
30
-5.3763529383967262e-28
11
42.639337181801451
21
6.5817698028591467
31
-4.4995926860801583e-28
0
ARC
5
219
100
AcDbEntity
8
0
100
AcDbCircle
10
41.639337181801409
20
6.5817698028591725
30
3.4489596721158816e-27
40
1.0000000000000409
210
3.8989189407237396e-27
220
5.217573586569826e-29
230
1
100
AcDbArc
50
0
51
90.000000000004079
0
LINE
5
220
100
AcDbEntity
8
0
100
AcDbLine
10
41.639337181801338
20
7.5817698028591565
30
3.6312913052071852e-27
11
-2.1499999999982489
21
7.5817698028581679
31
-3.2182387174260347e-26
0
ARC
5
221
100
AcDbEntity
8
0
100
AcDbCircle
10
-2.1499999999982609
20
7.3317698028582754
30
-1.8217800405807063e-26
40
0.24999999999989253
210
-8.1990157592042841e-29
220
5.585834707383716e-26
230
1
100
AcDbArc
50
89.999999999997257
51
180
0
LINE
5
222
100
AcDbEntity
8
0
100
AcDbLine
10
-2.3999999999981001
20
7.3317698028583163
30
-1.8126594884473229e-26
11
-2.3999999999979771
21
-0.099999918792219589
31
-1.8896034307913274e-26
0
LINE
5
223
100
AcDbEntity
8
0
100
AcDbLine
10
-2.3999999999979771
20
-0.099999918792219589
30
-1.8896034307913274e-26
11
-6.8698730739611369
21
-0.099999839093801168
31
-1.7739775751361917e-26
0
ARC
5
224
100
AcDbEntity
8
0
100
AcDbCircle
10
-11.199999999990688
20
-2.5999999999799912
30
-4.6484175609744677e-26
40
4.999999999995711
210
-4.9178781765465118e-27
220
-2.9797450671143043e-27
230
1
100
AcDbArc
50
30.000002128857336
51
53.130102354167143
0
LINE
5
225
100
AcDbEntity
8
0
100
AcDbLine
10
-8.1999999999941249
20
1.4000000000170501
30
-4.6053938122785268e-26
11
-14.199999999988208
21
1.4000000000163366
31
-1.3358382102239243e-26
0
LINE
5
226
100
AcDbEntity
8
0
100
AcDbLine
10
-14.199999999988208
20
1.4000000000163366
30
-1.3358382102239243e-26
11
-16.199999999986531
21
-0.59999999998182674
31
-1.2993401197737705e-26
0
LINE
5
227
100
AcDbEntity
8
0
100
AcDbLine
10
-16.199999999986531
20
-0.59999999998182674
30
-1.2993401197737705e-26
11
-16.199999999986513
21
-4.5999999999781238
31
-3.2907824945045798e-26
0
LINE
5
228
100
AcDbEntity
8
0
100
AcDbLine
10
-16.199999999986513
20
-4.5999999999781238
30
-3.2907824945045798e-26
11
-14.199999999988147
21
-6.599999999976303
31
-2.7001316627110663e-27
0
LINE
5
229
100
AcDbEntity
8
0
100
AcDbLine
10
-14.199999999988147
20
-6.599999999976303
30
-2.7001316627110663e-27
11
-8.1999999999931319
21
-6.5999999999763137
31
-1.498648376154476e-26
0
ARC
5
230
100
AcDbEntity
8
0
100
AcDbCircle
10
-11.199999999990688
20
-2.5999999999799912
30
-4.6484175609744677e-26
40
4.999999999995592
210
-3.807152369424165e-27
220
5.0190586849887937e-27
230
1
100
AcDbArc
50
306.86989764584695
51
354.26082952270957
0
LINE
5
231
100
AcDbEntity
8
0
100
AcDbLine
10
-6.2250628144621896
20
-3.0999999999816024
30
-4.6591980789808165e-26
11
7.0499999999941743
21
-3.0999999999795635
31
-5.5252828400999847e-26
0
ARC
5
232
100
AcDbEntity
8
0
100
AcDbCircle
10
7.0499999999941432
20
-3.3499999999793206
30
2.3335243723159883e-26
40
0.24999999999977818
210
3.6482208533040883e-28
220
5.2175735894635757e-29
230
1
100
AcDbArc
50
0
51
89.99999999999288
0
LINE
5
233
100
AcDbEntity
8
0
100
AcDbLine
10
7.2999999999939211
20
-3.3499999999792056
30
2.3244038201827354e-26
11
7.2999999999939513
21
-8.581769802815657
31
2.4087418010002016e-26
0
ARC
5
234
100
AcDbEntity
8
0
100
AcDbCircle
10
7.0499999999941343
20
-8.5817698028156393
30
9.7898006201044199e-27
40
0.24999999999966382
210
-8.1990157628299735e-29
220
-1.8233163307930176e-28
230
1
100
AcDbArc
50
270.00000000005576
51
360
0
LINE
5
235
100
AcDbEntity
8
0
100
AcDbLine
10
7.0499999999943777
20
-8.8317698028153018
30
9.7442177118346761e-27
11
-66.095309408184377
21
-8.8317698028315341
31
2.5049137725576734e-26
0
LINE
5
236
100
AcDbEntity
8
0
100
AcDbLine
10
-66.095309408184377
20
-8.8317698028315341
30
2.5049137725576734e-26
11
-66.09530940818442
21
-12.331769802804736
31
2.6682896417028251e-26
0
LINE
5
237
100
AcDbEntity
8
0
100
AcDbLine
10
40.139722326310768
20
5.00139370767989
30
4.7854845767171727e-27
11
42.6100206933083
21
5.0013937076798767
31
4.3591451693303585e-27
0
LINE
5
238
100
AcDbEntity
8
0
100
AcDbLine
10
39.596766946413261
20
2.5406415172803682
30
-9.7764002552461617e-28
11
42.0566936957377
21
2.5406415172803314
31
-1.4106682952677942e-27
0
LINE
5
239
100
AcDbEntity
8
0
100
AcDbLine
10
38.975981673306997
20
-0.22011067318441152
30
6.7353711811481313e-27
11
41.435908422632977
21
-0.22011067318440386
31
6.302342911406338e-27
0
LINE
5
240
100
AcDbEntity
8
0
100
AcDbLine
10
38.377682492045395
20
-2.8808628636433364
30
-8.1647339535993744e-28
11
40.83760924137291
21
-2.8808628636432991
31
-1.2495016651004838e-27
0
LINE
5
241
100
AcDbEntity
8
0
100
AcDbLine
10
37.711925035249379
20
-5.8416150540754206
30
5.1145067002107579e-27
11
40.171851784578607
21
-5.8416150540754153
31
4.6814784304710374e-27
0
LINE
5
242
100
AcDbEntity
8
0
100
AcDbLine
10
37.068653670298268
20
-8.7023672445008255
30
-4.2193689873919874e-27
11
39.52858041962908
21
-8.7023672445008238
31
-4.6523972571307157e-27
0
LINE
5
243
100
AcDbEntity
8
0
100
AcDbLine
10
72.301733189120398
20
-16.523628241005895
30
-6.9063024769853862e-29
11
75.301733189120583
21
-16.523628240998544
31
-2.7569577187768151e-29
0
LINE
5
244
100
AcDbEntity
8
0
100
AcDbLine
10
76.393743941204136
20
-13.334520034960445
30
1.9020301247581089e-30
11
76.393743941189186
21
-7.2309666443671414
31
-1.5932300592848823e-29
0
LINE
5
245
100
AcDbEntity
8
0
100
AcDbLine
10
78.493357639899358
20
-11.876132723892642
30
-2.1102167875615521e-29
11
77.07914407752979
21
-13.290346286269193
31
5.0146918777263314e-29
0
LINE
5
246
100
AcDbEntity
8
0
100
AcDbLine
10
79.940300414721676
20
-16.242651581836498
30
-2.2725485529473639e-27
11
77.940300414721676
21
-16.242651581841546
31
-3.5623882996902469e-27
0
LINE
5
247
100
AcDbEntity
8
0
100
AcDbLine
10
77.079144077581446
20
-7.275140392989174
30
-2.3719446336631513e-28
11
78.49335763995802
21
-8.6893539553587669
31
-2.3510268611380997e-28
0
LINE
5
248
100
AcDbEntity
8
0
100
AcDbLine
10
79.940300414853198
20
-4.3228350973457133
30
-2.8068724744984627e-27
11
77.940300414853311
21
-4.3228350973504659
31
-4.0967122212386939e-27
0
LINE
5
249
100
AcDbEntity
8
0
100
AcDbLine
10
81.586747024214759
20
9.3139631430331242
30
2.0848147929966029e-26
11
78.586747024214446
21
9.3139631430262089
31
1.8913388309857236e-26
0
LINE
5
250
100
AcDbEntity
8
0
100
AcDbLine
10
78.586747024211661
20
10.540710877054114
30
2.9666001835612621e-26
11
81.58674702420997
21
10.540710877061009
31
3.1600761455719962e-26
0
LINE
5
251
100
AcDbEntity
8
0
100
AcDbLine
10
81.5867470241799
20
-29.879449822213946
30
4.2989032862393096e-28
11
78.586747024179886
21
-29.879449822221375
31
-1.504869291489175e-27
0
LINE
5
252
100
AcDbEntity
8
0
100
AcDbLine
10
81.586747024181534
20
-30.89728164491564
30
2.3820196332782991e-26
11
78.58674702418152
21
-30.897281644923073
31
2.1885436712669847e-26
0
LINE
5
253
100
AcDbEntity
8
0
100
AcDbLine
10
75.30173318908983
20
-4.041858438333807
30
-3.0635151598691804e-28
11
72.301733189090015
21
-4.0418584383411567
31
-3.4784496356876901e-28
0
LINE
5
254
100
AcDbEntity
8
0
100
AcDbLine
10
67.422457914604365
20
5.8623637807976756
30
-3.6507405609274579e-28
11
65.301137571049907
21
3.7410434372328591
31
-3.8441817094880826e-28
0
LINE
5
255
100
AcDbEntity
8
0
100
AcDbLine
10
66.702742130490734
20
6.5820795649074633
30
-5.7927644914270109e-28
11
64.581421786936403
21
4.4607592213427862
31
-5.9862056399746136e-28
0
LINE
5
256
100
AcDbEntity
8
0
100
AcDbLine
10
65.301137571109251
20
-24.306530116622532
30
-6.055473924880258e-28
11
67.422457914674155
21
-26.427850460177005
31
-6.6551859902767274e-28
0
LINE
5
257
100
AcDbEntity
8
0
100
AcDbLine
10
64.581421787024766
20
-25.02624590071088
30
-3.0992106522457334e-28
11
66.702742130589485
21
-27.147566244265192
31
-3.6989227176293961e-28
0
LINE
5
258
100
AcDbEntity
8
0
100
AcDbLine
10
6.3541635737748055e-12
20
0.6408849013248612
30
8.9806883678754563e-28
11
-2.399999999995893
21
0.64088490143915111
31
-1.0382592490260522e-26
0
LINE
5
259
100
AcDbEntity
8
0
100
AcDbLine
10
7.299999999999228
20
-4.840884901399555
30
1.0428661368161252e-26
11
11.299999999985284
21
-4.8408849013995532
31
8.969373026817993e-27
0
LINE
5
260
100
AcDbEntity
8
0
100
AcDbLine
10
-41.354424506952085
20
-8.8317698028342697
30
7.3316768760458349e-26
11
-41.354424506952071
21
-12.331769802803956
31
7.2931043534574921e-26
0
LINE
5
261
100
AcDbEntity
8
0
100
AcDbLine
10
64.790094452377488
20
-11.482743339711865
30
3.955196861563912e-28
11
64.790094452381879
21
-9.0827433506495829
31
4.7970582416893892e-28
0
LINE
5
262
100
AcDbEntity
8
0
100
AcDbLine
10
65.30173318909543
20
-5.9023672445699962
30
-2.323507603659653e-28
11
61.301733189094207
21
-5.9023672445766584
31
-2.0644502700017377e-29
0
ARC
5
263
100
AcDbEntity
8
0
100
AcDbCircle
10
39.940687399001888
20
4.9817698015161618
30
4.4851167454490577e-27
40
0.19999999965730558
210
1.2381563060041031e-27
220
-3.907340036263118e-28
230
1
100
AcDbArc
50
-12.67279808230237
51
48.590377856065942
0
LINE
5
264
100
AcDbEntity
8
0
100
AcDbLine
10
39.62608343490772
20
2.6710176124996643
30
5.7116529773788515e-27
11
39.567450457921346
21
2.4102654220548096
31
5.6565683232592123e-27
0
LINE
5
265
100
AcDbEntity
8
0
100
AcDbLine
10
37.097970158792727
20
-8.5719911492939325
30
-1.5293217123667755e-28
11
37.039337181802168
21
-8.8327433397108273
31
2.6968953928539193e-27
0
ARC
5
266
100
AcDbEntity
8
0
100
AcDbCircle
10
38.039337181804484
20
-10.48274333970989
30
-3.0427272294522836e-27
40
0.99999999999995204
210
5.4135318787501651e-27
220
3.2253934624882122e-28
230
1
100
AcDbArc
50
180
51
270.00000000001387
0
ARC
5
267
100
AcDbEntity
8
0
100
AcDbCircle
10
65.551733189101583
20
-8.8327433506509738
30
-1.1947501346544212e-28
40
0.25000000000000133
210
-1.3831149158161172e-29
220
-6.872026124339921e-28
230
1
100
AcDbArc
50
-90.000000000100968
51
0
0
LINE
5
268
100
AcDbEntity
8
0
100
AcDbLine
10
40.09756311239628
20
-6.1719911492895374
30
-2.3011918049002774e-27
11
40.142535296086699
21
-5.9719911492940136
31
1.590326974142989e-27
0
LINE
5
269
100
AcDbEntity
8
0
100
AcDbLine
10
39.497887017049415
20
-8.8388667430032868
30
-2.6800896086724699e-28
11
39.499263931137072
21
-8.8327433397139181
31
-2.2521869441538842e-28
0
LINE
5
270
100
AcDbEntity
8
0
100
AcDbLine
10
39.499263931137072
20
-8.8327433397139181
30
-2.2521869441538842e-28
11
39.557896908123503
21
-8.5719911492939218
31
-1.7013404046545431e-28
0
LINE
5
271
100
AcDbEntity
8
0
100
AcDbLine
10
40.201168273072994
20
-5.711238958863099
30
-2.6459916962349096e-27
11
40.808292752880959
21
-3.0112389588631201
31
-2.4586513254622561e-27
0
LINE
5
272
100
AcDbEntity
8
0
100
AcDbLine
10
42.086010184230858
20
2.6710176125027019
30
-5.01432495614744e-28
11
42.639337181801451
21
5.1317698028570193
31
-5.3763529383967262e-28
0
LINE
5
273
100
AcDbEntity
8
0
100
AcDbLine
10
87.904690591815609
20
21.91823019718192
30
0
11
-67.095309408184377
21
21.918230197181899
31
0
0
LINE
5
274
100
AcDbEntity
8
0
100
AcDbLine
10
-66.095309408184391
20
-10.581769802818135
30
2.5866017071302493e-26
11
-67.095309408184391
21
-10.581769802818107
31
2.5866017071302493e-26
0
LINE
5
275
100
AcDbEntity
8
0
100
AcDbLine
10
-67.095309408184391
20
-10.581769802818107
30
2.5866017071302493e-26
11
-67.095309408184377
21
54.418230197181934
31
2.5866017071302493e-26
0
LINE
5
276
100
AcDbEntity
8
0
100
AcDbLine
10
65.301733189090868
20
-4.021991149445963
30
-7.7215818687632696e-28
11
63.431616475476886
21
1.0527170665469661
31
-5.2121327901045471e-28
0
LINE
5
277
100
AcDbEntity
8
0
100
AcDbLine
10
-66.09530940818442
20
56.16823019716854
30
2.6682896417028251e-26
11
11.049999999990812
21
56.168230197172562
31
1.1811954234302637e-26
0
LINE
5
278
100
AcDbEntity
8
0
100
AcDbLine
10
38.406998980539882
20
46.586947162793699
30
1.3799009451659936e-28
11
38.348366003553338
21
46.847699353226972
31
1.4601431289358259e-28
0
LINE
5
279
100
AcDbEntity
8
0
100
AcDbLine
10
-41.354424506952085
20
52.668230197198085
30
7.3316768760458349e-26
11
-41.354424506952071
21
56.168230197167766
31
7.2931043534574921e-26
0
LWPOLYLINE
5
280
100
AcDbEntity
8
0
100
AcDbPolyline
90
4
70
1
43
0.0
10
7.2999999999939291
20
54.068230197176483
10
-57.745309408247536
20
54.068230197184619
42
-0.99999999999999989
10
-57.745309408247607
20
54.768230197179221
10
7.2999999999939647
20
54.768230197175185
42
-0.99999999999999989
0
LINE
5
281
100
AcDbEntity
8
0
100
AcDbLine
10
7.0499999999943697
20
52.66823019717912
30
9.7442177118346761e-27
11
-66.095309408184377
21
52.668230197195328
31
2.5049137725576734e-26
0
LINE
5
282
100
AcDbEntity
8
0
100
AcDbLine
10
-66.095309408184377
20
52.668230197195328
30
2.5049137725576734e-26
11
-66.09530940818442
21
56.16823019716854
31
2.6682896417028251e-26
0
ARC
5
283
100
AcDbEntity
8
0
100
AcDbCircle
10
80.086747050870017
20
79.767657946604814
30
2.9636545212178257e-27
40
5.0000000000000044
210
-2.8424008519370659e-29
220
7.6571184226407967e-29
230
1
100
AcDbArc
50
-72.542397196819294
51
252.5423965557363
0
LINE
5
284
100
AcDbEntity
8
0
100
AcDbLine
10
65.801733189108688
20
55.569203734076481
30
2.1350179862365427e-28
11
65.801733189114941
21
58.119203734053464
31
4.8692994173315623e-28
0
LINE
5
285
100
AcDbEntity
8
0
100
AcDbLine
10
76.198179798519448
20
57.222757124621282
30
-2.182605253616685e-30
11
76.589308083888881
21
57.119203734027053
31
-1.9019435470434267e-30
0
LINE
5
286
100
AcDbEntity
8
0
100
AcDbLine
10
52.801733189076927
20
42.858451543837717
30
6.5757194447666713e-28
11
52.801733189086981
21
46.858451543837717
31
-3.2419007755313385e-28
0
LINE
5
287
100
AcDbEntity
8
0
100
AcDbLine
10
37.068653670298261
20
52.538827638864653
30
-4.2193689873919874e-27
11
39.528580419629066
21
52.538827638864653
31
-4.6523972571307157e-27
0
ARC
5
288
100
AcDbEntity
8
0
100
AcDbCircle
10
11.549999999990339
20
47.186460394343044
30
2.6237383153230252e-26
40
0.24999999999980815
210
-4.9112533890165535e-26
220
-1.8233163308344877e-28
230
1
100
AcDbArc
50
180
51
269.99999999996135
0
ARC
5
289
100
AcDbEntity
8
0
100
AcDbCircle
10
7.0499999999941387
20
47.186460394343143
30
2.3335243723159883e-26
40
0.24999999999976374
210
3.6482208537508837e-28
220
-3.143522884969359e-25
230
1
100
AcDbArc
50
270.00000000000813
51
360
0
LINE
5
290
100
AcDbEntity
8
0
100
AcDbLine
10
81.586747024185939
20
74.99796193112833
30
3.3715118055434276e-27
11
81.586747024181619
21
73.451690313044452
31
-2.8077664528320599e-27
0
LINE
5
291
100
AcDbEntity
8
0
100
AcDbLine
10
38.975981673306983
20
44.056571067548234
30
6.7353711811481313e-27
11
41.43590842263297
21
44.056571067548234
31
6.302342911406338e-27
0
LINE
5
292
100
AcDbEntity
8
0
100
AcDbLine
10
40.139722326310768
20
38.835066686683938
30
4.7854845767171727e-27
11
42.6100206933083
21
38.835066686683952
31
4.3591451693303585e-27
0
LINE
5
293
100
AcDbEntity
8
0
100
AcDbLine
10
65.801733189114941
20
58.119203734053464
30
4.8692994173315623e-28
11
72.301733189114941
21
58.119203734037555
31
8.8525597349216719e-30
0
LINE
5
294
100
AcDbEntity
8
0
100
AcDbLine
10
64.394590100809467
20
39.188869486894902
30
-2.0253679157474876e-27
11
65.487969257156948
21
40.282248643237118
31
-8.9179030908428908e-28
0
ARC
5
295
100
AcDbEntity
8
0
100
AcDbCircle
10
-11.199999999990684
20
46.436460394343797
30
-4.6484175609744677e-26
40
4.9999999999955591
210
-4.6293481636405485e-27
220
-3.3644517509890789e-27
230
1
100
AcDbArc
50
306.86989764583291
51
329.9999978711428
0
ARC
5
296
100
AcDbEntity
8
0
100
AcDbCircle
10
69.921313819750353
20
42.594272862254613
30
-8.7980149876363235e-28
40
5.0000000000000089
210
-5.3142912026915852e-29
220
6.7058642152970337e-29
230
1
100
AcDbArc
50
-117.54239687641871
51
27.542396876138479
0
ARC
5
297
100
AcDbEntity
8
0
100
AcDbCircle
10
18.799999999984387
20
46.436460394343825
30
5.1751632685715177e-27
40
4.9999999999956293
210
1.71553991454994e-28
220
-9.2336157509073054e-29
230
1
100
AcDbArc
50
209.99999891826627
51
233.130102354153
0
LINE
5
298
100
AcDbEntity
8
0
100
AcDbLine
10
54.801733189092005
20
48.858451543832693
30
-9.1362653501431431e-28
11
61.301733189092005
21
48.858451543816358
31
-1.0130506825028696e-27
0
LINE
5
299
100
AcDbEntity
8
0
100
AcDbLine
10
40.135815160437261
20
38.898567199144658
30
4.2263739951074234e-27
11
39.873430445199233
21
40.065442781861869
31
4.4316216036733679e-27
0
ARC
5
300
100
AcDbEntity
8
0
100
AcDbCircle
10
62.08256590205302
20
73.482882558442128
30
-8.8044565461703524e-30
40
5.0000000000000071
210
-1.5110861376177902e-29
220
-4.0098183296938877e-29
230
1
100
AcDbArc
50
-27.542397172169789
51
297.54239658038847
0
LINE
5
301
100
AcDbEntity
8
0
100
AcDbLine
10
37.09797015879272
20
52.408451543657755
30
-1.5293217123667755e-28
11
37.039337181802161
21
52.669203734074657
31
2.6968953928539193e-27
0
LINE
5
302
100
AcDbEntity
8
0
100
AcDbLine
10
40.142535296086692
20
49.808451543657846
30
1.590326974142989e-27
11
40.201168273072987
21
49.547699353226932
31
-2.6459916962349096e-27
0
CIRCLE
5
303
100
AcDbEntity
8
0
100
AcDbCircle
10
57.801733189081958
20
44.858451543825161
30
-2.6902429990701199e-28
40
0.50000000000000078
210
-3.1040670645968743e-30
220
-1.0933136552122331e-29
230
1
0
LINE
5
304
100
AcDbEntity
8
0
100
AcDbLine
10
39.499263931137058
20
52.669203734077747
30
-2.2521869441538842e-28
11
39.557896908123496
21
52.408451543657755
31
-1.7013404046545431e-28
0
LINE
5
305
100
AcDbEntity
8
0
100
AcDbLine
10
39.873430445199233
20
40.065442781861869
30
4.4316216036733679e-27
11
37.97224303191414
21
40.06544278186189
31
-5.3772985909206269e-27
0
LINE
5
306
100
AcDbEntity
8
0
100
AcDbLine
10
52.801733189086981
20
46.858451543837717
30
-3.2419007755313385e-28
11
54.801733189092005
21
48.858451543832693
31
-9.1362653501431431e-28
0
ARC
5
307
100
AcDbEntity
8
0
100
AcDbCircle
10
80.086747024198743
20
28.470749517304085
30
2.2375283065740679e-28
40
5.0000000000000098
210
-3.8689127839111035e-29
220
7.3342941715415038e-29
230
1
100
AcDbArc
50
-252.5423968763983
51
72.542396876126148
0
ARC
5
308
100
AcDbEntity
8
0
100
AcDbCircle
10
77.440300414717512
20
58.195069799012408
30
5.1213847145850016e-28
40
2.4999999999999636
210
5.1534266771963973e-28
220
5.0066172466607227e-28
230
1
100
AcDbArc
50
315.00000000015876
51
360
0
LINE
5
309
100
AcDbEntity
8
0
100
AcDbLine
10
75.301733189114955
20
58.119203734030208
30
3.0278149698761906e-28
11
76.198179798519448
21
57.222757124621282
31
-2.182605253616685e-30
0
LINE
5
310
100
AcDbEntity
8
0
100
AcDbLine
10
38.348366003553338
20
46.847699353226972
30
1.4601431289358259e-28
11
37.741241523743881
21
49.547699353226932
31
1.4284387980933618e-26
0
LINE
5
311
100
AcDbEntity
8
0
100
AcDbLine
10
79.940300414721662
20
60.079111976200331
30
-2.2725485529473639e-27
11
77.940300414721676
21
60.079111976205382
31
-3.5623882996902469e-27
0
LINE
5
312
100
AcDbEntity
8
0
100
AcDbLine
10
81.586747024179886
20
73.715910216577782
30
4.2989032862393096e-28
11
78.586747024179871
21
73.715910216585215
31
-1.504869291489175e-27
0
LINE
5
313
100
AcDbEntity
8
0
100
AcDbLine
10
42.027377207245841
20
41.426194972309041
30
-3.4483111741202975e-27
11
42.086010184230858
21
41.165442781861124
31
-5.01432495614744e-28
0
LINE
5
314
100
AcDbEntity
8
0
100
AcDbLine
10
81.586747024214759
20
34.522497251330712
30
2.0848147929966029e-26
11
78.586747024214446
21
34.522497251337626
31
1.8913388309857236e-26
0
ARC
5
315
100
AcDbEntity
8
0
100
AcDbCircle
10
80.086747039311234
20
68.681994301201684
30
-8.4316655598030372e-28
40
5.0000000000000036
210
-1.0288321716281321e-28
220
5.3154840743520355e-29
230
1
100
AcDbArc
50
107.45760330546598
51
252.54239669422742
0
LINE
5
316
100
AcDbEntity
8
0
100
AcDbLine
10
40.201168273072987
20
49.547699353226932
30
-2.6459916962349096e-27
11
40.808292752880952
21
46.84769935322695
31
-2.4586513254622561e-27
0
LINE
5
317
100
AcDbEntity
8
0
100
AcDbLine
10
78.485754693285244
20
52.886970686988178
30
-2.5014759415093452e-28
11
78.308977997989103
21
52.710193991692911
31
2.3868469492200098e-28
0
LINE
5
318
100
AcDbEntity
8
0
100
AcDbLine
10
79.940300414858186
20
50.04333766889809
30
8.7407648718067142e-28
11
79.940300414847897
21
45.881413162683209
31
-7.0747258790881983e-27
0
LINE
5
319
100
AcDbEntity
8
0
100
AcDbLine
10
79.940300414847897
20
45.881413162683209
30
-7.0747258790881983e-27
11
81.586747024237539
21
44.381413162675202
31
-9.4312798683317589e-28
0
LINE
5
320
100
AcDbEntity
8
0
100
AcDbLine
10
78.308977997989103
20
52.710193991692911
30
2.3868469492200098e-28
11
79.208067367817151
21
51.811104621860167
31
5.5812340992711641e-28
0
LINE
5
321
100
AcDbEntity
8
0
100
AcDbLine
10
72.233338038789284
20
47.027617424836841
30
-1.0542278656506855e-27
11
72.272443867206462
21
47.066723253253286
31
1.2058164968482342e-28
0
LINE
5
322
100
AcDbEntity
8
0
100
AcDbLine
10
72.301733189087955
20
47.137433931371874
30
-8.5897119077901255e-28
11
72.301733189095316
21
50.119203734037555
31
-6.7819603774776305e-28
0
LINE
5
323
100
AcDbEntity
8
0
100
AcDbLine
10
65.801733189101313
20
52.569203734053467
30
-2.492452605882134e-28
11
65.801733189101583
21
52.669203745014187
31
-8.4462789958112932e-29
0
LINE
5
324
100
AcDbEntity
8
0
100
AcDbLine
10
77.940300414847897
20
45.881413162687977
30
-4.3255977910970156e-27
11
77.940300414857774
21
50.043336982316234
31
3.6232105931982588e-27
0
LINE
5
325
100
AcDbEntity
8
0
100
AcDbLine
10
75.301733189095316
20
50.119203734030208
30
2.073785784206896e-28
11
75.301733189088196
21
47.137433931365081
31
-8.8058661561948493e-28
0
ARC
5
326
100
AcDbEntity
8
0
100
AcDbCircle
10
77.440300414858257
20
50.043337668904186
30
-7.3822319624590788e-28
40
2.4999999999999289
210
-6.4491987337003879e-28
220
2.5078078367063839e-28
230
1
100
AcDbArc
50
0
51
44.999999999952784
0
LINE
5
327
100
AcDbEntity
8
0
100
AcDbLine
10
76.589308083874229
20
51.119203734027245
30
-6.1974030933943714e-28
11
76.198179798504228
21
51.015650343434729
31
3.3790811914903025e-30
0
LINE
5
328
100
AcDbEntity
8
0
100
AcDbLine
10
61.551733189100524
20
52.319203734063876
30
-4.8332578985216923e-28
11
65.551733189100702
21
52.319203734054085
31
-5.8577337412033979e-28
0
LINE
5
329
100
AcDbEntity
8
0
100
AcDbLine
10
76.894764435612515
20
51.295980429323329
30
4.7266300416350751e-29
11
76.717987740315067
21
51.11920373402674
31
6.2782046367434192e-29
0
LINE
5
330
100
AcDbEntity
8
0
100
AcDbLine
10
78.586747024237525
20
44.381413162682122
30
1.1610802277897664e-27
11
77.940300414847897
21
45.881413162687977
31
-4.3255977910970156e-27
0
LINE
5
331
100
AcDbEntity
8
0
100
AcDbLine
10
74.393764210760835
20
44.945402909688347
30
-9.3908111432399434e-28
11
74.354658382343814
21
44.906297081272015
31
-4.8915945393597823e-28
0
LINE
5
332
100
AcDbEntity
8
0
100
AcDbLine
10
76.717987740315067
20
51.11920373402674
30
6.2782046367434192e-29
11
76.589308083874229
21
51.119203734027245
31
-6.1974030933943714e-28
0
LINE
5
333
100
AcDbEntity
8
0
100
AcDbLine
10
78.586747024235876
20
44.326109169764749
30
-4.16251162047068e-28
11
78.586747024237525
21
44.381413162682122
31
1.1610802277897664e-27
0
LINE
5
334
100
AcDbEntity
8
0
100
AcDbLine
10
77.793853805449402
20
50.396891059499538
30
-7.692546881695622e-28
11
76.894764435612515
21
51.295980429323329
31
4.7266300416350751e-29
0
LINE
5
335
100
AcDbEntity
8
0
100
AcDbLine
10
76.198179798504228
20
51.015650343434729
30
3.3790811914903025e-30
11
75.301733189095316
21
50.119203734030208
31
2.073785784206896e-28
0
LINE
5
336
100
AcDbEntity
8
0
100
AcDbLine
10
81.586747024237539
20
44.381413162675202
30
-9.4312798683317589e-28
11
81.586747024235876
21
44.326109169757359
31
-4.583808413683107e-28
0
LINE
5
337
100
AcDbEntity
8
0
100
AcDbLine
10
61.301733189092005
20
48.858451543816358
30
-1.0130506825028696e-27
11
61.301733189099906
21
52.069203734064487
31
-6.3052728613126355e-28
0
ARC
5
338
100
AcDbEntity
8
0
100
AcDbCircle
10
72.20173318908796
20
47.137433931372129
30
-8.6035430569844207e-28
40
0.10000000000002242
210
-6.9486468024671795e-27
220
6.923882516754002e-27
230
1
100
AcDbArc
50
314.99999999986187
51
360
0
LINE
5
339
100
AcDbEntity
8
0
100
AcDbLine
10
65.301733189096012
20
49.969203732636075
30
-6.8912857801879704e-28
11
65.301733189090868
21
47.858451543809792
31
-7.7215818687632696e-28
0
ARC
5
340
100
AcDbEntity
8
0
100
AcDbCircle
10
77.440300414858257
20
50.043337668904186
30
-7.3822319624590788e-28
40
0.49999999999998113
210
-8.7228673027697458e-27
220
2.0108650372907193e-28
230
1
100
AcDbArc
50
-7.8676990277914876e-05
51
45.000000000340833
0
LINE
5
341
100
AcDbEntity
8
0
100
AcDbLine
10
65.801733189095316
20
50.119203734053471
30
-7.0498963509101909e-28
11
65.451733188487054
21
50.119203732635711
31
-4.5095144310157212e-28
0
LINE
5
342
100
AcDbEntity
8
0
100
AcDbLine
10
72.301733189095316
20
50.119203734037555
30
-6.7819603774776305e-28
11
65.801733189095316
21
50.119203734053471
31
-7.0498963509101909e-28
0
LINE
5
343
100
AcDbEntity
8
0
100
AcDbLine
10
41.639337181801338
20
36.254690591504669
30
3.6312913052071852e-27
11
-2.1499999999982577
21
36.25469059150565
31
-3.2182387174260347e-26
0
LINE
5
344
100
AcDbEntity
8
0
100
AcDbLine
10
72.301733189120384
20
60.360088635369735
30
-6.9063024769853862e-29
11
75.301733189120569
21
60.360088635362381
31
-2.7569577187768151e-29
0
LINE
5
345
100
AcDbEntity
8
0
100
AcDbLine
10
38.377682492045381
20
46.71732325800717
30
-8.1647339535993744e-28
11
40.837609241372903
21
46.717323258007127
31
-1.2495016651004838e-27
0
LINE
5
346
100
AcDbEntity
8
0
100
AcDbLine
10
42.086010184230858
20
41.165442781861124
30
-5.01432495614744e-28
11
42.639337181801451
21
38.704690591506804
31
-5.3763529383967262e-28
0
LINE
5
347
100
AcDbEntity
8
0
100
AcDbLine
10
7.2999999999992227
20
48.677345295763374
30
1.0428661368161252e-26
11
11.299999999985273
21
48.677345295763374
31
8.969373026817993e-27
0
LINE
5
348
100
AcDbEntity
8
0
100
AcDbLine
10
6.3593574850528967e-12
20
43.195575493038959
30
8.9806883678754563e-28
11
-2.3999999999958987
21
43.195575492924675
31
-1.0382592490260522e-26
0
LINE
5
349
100
AcDbEntity
8
0
100
AcDbLine
10
0.2499999999997371
20
38.654690591504604
30
-3.7660741678039315e-26
11
39.940687399001298
21
38.654690591459669
31
-4.2229469602785124e-26
0
LINE
5
350
100
AcDbEntity
8
0
100
AcDbLine
10
66.702742130490719
20
37.254380829456366
30
-5.7927644914270109e-28
11
64.581421786936403
21
39.375701173021042
31
-5.9862056399746136e-28
0
LINE
5
351
100
AcDbEntity
8
0
100
AcDbLine
10
79.940300414853198
20
48.159295491709543
30
-2.8068724744984627e-27
11
77.940300414853311
21
48.159295491714303
31
-4.0967122212386939e-27
0
LINE
5
352
100
AcDbEntity
8
0
100
AcDbLine
10
78.586747024211661
20
33.295749517309723
30
2.9666001835612621e-26
11
81.58674702420997
21
33.295749517302824
31
3.1600761455719962e-26
0
LINE
5
353
100
AcDbEntity
8
0
100
AcDbLine
10
65.551733189101128
20
52.919203745014798
30
-2.9127566657394721e-28
11
39.693014778506651
21
52.919203744998207
31
-8.12205729838635e-28
0
LINE
5
354
100
AcDbEntity
8
0
100
AcDbLine
10
14.469872933866439
20
43.936460476098006
30
5.6871734640475391e-27
11
7.1054273576010019e-14
21
43.936460313156033
31
3.1119387404902838e-26
0
ARC
5
355
100
AcDbEntity
8
0
100
AcDbCircle
10
65.551733189101583
20
52.669203745014805
30
-1.1947501346544212e-28
40
0.25000000000000355
210
-1.4004889403099936e-28
220
-6.8720261243368269e-28
230
1
100
AcDbArc
50
0
51
90.000000000104222
0
LINE
5
356
100
AcDbEntity
8
0
100
AcDbLine
10
78.493357639899344
20
55.712593118256478
30
-2.1102167875615521e-29
11
77.07914407752979
21
57.126806680633031
31
5.0146918777263314e-29
0
LINE
5
357
100
AcDbEntity
8
0
100
AcDbLine
10
75.301733189089816
20
47.878318832697637
30
-3.0635151598691804e-28
11
72.301733189090001
21
47.878318832704991
31
-3.4784496356876901e-28
0
LINE
5
358
100
AcDbEntity
8
0
100
AcDbLine
10
81.58674702418152
20
74.733742039279477
30
2.3820196332782991e-26
11
78.586747024181506
21
74.733742039286909
31
2.1885436712669847e-26
0
LINE
5
359
100
AcDbEntity
8
0
100
AcDbLine
10
64.581421787024766
20
68.862706295074716
30
-3.0992106522457334e-28
11
66.702742130589471
21
70.984026638629032
31
-3.6989227176293961e-28
0
ARC
5
360
100
AcDbEntity
8
0
100
AcDbCircle
10
72.20173318908796
20
47.137433931372129
30
-8.6035430569844207e-28
40
3.1000000000000414
210
1.9260259288766431e-29
220
-1.6654747317887066e-29
230
1
100
AcDbArc
50
314.99999999985749
51
360
0
LINE
5
361
100
AcDbEntity
8
0
100
AcDbLine
10
41.796375756984389
20
50.008451543653194
30
3.0858095550954569e-27
11
40.097563112396273
21
50.008451543653365
31
-2.3011918049002774e-27
0
ARC
5
362
100
AcDbEntity
8
0
100
AcDbCircle
10
69.921313819750353
20
42.594272862254613
30
-8.7980149876363235e-28
40
4.9999999999999982
210
1.4005098305440193e-29
220
3.2040424201117956e-29
230
1
100
AcDbArc
50
62.457603123583247
51
207.54239687613972
0
LINE
5
363
100
AcDbEntity
8
0
100
AcDbLine
10
7.2999999999939291
20
47.18646039434303
30
2.3244038201827354e-26
11
7.2999999999939469
21
52.418230197179476
31
2.4087418010002016e-26
0
ARC
5
364
100
AcDbEntity
8
0
100
AcDbCircle
10
65.551733189101313
20
52.569203734054085
30
-2.5270304788670273e-28
40
0.25000000000000355
210
-1.3831149197122572e-29
220
-1.3322813049344959e-27
230
1
100
AcDbArc
50
269.99999999985994
51
360
0
ARC
5
365
100
AcDbEntity
8
0
100
AcDbCircle
10
61.551733189099913
20
52.069203734063869
30
-4.6929731778855716e-28
40
0.25000000000000355
210
-6.4491987337062487e-28
220
5.6113888256028579e-29
230
1
100
AcDbArc
50
89.999999999859952
51
180
0
LINE
5
366
100
AcDbEntity
8
0
100
AcDbLine
10
77.940300414717058
20
58.195070485597867
30
8.3459239011633633e-28
11
77.940300414727474
21
62.356994305241926
31
2.7249490221761297e-27
0
ARC
5
367
100
AcDbEntity
8
0
100
AcDbCircle
10
65.451733189096018
20
49.969203732635705
30
-6.8892366213181291e-28
40
0.15000000000000568
210
-1.3660995169697353e-30
220
-1.5864814602070912e-27
230
1
100
AcDbArc
50
90.000000232606936
51
180
0
LINE
5
368
100
AcDbEntity
8
0
100
AcDbLine
10
81.586747024156097
20
63.912298289350872
30
-4.353093586663345e-28
11
81.586747024154704
21
63.856994305228056
31
2.0263270718095698e-27
0
ARC
5
369
100
AcDbEntity
8
0
100
AcDbCircle
10
39.940687399001263
20
38.854690591414595
30
4.4851167580096797e-27
40
0.19999999995492512
210
2.6413142645171847e-28
220
-2.3357293185661535e-25
230
1
100
AcDbArc
50
270.00000000001017
51
311.4096221345668
0
ARC
5
370
100
AcDbEntity
8
0
100
AcDbCircle
10
39.693014778506665
20
52.719203745020167
30
-4.1078878670663933e-27
40
0.19999999997803997
210
5.6625849346558146e-28
220
-1.64784106879481e-26
230
1
100
AcDbArc
50
90.000000000004079
51
192.67279846073197
0
LINE
5
371
100
AcDbEntity
8
0
100
AcDbLine
10
39.895188285794838
20
50.90845154365649
30
-4.0769755036844192e-27
11
41.796375704896313
21
50.908451543653186
31
-5.0552504218741621e-27
0
LINE
5
372
100
AcDbEntity
8
0
100
AcDbLine
10
42.639337181801451
20
38.704690591506804
30
-5.3763529383967262e-28
11
42.639337181801451
21
37.254690591504684
31
-4.4995926860801583e-28
0
ARC
5
373
100
AcDbEntity
8
0
100
AcDbCircle
10
80.086747024224138
20
39.556413162676321
30
-8.3939340432307102e-30
40
5.0000000000000053
210
1.0252365395755752e-28
220
1.1775230708728328e-28
230
1
100
AcDbArc
50
-72.542396876414799
51
72.54239687613692
0
LINE
5
374
100
AcDbEntity
8
0
100
AcDbLine
10
78.586747024154732
20
63.856994305235482
30
9.1567451696512236e-29
11
78.586747024156097
21
63.91229829888303
31
3.6457881345671027e-27
0
LINE
5
375
100
AcDbEntity
8
0
100
AcDbLine
10
41.996375704950601
20
50.708451543598883
30
-1.4061903626186834e-27
11
41.996375704950594
21
50.2084514916194
31
-1.1888063456306538e-27
0
LINE
5
376
100
AcDbEntity
8
0
100
AcDbLine
10
77.940300414727474
20
62.356994305241926
30
2.7249490221761297e-27
11
78.586747024154732
21
63.856994305235482
31
9.1567451696512236e-29
0
LINE
5
377
100
AcDbEntity
8
0
100
AcDbLine
10
72.272443867240895
20
61.171684214820971
30
4.3447378914688518e-28
11
72.233338038641762
21
61.210790043420005
31
3.6625281180481199e-28
0
ARC
5
378
100
AcDbEntity
8
0
100
AcDbCircle
10
80.086747024224138
20
39.556413162676321
30
-8.3939340432307102e-30
40
5.0000000000000044
210
-4.8959221790665124e-29
220
7.0113146586579611e-29
230
1
100
AcDbArc
50
107.45760312358105
51
252.5423968761408
0
LINE
5
379
100
AcDbEntity
8
0
100
AcDbLine
10
41.406591934141083
20
44.186947162793672
30
2.5031356308599934e-27
11
41.465224911127365
21
43.92619497230914
31
2.5582202852504508e-27
0
LINE
5
380
100
AcDbEntity
8
0
100
AcDbLine
10
78.586747024208762
20
33.240445524391973
30
-1.8410439734896721e-28
11
78.586747024212727
21
34.786717155595177
31
-2.5876329027656102e-27
0
LINE
5
381
100
AcDbEntity
8
0
100
AcDbLine
10
81.586747024212741
20
34.786717155588008
30
3.9946329396125445e-28
11
81.586747024211377
21
33.240445524384839
31
2.8029917993840695e-27
0
LINE
5
382
100
AcDbEntity
8
0
100
AcDbLine
10
-2.3999999999979771
20
43.93646031315604
30
-1.8896034307913274e-26
11
-6.8698730739611413
21
43.936460233457623
31
-1.7739775751361917e-26
0
ARC
5
383
100
AcDbEntity
8
0
100
AcDbCircle
10
-11.199999999990684
20
46.436460394343797
30
-4.6484175609744677e-26
40
4.9999999999955822
210
-5.1600859749941446e-28
220
5.3498310796140946e-27
230
1
100
AcDbArc
50
5.7391704772904433
51
53.130102354153166
0
LINE
5
384
100
AcDbEntity
8
0
100
AcDbLine
10
-2.3999999999981014
20
36.504690591505494
30
-1.8126594884473229e-26
11
-2.3999999999979771
21
43.93646031315604
31
-1.8896034307913274e-26
0
LINE
5
385
100
AcDbEntity
8
0
100
AcDbLine
10
21.799999999981932
20
50.436460394340166
30
4.361112438918615e-27
11
23.799999999980194
21
48.436460394341985
31
3.9961315344171863e-27
0
LINE
5
386
100
AcDbEntity
8
0
100
AcDbLine
10
-16.19999999998651
20
48.436460394341935
30
-3.2907824945045798e-26
11
-14.199999999988151
21
50.436460394340116
31
-2.7001316627110663e-27
0
LINE
5
387
100
AcDbEntity
8
0
100
AcDbLine
10
-14.199999999988151
20
50.436460394340116
30
-2.7001316627110663e-27
11
-8.1999999999931283
21
50.436460394340131
31
-1.498648376154476e-26
0
LINE
5
388
100
AcDbEntity
8
0
100
AcDbLine
10
15.79999999998777
20
50.436460394340855
30
4.8612692812427515e-27
11
21.799999999981932
21
50.436460394340166
31
4.361112438918615e-27
0
LINE
5
389
100
AcDbEntity
8
0
100
AcDbLine
10
79.94030041472746
20
62.356994305236846
30
6.0342726862851122e-27
11
79.940300414717456
21
58.195069799006227
31
-1.9145296798456208e-27
0
ARC
5
390
100
AcDbEntity
8
0
100
AcDbCircle
10
69.921313831792546
20
65.644134612359267
30
4.3106586011964292e-29
40
4.9999999999999956
210
-8.2870663737992116e-29
220
-2.3252164737085584e-28
230
1
100
AcDbArc
50
-27.542397033676227
51
117.54239703339493
0
LINE
5
391
100
AcDbEntity
8
0
100
AcDbLine
10
39.671055618596007
20
40.965442781862095
30
1.9660623751788423e-27
11
39.626083434906491
21
41.165442781861081
31
2.2035151811650571e-27
0
ARC
5
392
100
AcDbEntity
8
0
100
AcDbCircle
10
18.799999999984387
20
46.436460394343825
30
5.1751632685715177e-27
40
4.9999999999955911
210
3.0774821336552422e-27
220
2.3865850970727913e-27
230
1
100
AcDbArc
50
126.86989764583343
51
174.26082952274237
0
ARC
5
393
100
AcDbEntity
8
0
100
AcDbCircle
10
72.201733189122081
20
61.100973536702476
30
4.406800875261803e-28
40
0.10000000000026432
210
3.1416124716505938e-27
220
-4.4361784923396256e-29
230
1
100
AcDbArc
50
0
51
44.999999999870461
0
LINE
5
394
100
AcDbEntity
8
0
100
AcDbLine
10
37.682608546757386
20
49.808451543657846
30
3.627012760738657e-27
11
37.09797015879272
21
52.408451543657755
31
-1.5293217123667755e-28
0
ARC
5
395
100
AcDbEntity
8
0
100
AcDbCircle
10
-2.1499999999982577
20
36.504690591505536
30
-1.8217800405807063e-26
40
0.24999999999984368
210
3.6482208532565226e-28
220
5.5858347073837241e-26
230
1
100
AcDbArc
50
180
51
270
0
ARC
5
396
100
AcDbEntity
8
0
100
AcDbCircle
10
69.921313831792546
20
65.644134612359267
30
4.3106586011964292e-29
40
5.0000000000000089
210
2.9755986396585642e-31
220
-7.3045121209656015e-29
230
1
100
AcDbArc
50
152.45760328083699
51
297.54239671887899
0
LINE
5
397
100
AcDbEntity
8
0
100
AcDbLine
10
66.515910452700894
20
71.170858316518874
30
-3.4520773448101732e-29
11
67.609289600607198
21
70.077479168607042
31
-1.1793409761850136e-27
0
ARC
5
398
100
AcDbEntity
8
0
100
AcDbCircle
10
65.551733189108688
20
55.569203734077078
30
2.1004401132517463e-28
40
0.24999999999999467
210
-1.3831149194010759e-29
220
5.6113888254489303e-29
230
1
100
AcDbArc
50
270.00000000010095
51
360
0
ARC
5
399
100
AcDbEntity
8
0
100
AcDbCircle
10
11.049999999990812
20
55.918230197173024
30
1.4003238804772645e-26
40
0.24999999999966604
210
3.6482208534914484e-28
220
-8.7651382818956502e-27
230
1
100
AcDbArc
50
0
51
90
0
LINE
5
400
100
AcDbEntity
8
0
100
AcDbLine
10
40.808292752880952
20
46.84769935322695
30
-2.4586513254622561e-27
11
40.866925729867376
21
46.586947162793649
31
1.207882252857276e-28
0
LINE
5
401
100
AcDbEntity
8
0
100
AcDbLine
10
7.1054273576010019e-14
20
43.936460313156033
30
3.1119387404902838e-26
11
-1.7763568394002505e-14
21
38.904690591504441
31
-1.7672715380990027e-26
0
LINE
5
402
100
AcDbEntity
8
0
100
AcDbLine
10
37.772243031895236
20
40.265442781880779
30
7.1295126890840654e-27
11
37.772243031895307
21
40.765442781861211
31
7.0383468727096994e-27
0
LINE
5
403
100
AcDbEntity
8
0
100
AcDbLine
10
39.557896908123496
20
52.408451543657755
30
-1.7013404046545431e-28
11
39.895188285794838
21
50.90845154365649
31
-4.0769755036844192e-27
0
LINE
5
404
100
AcDbEntity
8
0
100
AcDbLine
10
76.589308083888881
20
57.119203734027053
30
-1.9019435470434267e-30
11
76.717987740329676
21
57.119203734026733
31
-1.3577184436391194e-29
0
LINE
5
405
100
AcDbEntity
8
0
100
AcDbLine
10
54.801733189071911
20
40.8584515438327
30
-9.695864083204954e-28
11
52.801733189076927
21
42.858451543837717
31
6.5757194447666713e-28
0
LINE
5
406
100
AcDbEntity
8
0
100
AcDbLine
10
40.097563112396273
20
50.008451543653365
30
-2.3011918049002774e-27
11
40.142535296086692
21
49.808451543657846
31
1.590326974142989e-27
0
LINE
5
407
100
AcDbEntity
8
0
100
AcDbLine
10
39.567450457921332
20
41.42619497230902
30
5.6565683232592123e-27
11
39.00529816180017
21
43.926194972306035
31
-8.2588288682805798e-27
0
LINE
5
408
100
AcDbEntity
8
0
100
AcDbLine
10
38.94666518481376
20
44.186947162790496
30
-8.3102520402398067e-27
11
38.406998980539882
21
46.586947162793699
31
1.3799009451659936e-28
0
LINE
5
409
100
AcDbEntity
8
0
100
AcDbLine
10
39.596766946413247
20
41.295818877083462
30
-9.7764002552461617e-28
11
42.056693695737692
21
41.295818877083491
31
-1.4106682952677942e-27
0
LINE
5
410
100
AcDbEntity
8
0
100
AcDbLine
10
65.301137571109237
20
68.14299051098638
30
-6.055473924880258e-28
11
67.422457914674141
21
70.264310854540838
31
-6.6551859902767274e-28
0
CIRCLE
5
411
100
AcDbEntity
8
0
100
AcDbCircle
10
-11.199999999990684
20
46.436460394343797
30
-4.6484175609744677e-26
40
0.50000000000135114
210
-8.1990157598055196e-29
220
5.2175735890005273e-29
230
1
0
LINE
5
412
100
AcDbEntity
8
0
100
AcDbLine
10
37.741241523743881
20
49.547699353226932
30
1.4284387980933618e-26
11
37.682608546757386
21
49.808451543657846
31
3.627012760738657e-27
0
LINE
5
413
100
AcDbEntity
8
0
100
AcDbLine
10
37.039337181802161
20
52.669203734074657
30
2.6968953928539193e-27
11
37.03933718180452
21
54.319203734073511
31
2.3708046492975565e-27
0
LINE
5
414
100
AcDbEntity
8
0
100
AcDbLine
10
41.465224911127365
20
43.92619497230914
30
2.5582202852504508e-27
11
42.027377207245841
21
41.426194972309041
31
-3.4483111741202975e-27
0
ARC
5
415
100
AcDbEntity
8
0
100
AcDbCircle
10
62.082565881770471
20
34.755524924312709
30
-1.8509415488602583e-27
40
4.9999999999999991
210
-3.4411762346561901e-28
220
2.1880425327755007e-28
230
1
100
AcDbArc
50
-297.54239687641757
51
27.54239687614011
0
ARC
5
416
100
AcDbEntity
8
0
100
AcDbCircle
10
80.086747039311234
20
68.681994301201684
30
-8.4316655598030372e-28
40
5.0000000000000071
210
-2.8419059193126714e-29
220
7.6572722464392992e-29
230
1
100
AcDbArc
50
-72.542397058328433
51
72.542397058021777
0
LINE
5
417
100
AcDbEntity
8
0
100
AcDbLine
10
77.079144077581432
20
51.111600787353012
30
-2.3719446336631513e-28
11
78.493357639958006
21
52.525814349722602
31
-2.3510268611380997e-28
0
LINE
5
418
100
AcDbEntity
8
0
100
AcDbLine
10
76.393743941204121
20
57.170980429324281
30
1.9020301247581089e-30
11
76.393743941189186
21
51.067427038730969
31
-1.5932300592848823e-29
0
ARC
5
419
100
AcDbEntity
8
0
100
AcDbCircle
10
7.0499999999941387
20
52.418230197179454
30
9.7898006201044199e-27
40
0.24999999999980815
210
-5.7190469559634258e-26
220
-1.8233163308335956e-28
230
1
100
AcDbArc
50
0
51
89.999999999947079
0
LINE
5
420
100
AcDbEntity
8
0
100
AcDbLine
10
38.039337181804711
20
55.319203734073724
30
-3.7299298418850269e-27
11
65.551733189109129
21
55.319203734077085
31
-2.1425102322735868e-27
0
LINE
5
421
100
AcDbEntity
8
0
100
AcDbLine
10
37.711925035249372
20
49.678075448439252
30
5.1145067002107579e-27
11
40.171851784578593
21
49.678075448439245
31
4.6814784304710374e-27
0
LINE
5
422
100
AcDbEntity
8
0
100
AcDbLine
10
65.301733189095415
20
49.73882763893382
30
-2.323507603659653e-28
11
61.301733189094207
21
49.738827638940478
31
-2.0644502700017377e-29
0
LINE
5
423
100
AcDbEntity
8
0
100
AcDbLine
10
64.790094452377474
20
55.319203734075693
30
3.955196861563912e-28
11
64.790094452381865
21
52.919203745013412
31
4.7970582416893892e-28
0
LINE
5
424
100
AcDbEntity
8
0
100
AcDbLine
10
67.422457914604365
20
37.974096613566161
30
-3.6507405609274579e-28
11
65.301137571049907
21
40.095416957130972
31
-3.8441817094880826e-28
0
LINE
5
425
100
AcDbEntity
8
0
100
AcDbLine
10
74.354658388028966
20
63.332110381152155
30
-1.2709489103512426e-28
11
74.393764210805685
21
63.293004558375529
31
-5.542661073896059e-29
0
LINE
5
426
100
AcDbEntity
8
0
100
AcDbLine
10
-16.199999999986527
20
44.43646039434563
30
-1.2993401197737705e-26
11
-16.19999999998651
21
48.436460394341935
31
-3.2907824945045798e-26
0
ARC
5
427
100
AcDbEntity
8
0
100
AcDbCircle
10
41.796375756984354
20
50.2084514916194
30
3.0998307824947527e-27
40
0.19999994796620513
210
2.1443191219476356e-26
220
-7.0106155232116015e-29
230
1
100
AcDbArc
50
-89.999999999989811
51
0
0
ARC
5
428
100
AcDbEntity
8
0
100
AcDbCircle
10
37.972243031896056
20
40.765442781861196
30
2.6234920333071784e-27
40
0.20000000000071516
210
2.2074274196929728e-26
220
-7.0103856547552444e-29
230
1
100
AcDbArc
50
90
51
180
0
LINE
5
429
100
AcDbEntity
8
0
100
AcDbLine
10
21.799999999981871
20
42.436460394347534
30
2.6014604677243026e-26
11
15.79999999998682
21
42.436460394347506
31
5.9892140982241629e-27
0
LINE
5
430
100
AcDbEntity
8
0
100
AcDbLine
10
-8.1999999999941231
20
42.436460394346767
30
-4.6053938122785268e-26
11
-14.199999999988204
21
42.436460394347471
31
-1.3358382102239243e-26
0
LINE
5
431
100
AcDbEntity
8
0
100
AcDbLine
10
81.586747024154704
20
63.856994305228056
30
2.0263270718095698e-27
11
79.94030041472746
21
62.356994305236846
31
6.0342726862851122e-27
0
ARC
5
432
100
AcDbEntity
8
0
100
AcDbCircle
10
0.24999999999977263
20
38.904690591504441
30
-3.7706324586310722e-26
40
0.24999999999979039
210
8.0134436821349967e-26
220
-1.8233163308575446e-28
230
1
100
AcDbArc
50
180
51
269.99999999999187
0
LINE
5
433
100
AcDbEntity
8
0
100
AcDbLine
10
-14.199999999988204
20
42.436460394347471
30
-1.3358382102239243e-26
11
-16.199999999986527
21
44.43646039434563
31
-1.2993401197737705e-26
0
LINE
5
434
100
AcDbEntity
8
0
100
AcDbLine
10
23.799999999980194
20
48.436460394341985
30
3.9961315344171863e-27
11
23.799999999980173
21
44.43646039434568
31
2.3910555281725357e-26
0
LINE
5
435
100
AcDbEntity
8
0
100
AcDbLine
10
39.00529816180017
20
43.926194972306035
30
-8.2588288682805798e-27
11
38.94666518481376
21
44.186947162790496
31
-8.3102520402398067e-27
0
LINE
5
436
100
AcDbEntity
8
0
100
AcDbLine
10
-6.2250628144621878
20
46.936460394345417
30
-4.6591980789808165e-26
11
7.0499999999941743
21
46.936460394343378
31
-5.5252828400999847e-26
0
LINE
5
437
100
AcDbEntity
8
0
100
AcDbLine
10
75.301733189122132
20
61.100973536694553
30
4.2044777761280364e-28
11
75.301733189114955
21
58.119203734030208
31
3.0278149698761906e-28
0
CIRCLE
5
438
100
AcDbEntity
8
0
100
AcDbCircle
10
18.799999999984387
20
46.436460394343825
30
5.1751632685715177e-27
40
0.50000000000135092
210
-8.199015759803754e-29
220
5.2175735889999365e-29
230
1
0
ARC
5
439
100
AcDbEntity
8
0
100
AcDbCircle
10
41.796375704896278
20
50.708451543598876
30
-1.2827388476531747e-27
40
0.20000000005432561
210
6.1725757466071681e-28
220
-1.8862557865982995e-26
230
1
100
AcDbArc
50
0
51
89.999999999989811
0
ARC
5
440
100
AcDbEntity
8
0
100
AcDbCircle
10
37.972243031914125
20
40.265442781880765
30
7.0060611740952291e-27
40
0.20000000001888729
210
6.1725757489139314e-28
220
6.1916798819234764e-26
230
1
100
AcDbArc
50
180
51
270.00000000000409
0
LINE
5
441
100
AcDbEntity
8
0
100
AcDbLine
10
23.799999999980173
20
44.43646039434568
30
2.3910555281725357e-26
11
21.799999999981871
21
42.436460394347534
31
2.6014604677243026e-26
0
ARC
5
442
100
AcDbEntity
8
0
100
AcDbCircle
10
41.639337181801409
20
37.254690591504655
30
3.4489596721158816e-27
40
0.99999999999998312
210
3.898918940723749e-27
220
1.8233163309102982e-28
230
1
100
AcDbArc
50
-90.000000000004079
51
0
0
LINE
5
443
100
AcDbEntity
8
0
100
AcDbLine
10
67.609289600711264
20
38.160928299672456
30
-7.0537513187711171e-28
11
66.515910444363854
21
37.067549143330233
31
1.8053117882590705e-28
0
LINE
5
444
100
AcDbEntity
8
0
100
AcDbLine
10
79.208067367688756
20
56.427302846050964
30
4.8618598548504614e-28
11
78.308977997995598
21
55.528213476353017
31
-1.8055605712494426e-27
0
LINE
5
445
100
AcDbEntity
8
0
100
AcDbLine
10
11.299999999990478
20
55.91823019717323
30
1.3912033283437269e-26
11
11.299999999990531
21
47.186460394343044
31
1.3959249680698292e-26
0
LINE
5
446
100
AcDbEntity
8
0
100
AcDbLine
10
39.626083434907713
20
41.165442781864165
30
5.7116529773788515e-27
11
39.567450457921332
21
41.42619497230902
31
5.6565683232592123e-27
0
LINE
5
447
100
AcDbEntity
8
0
100
AcDbLine
10
72.301733189114941
20
58.119203734037555
30
8.8525597349216719e-30
11
72.301733189122345
21
61.1009735367019
31
1.2651884036026491e-28
0
LINE
5
448
100
AcDbEntity
8
0
100
AcDbLine
10
11.54999999999017
20
46.936460394343264
30
2.6282966061501062e-26
11
13.825062814455293
21
46.936460394342618
31
2.7876417028508669e-26
0
ARC
5
449
100
AcDbEntity
8
0
100
AcDbCircle
10
72.201733189122081
20
61.100973536702476
30
4.406800875261803e-28
40
3.1000000000000405
210
6.5265515846686606e-30
220
-1.140444397427926e-28
230
1
100
AcDbArc
50
0
51
44.999999999862098
0
LINE
5
450
100
AcDbEntity
8
0
100
AcDbLine
10
78.485754693291284
20
55.351436781056471
30
-3.1641061286466456e-29
11
78.485754693285244
21
52.886970686988178
31
-2.5014759415093452e-28
0
LINE
5
451
100
AcDbEntity
8
0
100
AcDbLine
10
39.497887017049401
20
52.67532713736712
30
-2.6800896086724699e-28
11
39.499263931137058
21
52.669203734077747
31
-2.2521869441538842e-28
0
LINE
5
452
100
AcDbEntity
8
0
100
AcDbLine
10
76.717987740329676
20
57.119203734026733
30
-1.3577184436391194e-29
11
76.894764435626001
21
56.942427038729548
31
3.273694309865026e-29
0
ARC
5
453
100
AcDbEntity
8
0
100
AcDbCircle
10
39.940687399001888
20
38.854690592847668
30
4.4851167454490577e-27
40
0.19999999995236908
210
-3.0376395794562128e-27
220
4.4575628060901211e-27
230
1
100
AcDbArc
50
-48.590377856067278
51
12.67279808230237
0
LINE
5
454
100
AcDbEntity
8
0
100
AcDbLine
10
78.308977997995598
20
55.528213476353017
30
-1.8055605712494426e-27
11
78.485754693291284
21
55.351436781056471
31
-3.1641061286466456e-29
0
LINE
5
455
100
AcDbEntity
8
0
100
AcDbLine
10
40.866925729867376
20
46.586947162793649
30
1.207882252857276e-28
11
41.406591934141083
21
44.186947162793672
31
2.5031356308599934e-27
0
LINE
5
456
100
AcDbEntity
8
0
100
AcDbLine
10
37.972243031896056
20
40.96544278186191
30
2.6375128046167388e-27
11
39.671055618596007
21
40.965442781862095
31
-5.3421542186950164e-29
0
LINE
5
457
100
AcDbEntity
8
0
100
AcDbLine
10
76.894764435626001
20
56.942427038729548
30
3.273694309865026e-29
11
77.793853805324147
21
57.841516408422819
31
7.7831612564414931e-28
0
ARC
5
458
100
AcDbEntity
8
0
100
AcDbCircle
10
38.03933718180447
20
54.319203734073717
30
-3.0427272294522836e-27
40
1.0000000000000053
210
5.4135318787502526e-27
220
6.8720261243144133e-28
230
1
100
AcDbArc
50
89.999999999986159
51
180
0
ARC
5
459
100
AcDbEntity
8
0
100
AcDbCircle
10
77.440300414717512
20
58.195069799012408
30
5.1213847145850016e-28
40
0.50000000000684464
210
-6.72797676953146e-28
220
8.0066420122254446e-29
230
1
100
AcDbArc
50
-44.999999998618776
51
7.8676990259385929e-05
0
LINE
5
460
100
AcDbEntity
8
0
100
AcDbLine
10
65.487969262864738
20
67.956158819230467
30
2.1330785984937412e-28
11
64.394590098186328
21
69.049537983914448
31
2.039012845882212e-28
0
LINE
5
461
100
AcDbEntity
8
0
100
AcDbLine
10
78.586747024181619
20
73.451690303528366
30
-1.2510238146797886e-27
11
78.586747024185925
21
74.997961947911861
31
8.8928644111159375e-28
0
LINE
5
462
100
AcDbEntity
8
0
100
AcDbLine
10
-66.095309408184391
20
54.418230197181934
30
2.5866017071302493e-26
11
-67.095309408184391
21
54.418230197181913
31
2.5866017071302493e-26
0
LINE
5
463
100
AcDbEntity
8
0
100
AcDbLine
10
39.567450457921346
20
2.4102654220548096
30
5.6565683232592123e-27
11
39.005298161800177
21
-0.089734577942210403
31
-8.2588288682805798e-27
0
LINE
5
464
100
AcDbEntity
8
0
100
AcDbLine
10
38.946665184813767
20
-0.35048676842666993
30
-8.3102520402398067e-27
11
38.406998980539896
21
-2.7504867684298695
31
1.3799009451659936e-28
0
LINE
5
465
100
AcDbEntity
8
0
100
AcDbLine
10
38.406998980539896
20
-2.7504867684298695
30
1.3799009451659936e-28
11
38.348366003553352
21
-3.0112389588631441
31
1.4601431289358259e-28
0
LINE
5
466
100
AcDbEntity
8
0
100
AcDbLine
10
38.348366003553352
20
-3.0112389588631441
30
1.4601431289358259e-28
11
37.741241523743888
21
-5.7112389588630963
31
1.4284387980933618e-26
0
LINE
5
467
100
AcDbEntity
8
0
100
AcDbLine
10
37.741241523743888
20
-5.7112389588630963
30
1.4284387980933618e-26
11
37.682608546757393
21
-5.9719911492940136
31
3.627012760738657e-27
0
LINE
5
468
100
AcDbEntity
8
0
100
AcDbLine
10
37.682608546757393
20
-5.9719911492940136
30
3.627012760738657e-27
11
37.097970158792727
21
-8.5719911492939325
31
-1.5293217123667755e-28
0
ARC
5
469
100
AcDbEntity
8
0
100
AcDbCircle
10
57.801733189081965
20
-1.0219911494613338
30
-2.6902429990701199e-28
40
6.000000000000103
210
1.6660861452447986e-29
220
7.6343397328470764e-29
230
1
100
AcDbArc
50
20.229704287957777
51
41.810314895892255
0
LINE
5
470
100
AcDbEntity
8
0
100
AcDbLine
10
39.557896908123503
20
-8.5719911492939218
30
-1.7013404046545431e-28
11
39.895188285794838
21
-7.0719911492926668
31
-4.0769755036844192e-27
0
LINE
5
471
100
AcDbEntity
8
0
100
AcDbLine
10
40.142535296086699
20
-5.9719911492940136
30
1.590326974142989e-27
11
40.201168273072994
21
-5.711238958863099
31
-2.6459916962349096e-27
0
LINE
5
472
100
AcDbEntity
8
0
100
AcDbLine
10
40.808292752880959
20
-3.0112389588631201
30
-2.4586513254622561e-27
11
40.866925729867383
21
-2.7504867684298251
31
1.207882252857276e-28
0
LINE
5
473
100
AcDbEntity
8
0
100
AcDbLine
10
40.866925729867383
20
-2.7504867684298251
30
1.207882252857276e-28
11
41.40659193414109
21
-0.35048676842984072
31
2.5031356308599934e-27
0
LINE
5
474
100
AcDbEntity
8
0
100
AcDbLine
10
41.40659193414109
20
-0.35048676842984072
30
2.5031356308599934e-27
11
41.465224911127372
21
-0.089734577945314031
31
2.5582202852504508e-27
0
LINE
5
475
100
AcDbEntity
8
0
100
AcDbLine
10
41.465224911127372
20
-0.089734577945314031
30
2.5582202852504508e-27
11
42.027377207245848
21
2.4102654220547866
31
-3.4483111741202975e-27
0
LINE
5
476
100
AcDbEntity
8
0
100
AcDbLine
10
42.027377207245848
20
2.4102654220547866
30
-3.4483111741202975e-27
11
42.086010184230858
21
2.6710176125027019
31
-5.01432495614744e-28
0
LINE
5
477
100
AcDbEntity
8
0
100
AcDbLine
10
65.301733189090868
20
47.858451543809792
30
-7.7215818687632696e-28
11
63.431616475476886
21
42.783743327816865
31
-5.2121327901045471e-28
0
ARC
5
478
100
AcDbEntity
8
0
100
AcDbCircle
10
57.801733189081958
20
44.858451543825161
30
-2.6902429990701199e-28
40
5.9999999999988454
210
5.1139796373937759e-29
220
4.5504500417850746e-29
230
1
100
AcDbArc
50
318.18968510410787
51
339.7702957120423
0
LINE
5
479
100
AcDbEntity
8
0
100
AcDbLine
10
62.273869144072748
20
40.858451543817068
30
-3.1571042033003532e-28
11
54.801733189071911
21
40.8584515438327
31
-9.695864083204954e-28
0
ENDSEC
0
SECTION
2
OBJECTS
0
DICTIONARY
5
C
100
AcDbDictionary
3
ACAD_GROUP
350
D
3
ACAD_MLINESTYLE
350
17
0
DICTIONARY
5
D
100
AcDbDictionary
0
DICTIONARY
5
1A
330
C
100
AcDbDictionary
0
DICTIONARY
5
17
100
AcDbDictionary
0
ENDSEC
0
EOF
