0
SECTION
2
HEADER
9
$INSUNITS
70
4
9
$ACADVER
1
AC1014
9
$HANDSEED
5
FFFF
0
ENDSEC
0
SECTION
2
TABLES
0
TABLE
2
VPORT
5
8
100
AcDbSymbolTable
0
ENDTAB
0
TABLE
2
LTYPE
5
5
100
AcDbSymbolTable
0
LTYPE
5
14
100
AcDbSymbolTableRecord
100
AcDbLinetypeTableRecord
2
BYBLOCK
70
0
0
LTYPE
5
15
100
AcDbSymbolTableRecord
100
AcDbLinetypeTableRecord
2
BYLAYER
70
0
0
ENDTAB
0
TABLE
2
LAYER
5
2
100
AcDbSymbolTable
70
2
0
LAYER
5
50
100
AcDbSymbolTableRecord
100
AcDbLayerTableRecord
2
0
70
0
6
CONTINUOUS
0
ENDTAB
0
TABLE
2
STYLE
5
3
100
AcDbSymbolTable
70
1
0
STYLE
5
11
100
AcDbSymbolTableRecord
100
AcDbTextStyleTableRecord
2
STANDARD
70
0
0
ENDTAB
0
TABLE
2
VIEW
5
6
100
AcDbSymbolTable
70
0
0
ENDTAB
0
TABLE
2
UCS
5
7
100
AcDbSymbolTable
70
0
0
ENDTAB
0
TABLE
2
APPID
5
9
100
AcDbSymbolTable
70
2
0
APPID
5
12
100
AcDbSymbolTableRecord
100
AcDbRegAppTableRecord
2
ACAD
70
0
0
ENDTAB
0
TABLE
2
DIMSTYLE
5
A
100
AcDbSymbolTable
70
1
0
ENDTAB
0
TABLE
2
BLOCK_RECORD
5
1
100
AcDbSymbolTable
70
1
0
BLOCK_RECORD
5
1F
100
AcDbSymbolTableRecord
100
AcDbBlockTableRecord
2
*MODEL_SPACE
0
BLOCK_RECORD
5
1B
100
AcDbSymbolTableRecord
100
AcDbBlockTableRecord
2
*PAPER_SPACE
0
ENDTAB
0
ENDSEC
0
SECTION
2
BLOCKS
0
BLOCK
5
20
100
AcDbEntity
100
AcDbBlockBegin
2
*MODEL_SPACE
0
ENDBLK
5
21
100
AcDbEntity
100
AcDbBlockEnd
0
BLOCK
5
1C
100
AcDbEntity
100
AcDbBlockBegin
2
*PAPER_SPACE
0
ENDBLK
5
1D
100
AcDbEntity
100
AcDbBlockEnd
0
ENDSEC
0
SECTION
2
ENTITIES
0
LINE
5
100
100
AcDbEntity
8
0
100
AcDbLine
10
-29.44847002017125
20
11.63603896916127
30
0
11
-29.448470020171257
21
4.4999999999902656
31
0
0
LWPOLYLINE
5
101
100
AcDbEntity
8
0
100
AcDbPolyline
90
8
70
1
43
0.0
10
-34.897107957462673
20
-8.5331741672689532e-12
10
-29.448470020171264
20
-8.5020879225794488e-12
42
0.99999999999999989
10
-29.448470020171275
20
0.99999999999150102
10
-58.611655694307402
20
0.99999999999263345
10
-58.611655694031661
20
-5.00000000000753
10
-29.44847002017125
20
-4.9999999999914913
42
0.99999999999999989
10
-29.448470020171257
20
-3.9999999999914948
10
-34.897107957462651
20
-3.9999999999915237
0
LINE
5
102
100
AcDbEntity
8
0
100
AcDbLine
10
-29.448470020171264
20
-8.499999999999968
30
0
11
-29.448470020217165
21
-15.636038969161259
31
0
0
LINE
5
103
100
AcDbEntity
8
0
100
AcDbLine
10
25.572591542843604
20
0
30
0
11
0
21
2.2204460492503131e-15
31
0
0
LINE
5
104
100
AcDbEntity
8
0
100
AcDbLine
10
0.42947303331264397
20
13.0622725986857
30
0
11
-0.98474052906045051
21
15.511762341468881
31
0
0
LINE
5
105
100
AcDbEntity
8
0
100
AcDbLine
10
-0.98474052906045051
20
15.511762341468881
30
0
11
-1.467703442204773
21
15.641171864020098
31
0
0
LINE
5
106
100
AcDbEntity
8
0
100
AcDbLine
10
-1.467703442204773
20
15.641171864020098
30
0
11
6.4578986501791409
21
45.219921553373212
31
2.0825927897834712e-27
0
LINE
5
107
100
AcDbEntity
8
0
100
AcDbLine
10
4.4005523184298543
20
49.132910429987
30
0
11
-4.3654809210719749
21
16.417628999327668
31
0
0
LINE
5
108
100
AcDbEntity
8
0
100
AcDbLine
10
-4.8484438342167282
20
16.547038521878964
30
0
11
-7.2979335769999096
21
15.132824959505866
31
0
0
LINE
5
109
100
AcDbEntity
8
0
100
AcDbLine
10
-20.166810331520175
20
22.902980032091634
30
-1.577721810442025e-29
11
-21.260189487841984
21
21.809600875773029
31
7.8886090522101181e-30
0
LINE
5
110
100
AcDbEntity
8
0
100
AcDbLine
10
-15.911981914441524
20
-8.5000000000553584
30
0
11
-13.43094911965097
21
-7.8352092661915451
31
0
0
LINE
5
111
100
AcDbEntity
8
0
100
AcDbLine
10
-7.2979335769997
20
-19.132824959505832
30
0
11
-4.8484438342165062
21
-20.547038521878918
31
0
0
LINE
5
112
100
AcDbEntity
8
0
100
AcDbLine
10
-4.8484438342165062
20
-20.547038521878918
30
0
11
-4.3654809210720451
21
-20.417628999327675
31
0
0
LINE
5
113
100
AcDbEntity
8
0
100
AcDbLine
10
-4.3654809210720451
20
-20.417628999327675
30
0
11
4.4005523184293276
21
-53.132910429985387
31
1.7039395552773855e-27
0
LINE
5
114
100
AcDbEntity
8
0
100
AcDbLine
10
6.4578986501778353
20
-49.219921553369296
30
0
11
-1.467703442204773
21
-19.641171864020091
31
0
0
LINE
5
115
100
AcDbEntity
8
0
100
AcDbLine
10
-0.98474052906023402
20
-19.511762341468824
30
0
11
0.4294730333128649
21
-17.062272598685635
31
0
0
LINE
5
116
100
AcDbEntity
8
0
100
AcDbLine
10
5.8286708792820718e-15
20
-3.9999999999999991
30
0
11
25.572591542843558
21
-4.0000000000000018
31
0
0
LINE
5
117
100
AcDbEntity
8
0
100
AcDbLine
10
-8.4626192799613502
20
10.78615874120471
30
0
11
-10.912109022744618
21
9.3719451788315649
31
0
0
LINE
5
118
100
AcDbEntity
8
0
100
AcDbLine
10
-10.912109022744618
20
9.3719451788315649
30
0
11
-12.20620424825961
21
4.5423160473772946
31
0
0
LINE
5
119
100
AcDbEntity
8
0
100
AcDbLine
10
-12.20620424825961
20
4.5423160473772946
30
0
11
-13.430949119639308
21
3.8352092661982882
31
0
0
LINE
5
120
100
AcDbEntity
8
0
100
AcDbLine
10
-13.430949119639308
20
3.8352092661982882
30
0
11
-15.911981914441519
21
4.4999999999855458
31
0
0
LINE
5
121
100
AcDbEntity
8
0
100
AcDbLine
10
-15.911981914441519
20
4.4999999999855458
30
0
11
-26.448470020171261
21
4.4999999999888445
31
0
0
LINE
5
122
100
AcDbEntity
8
0
100
AcDbLine
10
-26.448470020171261
20
4.4999999999888445
30
0
11
-26.448470020171261
21
11.636038969161252
31
0
0
LINE
5
123
100
AcDbEntity
8
0
100
AcDbLine
10
-25.923343754303932
20
12.903805922180647
30
0
11
-25.884237925891085
21
12.94291175059357
31
0
0
LINE
5
124
100
AcDbEntity
8
0
100
AcDbLine
10
-29.448470020171257
20
4.4999999999902656
30
0
11
-58.611655694461774
21
4.4999999999896545
31
0
0
LINE
5
125
100
AcDbEntity
8
0
100
AcDbLine
10
-58.611655693864293
20
-8.5000000000092495
30
1.7180110350592412e-30
11
-29.448470020171253
21
-8.4999999999999822
31
-5.9164567891575885e-29
0
LINE
5
126
100
AcDbEntity
8
0
100
AcDbLine
10
-13.43094911965097
20
-7.8352092661915451
30
0
11
-12.206204248259604
21
-8.5423160473772803
31
0
0
LINE
5
127
100
AcDbEntity
8
0
100
AcDbLine
10
-12.206204248259604
20
-8.5423160473772803
30
0
11
-10.912109022744616
21
-13.371945178831554
31
0
0
LINE
5
128
100
AcDbEntity
8
0
100
AcDbLine
10
-10.912109022744616
20
-13.371945178831554
30
0
11
-8.4626192799613538
21
-14.786158741204696
31
0
0
LINE
5
129
100
AcDbEntity
8
0
100
AcDbLine
10
-8.4626192799613538
20
-14.786158741204696
30
0
11
-7.2979335769997
21
-19.132824959505832
31
0
0
LINE
5
130
100
AcDbEntity
8
0
100
AcDbLine
10
0.4294730333128649
20
-17.062272598685635
30
0
11
-0.73521266964878484
21
-12.715606380384584
31
0
0
LINE
5
131
100
AcDbEntity
8
0
100
AcDbLine
10
-0.73521266964878484
20
-12.715606380384584
30
0
11
0.67900089272411202
21
-10.266116637601723
31
0
0
LINE
5
132
100
AcDbEntity
8
0
100
AcDbLine
10
0.67900089272411202
20
-10.266116637601723
30
0
11
-0.74118095489753677
21
-4.9659258262890837
31
0
0
LINE
5
133
100
AcDbEntity
8
0
100
AcDbLine
10
-0.74118095489753677
20
-4.9659258262890837
30
0
11
5.8286708792820718e-15
21
-3.9999999999999991
31
0
0
LINE
5
134
100
AcDbEntity
8
0
100
AcDbLine
10
0
20
2.2204460492503131e-15
30
0
11
-0.7411809548975401
21
0.96592582628908685
31
0
0
LINE
5
135
100
AcDbEntity
8
0
100
AcDbLine
10
-0.7411809548975401
20
0.96592582628908685
30
0
11
0.67900089272411313
21
6.266116637601737
31
0
0
LINE
5
136
100
AcDbEntity
8
0
100
AcDbLine
10
0.67900089272411313
20
6.266116637601737
30
0
11
-0.7352126696487804
21
8.7156063803846013
31
0
0
LINE
5
137
100
AcDbEntity
8
0
100
AcDbLine
10
-0.7352126696487804
20
8.7156063803846013
30
0
11
0.42947303331264397
21
13.0622725986857
31
0
0
LINE
5
138
100
AcDbEntity
8
0
100
AcDbLine
10
-7.2979335769999096
20
15.132824959505866
30
0
11
-8.4626192799613502
21
10.78615874120471
31
0
0
LINE
5
139
100
AcDbEntity
8
0
100
AcDbLine
10
-4.3654809210719749
20
16.417628999327668
30
0
11
-4.8484438342167282
21
16.547038521878964
31
0
0
LINE
5
140
100
AcDbEntity
8
0
100
AcDbLine
10
-58.611655694461774
20
4.4999999999896545
30
0
11
-58.611655694598674
21
7.4789791764630031
31
-6.9494738374129039e-31
0
LINE
5
141
100
AcDbEntity
8
0
100
AcDbLine
10
-58.611655694598674
20
7.4789791764630031
30
-6.9494738374129039e-31
11
-56.49694489324321
21
15.371187326826096
31
0
0
LINE
5
142
100
AcDbEntity
8
0
100
AcDbLine
10
-54.864219799420873
20
21.464600335410662
30
0
11
-63.55755239806026
21
23.793971784749303
31
-8.1351280850916842e-30
0
LINE
5
143
100
AcDbEntity
8
0
100
AcDbLine
10
-60.833150642287222
20
12.711208730331174
30
3.6977854932234928e-29
11
-62.111655694158223
21
7.9397629190026819
31
-2.2494861750442915e-30
0
LINE
5
144
100
AcDbEntity
8
0
100
AcDbLine
10
-62.111655694158223
20
7.9397629190026819
30
-2.2494861750442915e-30
11
-62.111655694158223
21
2.9999999999998073
31
-6.0887278872841231e-32
0
LINE
5
145
100
AcDbEntity
8
0
100
AcDbLine
10
-62.111655694158223
20
2.9999999999998073
30
-6.0887278872841231e-32
11
-67.611655694158245
21
2.9999999999998228
31
-4.3633868820037215e-29
0
LINE
5
146
100
AcDbEntity
8
0
100
AcDbLine
10
-67.611655694158245
20
2.9999999999998228
30
-4.3633868820037215e-29
11
-67.611655694158202
21
1.9999999999998286
31
-6.9327032549125367e-30
0
LINE
5
147
100
AcDbEntity
8
0
100
AcDbLine
10
-67.611655694158202
20
1.9999999999998286
30
-6.9327032549125367e-30
11
-79.611655694158273
21
1.999999999999833
31
2.5144941353919751e-29
0
LINE
5
148
100
AcDbEntity
8
0
100
AcDbLine
10
-79.611655694158273
20
1.999999999999833
30
2.5144941353919751e-29
11
-81.611655694158216
21
-1.7319479184152442e-13
31
1.31271385009434e-29
0
LINE
5
149
100
AcDbEntity
8
0
100
AcDbLine
10
-81.611655694158216
20
-1.7319479184152442e-13
30
1.31271385009434e-29
11
-81.611655694158287
21
-4.0000000000001856
31
1.9585372216454082e-30
0
LINE
5
150
100
AcDbEntity
8
0
100
AcDbLine
10
-81.611655694158287
20
-4.0000000000001856
30
1.9585372216454082e-30
11
-79.611655694158273
21
-6.0000000000001608
31
4.5606021083089745e-30
0
LINE
5
151
100
AcDbEntity
8
0
100
AcDbLine
10
-79.611655694158273
20
-6.0000000000001608
30
4.5606021083089745e-30
11
-67.611655694158245
21
-6.0000000000001918
31
-1.6763294235946501e-29
0
LINE
5
152
100
AcDbEntity
8
0
100
AcDbLine
10
-67.611655694158245
20
-6.0000000000001918
30
-1.6763294235946501e-29
11
-67.611655694158216
21
-7.0000000000001794
31
-5.2026089290954074e-30
0
LINE
5
153
100
AcDbEntity
8
0
100
AcDbLine
10
-67.611655694158216
20
-7.0000000000001794
30
-5.2026089290954074e-30
11
-62.111655694158252
21
-7.000000000000175
31
5.2262034970892032e-29
0
LINE
5
154
100
AcDbEntity
8
0
100
AcDbLine
10
-62.111655694158252
20
-7.000000000000175
30
5.2262034970892032e-29
11
-62.111655694158252
21
-11.939762920506624
31
-6.0887278891374848e-32
0
LINE
5
155
100
AcDbEntity
8
0
100
AcDbLine
10
-62.111655694158252
20
-11.939762920506624
30
-6.0887278891374848e-32
11
-60.833150642414573
21
-16.711208730365698
31
1.2325951644078309e-30
0
LINE
5
156
100
AcDbEntity
8
0
100
AcDbLine
10
-63.557552398060238
20
-27.793971784749726
30
9.6296497219361793e-31
11
-54.864219798885195
21
-25.464600335265626
31
3.1554436208840472e-29
0
LINE
5
157
100
AcDbEntity
8
0
100
AcDbLine
10
-54.864219798885195
20
-25.464600335265626
30
3.1554436208840472e-29
11
-55.746944944593423
21
-22.170225242364651
31
0
0
LINE
5
158
100
AcDbEntity
8
0
100
AcDbLine
10
-58.611655693727378
20
-11.478979177610153
30
0
11
-58.611655693864293
21
-8.5000000000092495
31
1.7180110350592412e-30
0
LINE
5
159
100
AcDbEntity
8
0
100
AcDbLine
10
-1.467703442204773
20
-19.641171864020091
30
0
11
-0.98474052906023402
21
-19.511762341468824
31
0
0
LWPOLYLINE
5
160
100
AcDbEntity
8
0
100
AcDbPolyline
90
8
70
1
43
0.0
10
-72.11165569415823
20
-1.1339745962156789
10
-73.236655609385025
20
-1.7834936001101909
42
0.57735039970652358
10
-73.236655694158287
20
-2.2165063509463057
10
-72.111655694158245
20
-2.8660254037846888
10
-72.111655694158245
20
-4.0000000000002034
10
-67.611655694158245
20
-4.0000000000001679
10
-67.61165569415823
20
-1.6431300764452317e-13
10
-72.111655694158216
20
-1.7763568394002505e-13
0
CIRCLE
5
161
100
AcDbEntity
8
0
100
AcDbCircle
10
-76.611655694158259
20
-2.0000000000001927
30
0
40
0.5
210
7.8886090522101181e-31
220
9.1713460826503384e-33
230
1
0
LINE
5
162
100
AcDbEntity
8
0
100
AcDbLine
10
-63.55755239806026
20
23.793971784749303
30
-8.1351280850916842e-30
11
-63.816371443162794
21
22.82804595846024
31
7.3185337886714962e-31
0
LINE
5
163
100
AcDbEntity
8
0
100
AcDbLine
10
-63.816371443162794
20
22.82804595846024
30
7.3185337886714962e-31
11
-75.407481358631628
21
25.933874499690496
31
-7.9379128587864313e-29
0
LINE
5
164
100
AcDbEntity
8
0
100
AcDbLine
10
-75.407481358631628
20
25.933874499690496
30
-7.9379128587864313e-29
11
-77.856971101414757
21
24.51966093731739
31
-2.471353304637701e-29
0
LINE
5
165
100
AcDbEntity
8
0
100
AcDbLine
10
-77.856971101414757
20
24.51966093731739
30
-2.471353304637701e-29
11
-78.892247281824893
21
20.655957632161108
31
2.9274135154685985e-30
0
LINE
5
166
100
AcDbEntity
8
0
100
AcDbLine
10
-78.892247281824893
20
20.655957632161108
30
2.9274135154685985e-30
11
-77.478033719451787
21
18.206467889377947
31
6.9025329206838533e-30
0
LINE
5
167
100
AcDbEntity
8
0
100
AcDbLine
10
-77.478033719451787
20
18.206467889377947
30
6.9025329206838533e-30
11
-65.886923803982981
21
15.100639348147693
31
8.283039504820624e-29
0
LINE
5
168
100
AcDbEntity
8
0
100
AcDbLine
10
-65.886923803982981
20
15.100639348147693
30
8.283039504820624e-29
11
-66.14574284908548
21
14.134713521858622
31
-4.4527500314232893e-30
0
LINE
5
169
100
AcDbEntity
8
0
100
AcDbLine
10
-66.14574284908548
20
14.134713521858622
30
-4.4527500314232893e-30
11
-60.833150642287222
21
12.711208730331174
31
3.6977854932234928e-29
0
LINE
5
170
100
AcDbEntity
8
0
100
AcDbLine
10
-60.833150642414573
20
-16.711208730365698
30
1.2325951644078309e-30
11
-66.145742849085437
21
-18.134713521859034
31
1.1463135028992828e-29
0
LINE
5
171
100
AcDbEntity
8
0
100
AcDbLine
10
-66.145742849085437
20
-18.134713521859034
30
1.1463135028992828e-29
11
-65.886923803982924
21
-19.100639348148093
31
4.4219351523130935e-30
0
LINE
5
172
100
AcDbEntity
8
0
100
AcDbLine
10
-65.886923803982924
20
-19.100639348148093
30
4.4219351523130935e-30
11
-77.478033719451773
21
-22.206467889378359
31
-7.5927862127522386e-29
0
LINE
5
173
100
AcDbEntity
8
0
100
AcDbLine
10
-77.478033719451773
20
-22.206467889378359
30
-7.5927862127522386e-29
11
-78.892247281824822
21
-24.655957632161524
31
1.4205659269800252e-29
0
LINE
5
174
100
AcDbEntity
8
0
100
AcDbLine
10
-78.892247281824822
20
-24.655957632161524
30
1.4205659269800252e-29
11
-77.856971101414786
21
-28.51966093731782
31
1.4236474148910447e-29
0
LINE
5
175
100
AcDbEntity
8
0
100
AcDbLine
10
-77.856971101414786
20
-28.51966093731782
30
1.4236474148910447e-29
11
-75.407481358631586
21
-29.933874499690884
31
1.4298103907130839e-29
0
LINE
5
176
100
AcDbEntity
8
0
100
AcDbLine
10
-75.407481358631586
20
-29.933874499690884
30
1.4298103907130839e-29
11
-63.816371443162765
21
-26.828045958460663
31
8.085824278515371e-29
0
LINE
5
177
100
AcDbEntity
8
0
100
AcDbLine
10
-63.816371443162765
20
-26.828045958460663
30
8.085824278515371e-29
11
-63.557552398060238
21
-27.793971784749726
31
9.6296497219361793e-31
0
CIRCLE
5
178
100
AcDbEntity
8
0
100
AcDbCircle
10
-73.544980060174453
20
-25.293714059227032
30
0
40
0.50000000000000022
210
6.5989500859874212e-31
220
5.8516278705938646e-31
230
1
0
LWPOLYLINE
5
179
100
AcDbEntity
8
0
100
AcDbPolyline
90
8
70
1
43
0.0
10
-69.422457709915676
20
-23.292512052527833
10
-70.341016294242323
20
-24.211070636854512
42
0.57735039970644331
10
-70.2289444294384
20
-24.629328857940539
10
-68.974169973831607
20
-24.965544660003577
10
-68.680675751668559
20
-26.060880008843842
10
-64.334009533367777
20
-24.896194305882492
10
-65.369285713777884
20
-21.032491000726218
10
-69.71595193207871
20
-22.197176703687575
0
LWPOLYLINE
5
180
100
AcDbEntity
8
0
100
AcDbPolyline
90
8
70
1
43
0.0
10
-68.97416997383165
20
20.965544660003165
10
-70.228944334886123
20
20.629328883275313
42
0.5773503997065601
10
-70.341016363459417
20
20.211070706071173
10
-69.42245770991569
20
19.292512052527449
10
-69.715951932078724
20
18.197176703687159
10
-65.369285713777913
20
17.032491000725834
10
-64.334009533367833
20
20.896194305882116
10
-68.680675751668645
20
22.060880008843476
0
CIRCLE
5
181
100
AcDbEntity
8
0
100
AcDbCircle
10
-73.544980060174467
20
21.293714059226666
30
0
40
0.50000000000000022
210
1.5239622434054966e-30
220
-4.0834445241602408e-31
230
1
0
LINE
5
182
100
AcDbEntity
8
0
100
AcDbLine
10
-56.49694489324321
20
15.371187326826096
30
0
11
-55.461655694163056
21
15.093782268494408
31
0
0
LINE
5
183
100
AcDbEntity
8
0
100
AcDbLine
10
-39.535024409516943
20
17.999999999248217
30
6.3108872417680821e-29
11
-41.081295007576074
21
17.999999999247951
31
-1.5777218104420236e-29
0
LINE
5
184
100
AcDbEntity
8
0
100
AcDbLine
10
-55.746944944593409
20
18.170225240860802
30
0
11
-54.864219799420873
21
21.464600335410662
31
0
0
LINE
5
185
100
AcDbEntity
8
0
100
AcDbLine
10
-55.746944944593423
20
-22.170225242364651
30
0
11
-55.461655694163035
21
-22.093782218102596
31
-9.8607613152626476e-31
0
LINE
5
186
100
AcDbEntity
8
0
100
AcDbLine
10
-39.535024409535339
20
-19.00000000075152
30
1.5777218104420253e-29
11
-41.081296041221037
21
-19.000000000751761
31
0
0
LINE
5
187
100
AcDbEntity
8
0
100
AcDbLine
10
-56.496944944593551
20
-19.371187136688008
30
-3.944304526105059e-30
11
-58.611655693727378
21
-11.478979177610153
31
0
0
ARC
5
188
100
AcDbEntity
8
0
100
AcDbCircle
10
-23.572213706838831
20
17.376256313168838
30
0
40
4.9999999999999885
210
5.9528921472217219e-46
220
-3.1044802910125574e-46
230
1
100
AcDbArc
50
-117.54239687658898
51
27.542396876684471
0
LINE
5
189
100
AcDbEntity
8
0
100
AcDbLine
10
-19.138869144267407
20
19.688280532228486
30
0
11
-18.045489987964029
21
20.781659688528627
31
3.944304526105059e-30
0
ARC
5
190
100
AcDbEntity
8
0
100
AcDbCircle
10
-15.733465768928616
20
25.215004251112685
30
6.9517541003613972e-45
40
4.9999999999999947
210
4.4567911417792058e-30
220
-1.4345612986065703e-30
230
1
100
AcDbArc
50
-117.54239687637128
51
207.54239687618559
0
ARC
5
191
100
AcDbEntity
8
0
100
AcDbCircle
10
-23.572213706838831
20
17.376256313168838
30
0
40
5.0000000000000124
210
-7.2954620731166754e-31
220
-1.3989168819274453e-30
230
1
100
AcDbArc
50
62.457603124127239
51
207.54239687596692
0
ARC
5
192
100
AcDbEntity
8
0
100
AcDbCircle
10
-45.850992048304221
20
16.500003286028438
30
1.2261361562842149e-44
40
4.9999999999999689
210
2.7677085204758308e-30
220
1.7173913611163111e-30
230
1
100
AcDbArc
50
197.45764260604372
51
342.54235739395665
0
LINE
5
193
100
AcDbEntity
8
0
100
AcDbLine
10
-41.08129707486539
20
14.999999999247962
30
1.5777218104420225e-29
11
-39.535024409517128
21
14.999999999248196
31
2.3665827156630354e-29
0
ARC
5
194
100
AcDbEntity
8
0
100
AcDbCircle
10
-34.765328402432317
20
16.499999999247922
30
-8.1012567468778487e-45
40
4.9999999999999973
210
9.3079408301787183e-31
220
1.2817481556963575e-29
230
1
100
AcDbArc
50
-162.54239687628123
51
162.54239687627435
0
ARC
5
195
100
AcDbEntity
8
0
100
AcDbCircle
10
-45.850992048304221
20
16.500003286028438
30
1.2261361562842149e-44
40
5.0000000000000178
210
2.938919510398381e-30
220
1.1729775120363174e-30
230
1
100
AcDbArc
50
17.457563641409219
51
162.54243635859044
0
LINE
5
196
100
AcDbEntity
8
0
100
AcDbLine
10
-50.620689089032346
20
17.999999999247976
30
1.5777218104420222e-29
11
-55.043823871233172
21
17.99999999924794
31
0
0
ARC
5
197
100
AcDbEntity
8
0
100
AcDbCircle
10
-45.850992048305805
20
-20.500000000751552
30
4.2038953929744512e-44
40
5.00000000000004
210
1.4433896906202962e-30
220
5.9284587069333555e-30
230
1
100
AcDbArc
50
197.45760312372465
51
342.54239687627523
0
LINE
5
198
100
AcDbEntity
8
0
100
AcDbLine
10
-41.081296041221137
20
-22.000000000751779
30
-1.1044052673094172e-28
11
-39.535024409535389
21
-22.000000000751548
31
0
0
ARC
5
199
100
AcDbEntity
8
0
100
AcDbCircle
10
-34.765328402450635
20
-20.500000000751619
30
6.0759425601583865e-45
40
5.0000000000000018
210
-2.6634883069896147e-30
220
8.4693530285106003e-30
230
1
100
AcDbArc
50
-162.54239687627879
51
162.54239687627674
0
ARC
5
200
100
AcDbEntity
8
0
100
AcDbCircle
10
-45.850992048305805
20
-20.500000000751552
30
4.2038953929744512e-44
40
4.9999999999999787
210
-1.4980560452812423e-30
220
4.7635146250454569e-30
230
1
100
AcDbArc
50
17.457603123719654
51
162.54239687628024
0
LINE
5
201
100
AcDbEntity
8
0
100
AcDbLine
10
-50.620688055390595
20
-19.000000000751744
30
1.5777218104420261e-29
11
-55.043823871235269
21
-19.000000000751779
31
-3.1554436208840472e-29
0
ARC
5
202
100
AcDbEntity
8
0
100
AcDbCircle
10
-15.733465768910103
20
-29.215004251131198
30
0
40
5.0000000000000009
210
4.849408914154033e-32
220
9.2988215540617437e-32
230
1
100
AcDbArc
50
-207.54239687618792
51
117.54239687637106
0
ARC
5
203
100
AcDbEntity
8
0
100
AcDbCircle
10
-23.572213706870716
20
-21.376256313201093
30
0
40
5
210
-1.0388230359525422e-42
220
-1.9919603004542333e-42
230
1
100
AcDbArc
50
152.45760312403669
51
297.54239687640506
0
LINE
5
204
100
AcDbEntity
8
0
100
AcDbLine
10
-55.461655694163056
20
15.093782268494408
30
0
11
-55.043823871233137
21
14.999999999247944
31
0
0
LINE
5
205
100
AcDbEntity
8
0
100
AcDbLine
10
-55.043823871233137
20
14.999999999247944
30
0
11
-50.620687021743024
21
14.999999999247935
31
1.5777218104420236e-29
0
LINE
5
206
100
AcDbEntity
8
0
100
AcDbLine
10
-55.043823871233172
20
17.99999999924794
30
0
11
-55.461655694163071
21
18.093782216598761
31
0
0
LINE
5
207
100
AcDbEntity
8
0
100
AcDbLine
10
-55.461655694163071
20
18.093782216598761
30
0
11
-55.746944944593409
21
18.170225240860802
31
9.8607613152626476e-31
0
LINE
5
208
100
AcDbEntity
8
0
100
AcDbLine
10
-55.461655694163035
20
-22.093782218102596
30
-9.8607613152626476e-31
11
-55.043823871235276
21
-22.000000000751783
31
0
0
LINE
5
209
100
AcDbEntity
8
0
100
AcDbLine
10
-55.043823871235276
20
-22.000000000751783
30
0
11
-50.620688055390502
21
-22.000000000751776
31
1.5777218104420236e-29
0
LINE
5
210
100
AcDbEntity
8
0
100
AcDbLine
10
-55.043823871235269
20
-19.000000000751779
30
-3.1554436208840472e-29
11
-55.461655694163056
21
-19.093782218102625
31
1.9721522630525295e-30
0
LINE
5
211
100
AcDbEntity
8
0
100
AcDbLine
10
-55.461655694163056
20
-19.093782218102625
30
1.9721522630525295e-30
11
-56.496944944593551
21
-19.371187136688008
31
-3.944304526105059e-30
0
ARC
5
212
100
AcDbEntity
8
0
100
AcDbCircle
10
-24.655576801278688
20
11.636038969161266
30
0
40
1.7928932188925684
210
0
220
0
230
1
100
AcDbArc
50
135.0000000001325
51
180
0
LINE
5
213
100
AcDbEntity
8
0
100
AcDbLine
10
-28.005558269439209
20
15.064232094164712
30
-1.5777218104420236e-29
11
-28.044664097863659
21
15.025126265740202
31
0
0
ARC
5
214
100
AcDbEntity
8
0
100
AcDbCircle
10
-24.655576801278688
20
11.636038969161266
30
0
40
4.7928932188925657
210
-1.5777218104392231e-30
220
-1.5777218104420338e-30
230
1
100
AcDbArc
50
135.00000000005105
51
180
0
ARC
5
215
100
AcDbEntity
8
0
100
AcDbCircle
10
-24.655576801278674
20
-15.63603896916127
30
0
40
4.7928932189384899
210
0
220
0
230
1
100
AcDbArc
50
180
51
224.99999999994853
0
LINE
5
216
100
AcDbEntity
8
0
100
AcDbLine
10
-28.044664097896131
20
-19.025126265772641
30
0
11
-28.005558269471244
21
-19.064232094197244
31
0
0
LINE
5
217
100
AcDbEntity
8
0
100
AcDbLine
10
-21.260189487832687
20
-25.809600875783794
30
0
11
-20.166810331501566
21
-26.902980032109973
31
0
0
LINE
5
218
100
AcDbEntity
8
0
100
AcDbLine
10
-18.045489987945498
20
-24.781659688547126
30
0
11
-19.138869144277031
21
-23.68828053221803
31
-3.944304526105059e-30
0
ARC
5
219
100
AcDbEntity
8
0
100
AcDbCircle
10
-23.572213706870716
20
-21.376256313201093
30
0
40
4.9999999999999876
210
6.9945844096086461e-31
220
-3.6477310366132222e-31
230
1
100
AcDbArc
50
-27.542396876132564
51
117.54239687611928
0
LINE
5
220
100
AcDbEntity
8
0
100
AcDbLine
10
-25.884237925886634
20
-16.942911750606857
30
0
11
-25.92334375430838
21
-16.903805922185096
31
0
0
ARC
5
221
100
AcDbEntity
8
0
100
AcDbCircle
10
-24.655576801278674
20
-15.63603896916127
30
0
40
1.79289321889887
210
-1.1156177909868875e-30
220
1.1156177909920688e-30
230
1
100
AcDbArc
50
180
51
224.99999999986713
0
LINE
5
222
100
AcDbEntity
8
0
100
AcDbLine
10
-26.448470020177545
20
-15.636038969161239
30
-2.0001835723433618e-30
11
-26.448470020171865
21
-8.4999999999876579
31
0
0
LINE
5
223
100
AcDbEntity
8
0
100
AcDbLine
10
-26.448470020171865
20
-8.4999999999876579
30
0
11
-15.911981914441524
21
-8.5000000000553584
31
0
0
CIRCLE
5
224
100
AcDbEntity
8
0
100
AcDbCircle
10
-4.2106874071509823
20
-15.19977130022852
30
0
40
0.50000000000000056
210
0
220
0
230
1
0
CIRCLE
5
225
100
AcDbEntity
8
0
100
AcDbCircle
10
-4.2106874071512044
20
11.19977130022858
30
0
40
0.50000000000000056
210
0
220
0
230
1
0
LINE
5
226
100
AcDbEntity
8
0
100
AcDbLine
10
54.572591542843483
20
46.481858196334741
30
0
11
54.572591542843497
21
47.881858196335912
31
1.5313461093021624e-30
0
LINE
5
227
100
AcDbEntity
8
0
100
AcDbLine
10
54.572591542843497
20
47.881858196335912
30
1.5313461093021624e-30
11
51.572591542843476
21
47.881858196335934
31
0
0
LINE
5
228
100
AcDbEntity
8
0
100
AcDbLine
10
51.572591542843476
20
47.881858196335934
30
0
11
51.572591542843476
21
46.481858196334834
31
-1.1826551142480839e-40
0
LINE
5
229
100
AcDbEntity
8
0
100
AcDbLine
10
51.572591542843476
20
46.481858196334834
30
-1.1826551142480839e-40
11
49.072591542844137
21
46.481858196334926
31
0
0
LINE
5
230
100
AcDbEntity
8
0
100
AcDbLine
10
49.072591542844137
20
46.481858196334926
30
0
11
49.072591542843902
21
39.981858196334926
31
7.5166554735096834e-30
0
LINE
5
231
100
AcDbEntity
8
0
100
AcDbLine
10
49.072591542843902
20
39.981858196334926
30
7.5166554735096834e-30
11
51.072591542843846
21
37.981858196334848
31
0
0
LINE
5
232
100
AcDbEntity
8
0
100
AcDbLine
10
51.072591542843846
20
37.981858196334848
30
0
11
51.572591542843469
21
37.981858196334841
31
0
0
LINE
5
233
100
AcDbEntity
8
0
100
AcDbLine
10
51.572591542843469
20
37.981858196334841
30
0
11
51.572591542843476
21
3.0000000000000249
31
1.7308564214393116e-29
0
LINE
5
234
100
AcDbEntity
8
0
100
AcDbLine
10
51.572591542843476
20
3.0000000000000249
30
1.7308564214393116e-29
11
27.57259154284317
21
2.9999999999995874
31
0
0
LINE
5
235
100
AcDbEntity
8
0
100
AcDbLine
10
27.57259154284317
20
2.9999999999995874
30
0
11
25.572591542843615
21
1.0000000000000786
31
-1.5777218104420236e-29
0
LINE
5
236
100
AcDbEntity
8
0
100
AcDbLine
10
25.572591542843615
20
1.0000000000000786
30
-1.5777218104420236e-29
11
25.572591542843604
21
0
31
0
0
LINE
5
237
100
AcDbEntity
8
0
100
AcDbLine
10
6.4578986501791409
20
45.219921553373212
30
2.0825927897834712e-27
11
33.786228635628213
21
48.817764450849246
31
2.0194839173657902e-27
0
LINE
5
238
100
AcDbEntity
8
0
100
AcDbLine
10
33.786228635628213
20
48.817764450849246
30
2.0194839173657902e-27
11
34.243070308398565
21
45.347707436039499
31
-2.3665827156630354e-28
0
LINE
5
239
100
AcDbEntity
8
0
100
AcDbLine
10
34.243070308398565
20
45.347707436039499
30
-2.3665827156630354e-28
11
42.174629199389088
21
46.391916973799745
31
4.1020767071492614e-28
0
LINE
5
240
100
AcDbEntity
8
0
100
AcDbLine
10
42.174629199389088
20
46.391916973799745
30
4.1020767071492614e-28
11
42.04410300716907
21
47.383361835173545
31
1.203012880462043e-28
0
LINE
5
241
100
AcDbEntity
8
0
100
AcDbLine
10
42.04410300716907
20
47.383361835173545
30
1.203012880462043e-28
11
53.941441343654844
21
48.94967614181391
31
6.3108872417680944e-28
0
LINE
5
242
100
AcDbEntity
8
0
100
AcDbLine
10
53.941441343654844
20
48.94967614181391
30
6.3108872417680944e-28
11
55.66327868196241
21
51.193618249001609
31
1.2621774483536189e-28
0
LINE
5
243
100
AcDbEntity
8
0
100
AcDbLine
10
55.66327868196241
20
51.193618249001609
30
1.2621774483536189e-28
11
55.141173913082291
21
55.159397694496889
31
-1.2818989709841442e-28
0
LINE
5
244
100
AcDbEntity
8
0
100
AcDbLine
10
55.141173913082291
20
55.159397694496889
30
-1.2818989709841442e-28
11
52.897231805894606
21
56.88123503280444
31
-2.5243548967072378e-28
0
LINE
5
245
100
AcDbEntity
8
0
100
AcDbLine
10
52.897231805894606
20
56.88123503280444
30
-2.5243548967072378e-28
11
40.999893469408804
21
55.314920726164061
31
-1.8932661725304283e-28
0
LINE
5
246
100
AcDbEntity
8
0
100
AcDbLine
10
40.999893469408804
20
55.314920726164061
30
-1.8932661725304283e-28
11
40.869367277188772
21
56.30636558753789
31
8.5295585377021901e-29
0
LINE
5
247
100
AcDbEntity
8
0
100
AcDbLine
10
40.869367277188772
20
56.30636558753789
30
8.5295585377021901e-29
11
32.93780838619827
21
55.262156049777637
31
-9.7818752247405464e-28
0
LINE
5
248
100
AcDbEntity
8
0
100
AcDbLine
10
32.93780838619827
20
55.262156049777637
30
-9.7818752247405464e-28
11
33.394650058968509
21
51.792099034968011
31
6.8236468301617521e-28
0
LINE
5
249
100
AcDbEntity
8
0
100
AcDbLine
10
33.394650058968509
20
51.792099034968011
30
6.8236468301617521e-28
11
7.2983297972967121
21
48.356453294679412
31
1.135959703518257e-27
0
LINE
5
250
100
AcDbEntity
8
0
100
AcDbLine
10
7.2983297972967121
20
48.356453294679412
30
1.135959703518257e-27
11
4.4005523184298543
21
49.132910429987
31
0
0
LINE
5
251
100
AcDbEntity
8
0
100
AcDbLine
10
4.4005523184293276
20
-53.132910429985387
30
1.7039395552773855e-27
11
7.298329797296244
21
-52.356453294678019
31
0
0
LINE
5
252
100
AcDbEntity
8
0
100
AcDbLine
10
7.298329797296244
20
-52.356453294678019
30
0
11
33.394650058966732
21
-55.792099034968324
31
1.3883951931889808e-27
0
LINE
5
253
100
AcDbEntity
8
0
100
AcDbLine
10
33.394650058966732
20
-55.792099034968324
30
1.3883951931889808e-27
11
32.937808386195904
21
-59.262156049777126
31
8.1647103690374722e-28
0
LINE
5
254
100
AcDbEntity
8
0
100
AcDbLine
10
32.937808386195904
20
-59.262156049777126
30
8.1647103690374722e-28
11
40.869367277186299
21
-60.306365587538281
31
-4.7331654313260708e-28
0
LINE
5
255
100
AcDbEntity
8
0
100
AcDbLine
10
40.869367277186299
20
-60.306365587538281
30
-4.7331654313260708e-28
11
40.999893469406452
21
-59.314920726164495
31
-1.1290571705975731e-28
0
LINE
5
256
100
AcDbEntity
8
0
100
AcDbLine
10
40.999893469406452
20
-59.314920726164495
30
-1.1290571705975731e-28
11
52.897231805892055
21
-60.881235032806217
31
1.3252863207712998e-27
0
LINE
5
257
100
AcDbEntity
8
0
100
AcDbLine
10
52.897231805892055
20
-60.881235032806217
30
1.3252863207712998e-27
11
55.141173913079925
21
-59.159397694498914
31
3.6287601640166543e-28
0
LINE
5
258
100
AcDbEntity
8
0
100
AcDbLine
10
55.141173913079925
20
-59.159397694498914
30
3.6287601640166543e-28
11
55.663278681960513
21
-55.193618249003727
31
1.7749370367472766e-29
0
LINE
5
259
100
AcDbEntity
8
0
100
AcDbLine
10
55.663278681960513
20
-55.193618249003727
30
1.7749370367472766e-29
11
53.941441343653182
21
-52.949676141815836
31
-1.8143800820083272e-28
0
LINE
5
260
100
AcDbEntity
8
0
100
AcDbLine
10
53.941441343653182
20
-52.949676141815836
30
-1.8143800820083272e-28
11
42.0441030071676
21
-51.383361835174092
31
-2.0194839173657902e-27
0
LINE
5
261
100
AcDbEntity
8
0
100
AcDbLine
10
42.0441030071676
20
-51.383361835174092
30
-2.0194839173657902e-27
11
42.174629199387738
21
-50.391916973800292
31
-1.4741838166317658e-28
0
LINE
5
262
100
AcDbEntity
8
0
100
AcDbLine
10
42.174629199387738
20
-50.391916973800292
30
-1.4741838166317658e-28
11
34.243070308397343
21
-49.34770743603913
31
2.2088105346188331e-28
0
LINE
5
263
100
AcDbEntity
8
0
100
AcDbLine
10
34.243070308397343
20
-49.34770743603913
30
2.2088105346188331e-28
11
33.786228635626983
21
-52.817764450846774
31
5.8967352665270632e-28
0
LINE
5
264
100
AcDbEntity
8
0
100
AcDbLine
10
33.786228635626983
20
-52.817764450846774
30
5.8967352665270632e-28
11
6.4578986501778353
21
-49.219921553369296
31
0
0
LINE
5
265
100
AcDbEntity
8
0
100
AcDbLine
10
25.572591542843558
20
-4.0000000000000018
30
0
11
25.572591542843533
21
-4.9999999999999218
31
4.0602437792348315e-30
0
LINE
5
266
100
AcDbEntity
8
0
100
AcDbLine
10
25.572591542843533
20
-4.9999999999999218
30
4.0602437792348315e-30
11
27.572591542843998
21
-7.0000000000004325
31
7.8886090522101181e-30
0
LINE
5
267
100
AcDbEntity
8
0
100
AcDbLine
10
27.572591542843998
20
-7.0000000000004325
30
7.8886090522101181e-30
11
51.572591542843483
21
-6.9999999999999822
31
0
0
LINE
5
268
100
AcDbEntity
8
0
100
AcDbLine
10
51.572591542843483
20
-6.9999999999999822
30
0
11
51.572591542843497
21
-41.981858196334869
31
3.461712842647224e-29
0
LINE
5
269
100
AcDbEntity
8
0
100
AcDbLine
10
51.572591542843497
20
-41.981858196334869
30
3.461712842647224e-29
11
51.072591542843867
21
-41.981858196334883
31
-7.8886090522101181e-30
0
LINE
5
270
100
AcDbEntity
8
0
100
AcDbLine
10
51.072591542843867
20
-41.981858196334883
30
-7.8886090522101181e-30
11
49.072591542843938
21
-43.981858196334962
31
0
0
LINE
5
271
100
AcDbEntity
8
0
100
AcDbLine
10
49.072591542843938
20
-43.981858196334962
30
0
11
49.072591542844172
21
-50.481858196334954
31
3.7195357866814872e-31
0
LINE
5
272
100
AcDbEntity
8
0
100
AcDbLine
10
49.072591542844172
20
-50.481858196334954
30
3.7195357866814872e-31
11
51.572591542843512
21
-50.481858196334869
31
-1.5777218104420236e-29
0
LINE
5
273
100
AcDbEntity
8
0
100
AcDbLine
10
51.572591542843512
20
-50.481858196334869
30
-1.5777218104420236e-29
11
51.572591542843504
21
-51.881858196335926
31
-1.5313461092554992e-30
0
LINE
5
274
100
AcDbEntity
8
0
100
AcDbLine
10
51.572591542843504
20
-51.881858196335926
30
-1.5313461092554992e-30
11
54.572591542843512
21
-51.881858196335926
31
0
0
LINE
5
275
100
AcDbEntity
8
0
100
AcDbLine
10
54.572591542843512
20
-51.881858196335926
30
0
11
54.572591542843519
21
-50.48185819633477
31
1.5313461091278689e-30
0
LINE
5
276
100
AcDbEntity
8
0
100
AcDbLine
10
54.572591542843519
20
-50.48185819633477
30
1.5313461091278689e-30
11
57.072591542844165
21
-50.481858196334677
31
0
0
LINE
5
277
100
AcDbEntity
8
0
100
AcDbLine
10
57.072591542844165
20
-50.481858196334677
30
0
11
57.072591542843938
21
-43.981858196334677
31
-3.7195357866814872e-31
0
LINE
5
278
100
AcDbEntity
8
0
100
AcDbLine
10
57.072591542843938
20
-43.981858196334677
30
-3.7195357866814872e-31
11
55.072591542843874
21
-41.981858196334741
31
0
0
LINE
5
279
100
AcDbEntity
8
0
100
AcDbLine
10
55.072591542843874
20
-41.981858196334741
30
0
11
54.572591542843504
21
-41.98185819633477
31
0
0
LINE
5
280
100
AcDbEntity
8
0
100
AcDbLine
10
54.572591542843504
20
-41.98185819633477
30
0
11
54.572591542843476
21
37.981858196334741
31
1.118317977689025e-29
0
LINE
5
281
100
AcDbEntity
8
0
100
AcDbLine
10
54.572591542843476
20
37.981858196334741
30
1.118317977689025e-29
11
55.072591542843838
21
37.981858196334727
31
0
0
LINE
5
282
100
AcDbEntity
8
0
100
AcDbLine
10
55.072591542843838
20
37.981858196334727
30
0
11
57.072591542843909
21
39.981858196334656
31
0
0
LINE
5
283
100
AcDbEntity
8
0
100
AcDbLine
10
57.072591542843909
20
39.981858196334656
30
0
11
57.072591542844137
21
46.481858196334656
31
6.7292165216921879e-30
0
LINE
5
284
100
AcDbEntity
8
0
100
AcDbLine
10
57.072591542844137
20
46.481858196334656
30
6.7292165216921879e-30
11
54.572591542843483
21
46.481858196334741
31
0
0
LWPOLYLINE
5
285
100
AcDbEntity
8
0
100
AcDbPolyline
90
8
70
1
43
0.0
10
47.070615833936216
20
52.298005221006825
42
-0.57735039970656998
10
47.127135255437565
20
51.868696943215902
10
46.096539112792918
20
51.07789270925764
10
46.244552498911169
20
49.953619422911316
10
41.783050622728993
20
49.366251557921181
10
41.260945853848881
20
53.332031003416446
10
45.72244773003105
20
53.919398868406631
10
45.870461116149301
20
52.79512558206028
0
CIRCLE
5
286
100
AcDbEntity
8
0
100
AcDbCircle
10
50.445001990653267
20
52.523877010649102
30
0
40
0.49999999999999856
210
-2.3874220727174607e-28
220
2.9006062565732953e-29
230
1
0
CIRCLE
5
287
100
AcDbEntity
8
0
100
AcDbCircle
10
50.445001990651221
20
-56.523877010650587
30
0
40
0.49999999999999856
210
1.2494919259081873e-28
220
-2.2312355819801131e-29
230
1
0
LWPOLYLINE
5
288
100
AcDbEntity
8
0
100
AcDbPolyline
90
8
70
1
43
0.0
10
47.127135333095147
20
-55.868697002807266
42
-0.57735039970657653
10
47.070615743497733
20
-56.298005258467953
10
45.870461116147212
20
-56.795125582061246
10
45.722447730028797
20
-57.919398868407796
10
41.260945853846707
20
-57.332031003417143
10
41.783050622727274
20
-53.36625155792192
10
46.244552498909371
20
-53.953619422912581
10
46.096539112791028
20
-55.077892709258649
0
LINE
5
289
100
AcDbEntity
8
0
100
AcDbLine
10
-55.252739782698114
20
18.046891107923326
30
0
11
-55.2527397826981
21
15.046891133871176
31
1.5313461092362734e-30
0
LINE
5
290
100
AcDbEntity
8
0
100
AcDbLine
10
-40.817076136837827
20
17.999999999248274
30
0
11
-40.817076136837841
21
14.999999999247986
31
-1.0446382385569325e-31
0
LINE
5
291
100
AcDbEntity
8
0
100
AcDbLine
10
-39.799244313901923
20
17.999999999248178
30
0
11
-39.799244313901916
21
14.999999999247644
31
-7.1229359976578984e-30
0
LINE
5
292
100
AcDbEntity
8
0
100
AcDbLine
10
-18.952037458168171
20
19.875112218327374
30
0
11
-21.073357801724359
21
21.996432561890344
31
0
0
LINE
5
293
100
AcDbEntity
8
0
100
AcDbLine
10
-18.232321674072725
20
20.594828002420591
30
0
11
-20.353642017628907
21
22.716148345983534
31
0
0
LINE
5
294
100
AcDbEntity
8
0
100
AcDbLine
10
-29.787700504712546
20
-3.9999999999914815
30
0
11
-29.7877005047126
21
-8.4998674765301985e-12
31
0
0
LINE
5
295
100
AcDbEntity
8
0
100
AcDbLine
10
-39.799244313912133
20
-19.000000000751527
30
0
11
-39.799244313912141
21
-22.00000000075174
31
-7.6567305456938552e-31
0
LINE
5
296
100
AcDbEntity
8
0
100
AcDbLine
10
-40.817076136839717
20
-19.000000000751442
30
0
11
-40.817076136839731
21
-22.000000000751747
31
-1.5313461091782596e-30
0
LINE
5
297
100
AcDbEntity
8
0
100
AcDbLine
10
-20.353642017614565
20
-26.716148345997595
30
0
11
-18.232321674058397
21
-24.594828002434632
31
0
0
LINE
5
298
100
AcDbEntity
8
0
100
AcDbLine
10
-21.073357801719354
20
-25.996432561895162
30
0
11
-18.952037458163183
21
-23.875112218332202
31
0
0
LINE
5
299
100
AcDbEntity
8
0
100
AcDbLine
10
-55.252739782699194
20
-19.046891109427207
30
0
11
-55.252739782699194
21
-22.046891109427207
31
1.6028697078460301e-41
0
LINE
5
300
100
AcDbEntity
8
0
100
AcDbLine
10
-1.3748091687275461
20
-19.987858012369273
30
0
11
-4.27258664759478
21
-20.764315147676854
31
0
0
LINE
5
301
100
AcDbEntity
8
0
100
AcDbLine
10
-4.2725866475949807
20
16.764315147676317
30
0
11
-1.3748091687277024
21
15.987858012368726
31
0
0
LINE
5
302
100
AcDbEntity
8
0
100
AcDbLine
10
14.006795185904291
20
-3.9999999999999969
30
0
11
14.006795185904291
21
-2.2204460492503131e-15
31
0
0
LINE
5
303
100
AcDbEntity
8
0
100
AcDbLine
10
22.267326090530453
20
-2.2204460492503131e-15
30
0
11
22.26732609053046
21
-3.9999999999999969
31
-2.2040307691429377e-31
0
LINE
5
304
100
AcDbEntity
8
0
100
AcDbLine
10
-56.861655447952515
20
-5.0000000000149107
30
0
11
-56.861655447960644
21
-8.5000000000157083
31
0
0
LINE
5
305
100
AcDbEntity
8
0
100
AcDbLine
10
-56.861655447925841
20
4.4999999999896563
30
0
11
-56.861655447932193
21
0.99999999999263789
31
0
0
LINE
5
306
100
AcDbEntity
8
0
100
AcDbLine
10
-30.659000924797443
20
4.4999999999897806
30
0
11
-30.659000924797411
21
0.99999999999273559
31
7.0426310388536155e-31
0
LINE
5
307
100
AcDbEntity
8
0
100
AcDbLine
10
-30.659000924797386
20
-4.9999999999927169
30
0
11
-30.6590009247974
21
-8.4999999999962998
31
-3.5269038817657148e-28
0
CIRCLE
5
308
100
AcDbEntity
8
0
100
AcDbCircle
10
51.072591542843597
20
-1.9999999999999796
30
0
40
0.50000000000000011
210
3.1554436208840472e-30
220
-1.2042408677791395e-45
230
1
0
CIRCLE
5
309
100
AcDbEntity
8
0
100
AcDbCircle
10
36.564773931419758
20
50.696510319568802
30
0
40
0.49999999999999856
210
-2.3651097168976931e-28
220
-8.2555716533217126e-29
230
1
0
CIRCLE
5
310
100
AcDbEntity
8
0
100
AcDbCircle
10
36.564773931418159
20
-54.696510319568091
30
0
40
0.49999999999999889
210
1.2941166375478042e-28
220
2.0081120237799592e-29
230
1
0
CIRCLE
5
311
100
AcDbEntity
8
0
100
AcDbCircle
10
-60.02201849213229
20
-21.670247427791764
30
0
40
0.50000000000000011
210
3.0479244868109926e-30
220
8.1668890483205027e-31
230
1
0
CIRCLE
5
312
100
AcDbEntity
8
0
100
AcDbCircle
10
-62.611655694163034
20
-2.0000000000001639
30
0
40
0.50000000000000011
210
3.1554436208840472e-30
220
-1.0525986089057607e-36
230
1
0
CIRCLE
5
313
100
AcDbEntity
8
0
100
AcDbCircle
10
-60.022018492132368
20
17.670247427791374
30
0
40
0.5
210
-2.8437522606029809e-30
220
1.5786700265347956e-30
230
1
0
LINE
5
314
100
AcDbEntity
8
0
100
AcDbLine
10
54.572591542843497
20
-2.0000000000000151
30
5.5915898884451248e-30
11
55.57259154284349
21
-2.0000000000000147
31
5.5915898884451248e-30
0
CIRCLE
5
315
100
AcDbEntity
8
0
100
AcDbCircle
10
53.072591542844009
20
42.981858196334784
30
0
40
0.50000000000000056
210
-6.026189615310936e-46
220
-1.7509384068373103e-32
230
1
0
CIRCLE
5
316
100
AcDbEntity
8
0
100
AcDbCircle
10
53.07259154284413
20
-46.981858196334656
30
0
40
0.50000000000000067
210
3.103935450081851e-44
220
-9.0095516850727673e-31
230
1
0
ENDSEC
0
SECTION
2
OBJECTS
0
DICTIONARY
5
C
100
AcDbDictionary
3
ACAD_GROUP
350
D
3
ACAD_MLINESTYLE
350
17
0
DICTIONARY
5
D
100
AcDbDictionary
0
DICTIONARY
5
1A
330
C
100
AcDbDictionary
0
DICTIONARY
5
17
100
AcDbDictionary
0
ENDSEC
0
EOF
