0
SECTION
2
HEADER
9
$INSUNITS
70
4
9
$ACADVER
1
AC1014
9
$HANDSEED
5
FFFF
0
ENDSEC
0
SECTION
2
TABLES
0
TABLE
2
VPORT
5
8
100
AcDbSymbolTable
0
ENDTAB
0
TABLE
2
LTYPE
5
5
100
AcDbSymbolTable
0
LTYPE
5
14
100
AcDbSymbolTableRecord
100
AcDbLinetypeTableRecord
2
BYBLOCK
70
0
0
LTYPE
5
15
100
AcDbSymbolTableRecord
100
AcDbLinetypeTableRecord
2
BYLAYER
70
0
0
ENDTAB
0
TABLE
2
LAYER
5
2
100
AcDbSymbolTable
70
2
0
LAYER
5
50
100
AcDbSymbolTableRecord
100
AcDbLayerTableRecord
2
0
70
0
6
CONTINUOUS
0
ENDTAB
0
TABLE
2
STYLE
5
3
100
AcDbSymbolTable
70
1
0
STYLE
5
11
100
AcDbSymbolTableRecord
100
AcDbTextStyleTableRecord
2
STANDARD
70
0
0
ENDTAB
0
TABLE
2
VIEW
5
6
100
AcDbSymbolTable
70
0
0
ENDTAB
0
TABLE
2
UCS
5
7
100
AcDbSymbolTable
70
0
0
ENDTAB
0
TABLE
2
APPID
5
9
100
AcDbSymbolTable
70
2
0
APPID
5
12
100
AcDbSymbolTableRecord
100
AcDbRegAppTableRecord
2
ACAD
70
0
0
ENDTAB
0
TABLE
2
DIMSTYLE
5
A
100
AcDbSymbolTable
70
1
0
ENDTAB
0
TABLE
2
BLOCK_RECORD
5
1
100
AcDbSymbolTable
70
1
0
BLOCK_RECORD
5
1F
100
AcDbSymbolTableRecord
100
AcDbBlockTableRecord
2
*MODEL_SPACE
0
BLOCK_RECORD
5
1B
100
AcDbSymbolTableRecord
100
AcDbBlockTableRecord
2
*PAPER_SPACE
0
ENDTAB
0
ENDSEC
0
SECTION
2
BLOCKS
0
BLOCK
5
20
100
AcDbEntity
100
AcDbBlockBegin
2
*MODEL_SPACE
0
ENDBLK
5
21
100
AcDbEntity
100
AcDbBlockEnd
0
BLOCK
5
1C
100
AcDbEntity
100
AcDbBlockBegin
2
*PAPER_SPACE
0
ENDBLK
5
1D
100
AcDbEntity
100
AcDbBlockEnd
0
ENDSEC
0
SECTION
2
ENTITIES
0
LWPOLYLINE
5
100
100
AcDbEntity
8
0
100
AcDbPolyline
90
8
70
1
43
0.0
10
48.748158686843333
20
-55.257097383027002
42
-0.57735039970657265
10
48.691639097245925
20
-55.686405638687681
10
47.491484469895433
20
-56.183525962281053
10
47.278207987667045
20
-57.803521679314258
10
42.816706111484933
20
-57.216153814323846
10
43.469337072585404
20
-52.258929507454795
10
47.93083894876753
20
-52.846297372445214
10
47.71756246653915
20
-54.466293089478427
0
CIRCLE
5
101
100
AcDbEntity
8
0
100
AcDbCircle
10
-19.413194085998441
20
-11.000000000000005
30
0
40
1.7499999999999993
210
8.68166193898039e-63
220
2.1895288505075267e-46
230
1
0
CIRCLE
5
102
100
AcDbEntity
8
0
100
AcDbCircle
10
-19.413194085998441
20
7.0000000000000089
30
0
40
1.7499999999999987
210
-6.9453295511843144e-63
220
1.7516230804060213e-46
230
1
0
LWPOLYLINE
5
103
100
AcDbEntity
8
0
100
AcDbPolyline
90
8
70
1
43
0.0
10
48.691639187683776
20
51.686405601229325
42
-0.57735039970655666
10
48.748158609185133
20
51.257097323438366
10
47.717562466540485
20
50.466293089480089
10
47.930838948768788
20
48.846297372446863
10
43.469337072586669
20
48.258929507456607
10
42.816706111486369
20
53.216153814325665
10
47.278207987668523
20
53.803521679315935
10
47.491484469896825
20
52.183525962282722
0
LWPOLYLINE
5
104
100
AcDbEntity
8
0
100
AcDbPolyline
90
8
70
1
43
0.0
10
-63.6275354659304
20
-23.292512052527435
10
-64.546094050257039
20
-24.211070636854089
42
0.57735039970655389
10
-64.434022185453102
20
-24.629328857940109
10
-63.179247729846367
20
-24.965544660003168
10
-62.756343985132084
20
-26.543842921987974
10
-58.40967776683128
20
-25.379157219026681
10
-59.703772992343829
20
-20.549528087581308
10
-64.05043921064464
20
-21.714213790542605
0
LWPOLYLINE
5
105
100
AcDbEntity
8
0
100
AcDbPolyline
90
8
70
1
43
0.0
10
-22.913194085998438
20
1.000000000000012
10
-22.91319408599843
20
1.5000000000000013
10
-53.316733507792264
20
1.4999999999999836
10
-53.316733507470602
20
-5.4999999999998721
10
-22.913194085998427
20
-5.4999999999999964
10
-22.913194085998434
20
-4.9999999999999982
10
-51.924698225339512
20
-4.9999999999999893
10
-51.924698225339512
20
1.0000000000000075
0
LWPOLYLINE
5
106
100
AcDbEntity
8
0
100
AcDbPolyline
90
8
70
1
43
0.0
10
-63.179247729845962
20
20.965544660003587
10
-64.434022090900427
20
20.62932888327575
42
0.57735039970655833
10
-64.546094119473736
20
20.211070706071609
10
-63.627535465930016
20
19.292512052527858
10
-64.050439210644313
20
17.714213790543059
10
-59.703772992343509
20
16.54952808758167
10
-58.409677766830868
20
21.379157219027025
10
-62.756343985131664
20
22.5438429219884
0
LWPOLYLINE
5
107
100
AcDbEntity
8
0
100
AcDbPolyline
90
8
70
1
43
0.0
10
-66.316733450172748
20
-1.1339745962152459
10
-67.441733365399543
20
-1.783493600109749
42
0.57735039970659696
10
-67.441733450172791
20
-2.216506350945866
10
-66.316733450172762
20
-2.8660254037842381
10
-66.316733450172791
20
-4.499999999999746
10
-61.816733450172791
20
-4.4999999999997815
10
-61.816733450172741
20
0.50000000000022249
10
-66.316733450172734
20
0.50000000000026246
0
LWPOLYLINE
5
108
100
AcDbEntity
8
0
100
AcDbPolyline
90
140
70
1
43
0.0
10
55.788575596088876
20
47.19867228626935
10
55.788575596088876
20
45.698672286269641
10
58.78857559608889
20
45.698672286269641
10
58.78857559608889
20
39.198672286269641
10
56.78857559608889
20
37.198672286269641
10
55.788575596088855
20
37.198672286269655
10
55.788575596088961
20
-41.198672286269584
10
56.788575596088926
20
-41.198672286269584
10
58.788575596088933
20
-43.198672286269577
10
58.788575596088947
20
-49.698672286269584
10
55.78857559608899
20
-49.698672286269591
10
55.788575596088997
20
-51.198672286269264
10
53.788575581187715
20
-51.198672286269286
10
53.788575581187715
20
-49.698672286269584
10
50.788575596088947
20
-49.698672286269591
10
50.788575596088926
20
-43.198672286269598
10
52.788575596088918
20
-41.198672286269591
10
53.788575581187679
20
-41.198672286269591
10
53.788575581187565
20
-6.9999999999999885
10
29.28857559608927
20
-7.000000000000437
10
27.288575596088815
20
-4.9999999999999272
10
27.288575596088833
20
-3.9999999999999969
10
5.8286708792820718e-15
20
-3.9999999999999991
10
2.0071702919481407
20
-11.490861508993277
10
1.0412444656592303
20
-11.749680554095757
10
2.4647492137231182
20
-17.062272598685638
10
1.0505356513500153
20
-19.511762341468831
10
0.56757273820548404
20
-19.641171864020095
10
8.3384524491869705
20
-48.642489764909016
10
35.407251989374835
20
-52.206164831067781
10
35.864093662145208
20
-48.736107816259526
10
43.795652553135646
20
-49.780317354020276
10
43.665126360915551
20
-50.771762215394091
10
55.562464697401204
20
-52.33807652203523
10
57.284302035708635
20
-54.582018629223022
10
56.762197266828245
20
-58.547798074718244
10
54.518255159640454
20
-60.269635413025675
10
42.620916823154786
20
-58.70332110638455
10
42.490390630934684
20
-59.694765967758336
10
34.558831739944253
20
-58.650556429997593
10
35.015673412714612
20
-55.180499415189324
10
9.1788835963050488
20
-51.779021506217767
10
6.2811061174377327
20
-52.555478641525291
10
-2.3302047406617952
20
-20.417628999327682
10
-2.8131676538062496
20
-20.547038521878925
10
-5.2626573965894448
20
-19.13282495950584
10
-6.6861621446533412
20
-13.820232914915929
10
-7.6520879709425511
20
-14.079051960018488
10
-9.5932308092111054
20
-6.8346082628517664
10
-16.354711593243096
20
-8.6463415785717217
10
-15.971176466385604
20
-10.077714158491041
42
-0.58972773052440663
10
-20.461947413305982
20
-14.405614911529858
10
-20.985580761518623
20
-14.54592204431345
10
-16.246672773214591
20
-32.231767429072072
10
-22.042227730949019
20
-33.784681699685308
10
-27.46390410299388
20
-13.550710016995513
10
-22.913194085998427
20
-9.0000000000000107
10
-22.91319408599842
20
-8.4999999999999982
10
-53.316733507332749
20
-8.499999999999881
10
-53.316733507192843
20
-11.544804910886633
10
-49.552260392767089
20
-25.594009837648144
10
-57.762630154075005
20
-27.793971784749356
10
-58.021449199177511
20
-26.82804595846028
10
-69.612559114646359
20
-29.933874499690418
10
-72.062048857429517
20
-28.519660937317294
10
-73.097325037839568
20
-24.655957632161012
10
-71.683111475466447
20
-22.206467889377848
10
-60.092001559997605
20
-19.100639348147702
10
-60.350820605100104
20
-18.134713521858647
10
-55.038228237994133
20
-16.71120868737691
10
-56.316733450172869
20
-11.939762278765864
10
-56.316733450172826
20
-6.9999999999998419
10
-61.816733450172812
20
-6.9999999999997931
10
-61.816733450172805
20
-5.9999999999997877
10
-73.816733450172805
20
-5.9999999999996678
10
-75.816733450172777
20
-3.9999999999996461
10
-75.816733450172748
20
3.5527136788005009e-13
10
-73.816733450172734
20
2.0000000000003282
10
-61.816733450172734
20
2.0000000000002216
10
-61.81673345017272
20
3.0000000000002092
10
-56.31673345017272
20
3.0000000000001514
10
-56.316733450172684
20
7.9397621733943318
10
-55.038228211899465
20
12.711208680385189
10
-60.350820605099848
20
14.134713521859002
10
-60.092001559997314
20
15.100639348148082
10
-71.683111475466092
20
18.206467889378438
10
-73.09732503783917
20
20.655957632161641
10
-72.062048857429033
20
24.519660937317902
10
-69.612559114645876
20
25.933874499690972
10
-58.021449199177077
20
22.82804595846061
10
-57.762630154074543
20
23.793971784749665
10
-49.552260392777036
20
21.594009837651853
10
-53.316733508070023
20
7.5448049076150596
10
-53.316733507930266
20
4.5000000000000178
10
-22.913194085998434
20
4.5000000000000213
10
-22.913194085998427
20
5.000000000000016
10
-27.463904102993887
20
9.5507100169955184
10
-22.042227730949744
20
29.784681699684565
10
-16.24667277321478
20
28.231767429071446
10
-20.985580761518619
20
10.545922044313462
10
-20.461947413305957
20
10.405614911529824
42
-0.58972773052440453
10
-15.971176466385643
20
6.0777141584910659
10
-16.354711593243103
20
4.646341578571727
10
-9.5932308092111072
20
2.8346082628517766
10
-7.6520879709427181
20
10.079051960018155
10
-6.6861621446536272
20
9.8202329149156391
10
-5.2626573965896526
20
15.132824959505868
10
-2.8131676538064818
20
16.547038521878964
10
-2.3302047406617286
20
16.417628999327675
10
6.2811061174381102
20
48.555478641526982
10
9.1788835963054094
20
47.779021506219344
10
35.015673412716147
20
51.180499415190035
10
34.558831739945731
20
54.65055642999971
10
42.490390630936197
20
55.694765967760198
10
42.62091682315625
20
54.703321106386369
10
54.51825515964201
20
56.26963541302711
10
56.762197266829759
20
54.547798074719594
10
57.28430203570997
20
50.582018629224343
10
55.562464697402476
20
48.338076522036602
10
43.665126360916744
20
46.771762215395881
10
43.79565255313679
20
45.780317354022088
10
35.864093662146324
20
44.736107816261601
10
35.407251989375922
20
48.20616483107127
10
8.3384524491877681
20
44.642489764913378
10
0.56757273820548004
20
15.6411718640201
10
1.0505356513497957
20
15.511762341468877
10
2.4647492137228872
20
13.062272598685698
10
1.0412444656589575
20
7.7496805540955265
10
2.007170291947991
20
7.4908615089930191
10
0
20
2.2204460492503131e-15
10
27.288575596088876
20
2.2204460492503131e-15
10
27.28857559608889
20
1.0000000000000742
10
29.288575596088457
20
2.9999999999995786
10
53.788575581187573
20
3.0000000000000071
10
53.788575581187573
20
37.198672286269655
10
52.788575596088883
20
37.198672286269655
10
50.78857559608889
20
39.198672286269641
10
50.78857559608889
20
45.698672286269655
10
53.788575581187573
20
45.698672286269648
10
53.788575581187594
20
47.19867228626935
0
CIRCLE
5
109
100
AcDbEntity
8
0
100
AcDbCircle
10
-67.75005781618917
20
-25.293714059226595
30
0
40
0.5
210
1.5239622434055005e-30
220
4.083444524160099e-31
230
1
0
CIRCLE
5
110
100
AcDbEntity
8
0
100
AcDbCircle
10
-67.750057816188772
20
21.293714059227121
30
0
40
0.5
210
3.252096713019005e-30
220
-5.4707783129331643e-32
230
1
0
CIRCLE
5
111
100
AcDbEntity
8
0
100
AcDbCircle
10
-70.816733450172762
20
-1.9999999999996931
30
0
40
0.5
210
6.3108872417681043e-30
220
9.5586481832964196e-31
230
1
0
CIRCLE
5
112
100
AcDbEntity
8
0
100
AcDbCircle
10
52.066025344399421
20
-55.912277390870159
30
0
40
0.49999999999999867
210
1.7849884655830407e-28
220
-2.6328579867352298e-28
230
1
0
CIRCLE
5
113
100
AcDbEntity
8
0
100
AcDbCircle
10
52.066025344400799
20
51.912277390871672
30
0
40
0.4999999999999985
210
-8.4786952115199742e-29
220
-6.9168303041347372e-29
230
1
0
CIRCLE
5
114
100
AcDbEntity
8
0
100
AcDbCircle
10
-2.1754112267407399
20
-15.199771300228523
30
0
40
0.50000000000000056
210
0
220
0
230
1
0
CIRCLE
5
115
100
AcDbEntity
8
0
100
AcDbCircle
10
-2.1754112267409456
20
11.199771300228583
30
0
40
0.50000000000000056
210
0
220
0
230
1
0
CIRCLE
5
116
100
AcDbEntity
8
0
100
AcDbCircle
10
54.788575596089018
20
-46.198672286269435
30
0
40
0.50000000000000056
210
-1.5777218104420206e-30
220
-1.4006689796265893e-30
230
1
0
CIRCLE
5
117
100
AcDbEntity
8
0
100
AcDbCircle
10
54.788575596088876
20
42.198672286269641
30
0
40
0.50000000000000056
210
3.1554436208840479e-30
220
-5.0427529845566753e-32
230
1
0
ENDSEC
0
SECTION
2
OBJECTS
0
DICTIONARY
5
C
100
AcDbDictionary
3
ACAD_GROUP
350
D
3
ACAD_MLINESTYLE
350
17
0
DICTIONARY
5
D
100
AcDbDictionary
0
DICTIONARY
5
1A
330
C
100
AcDbDictionary
0
DICTIONARY
5
17
100
AcDbDictionary
0
ENDSEC
0
EOF
